<?xml version="1.0" encoding="utf-8"?>
<!-- Generated by IcoMoon.io -->
<!DOCTYPE svg PUBLIC "-//W3C//DTD SVG 1.1//EN" "http://www.w3.org/Graphics/SVG/1.1/DTD/svg11.dtd">
<svg version="1.1" xmlns="http://www.w3.org/2000/svg" xmlns:xlink="http://www.w3.org/1999/xlink" width="512" height="512" viewBox="0 0 512 512">
<g>
</g>
	<path d="M512 384v36.572q0 7.428-5.428 12.857t-12.857 5.428h-475.428q-7.428 0-12.857-5.428t-5.428-12.857v-36.572q0-7.428 5.428-12.857t12.857-5.428h475.428q7.428 0 12.857 5.428t5.428 12.857zM512 274.286v36.572q0 7.428-5.428 12.857t-12.857 5.428h-365.714q-7.428 0-12.857-5.428t-5.428-12.857v-36.572q0-7.428 5.428-12.857t12.857-5.428h365.714q7.428 0 12.857 5.428t5.428 12.857zM512 164.571v36.571q0 7.428-5.428 12.857t-12.857 5.429h-438.857q-7.428 0-12.857-5.428t-5.428-12.857v-36.571q0-7.428 5.428-12.857t12.857-5.429h438.857q7.428 0 12.857 5.428t5.428 12.857zM512 54.857v36.572q0 7.428-5.428 12.857t-12.857 5.428h-329.143q-7.428 0-12.857-5.428t-5.429-12.857v-36.572q0-7.428 5.428-12.857t12.857-5.428h329.143q7.428 0 12.857 5.428t5.428 12.857z" fill="#000000" />
</svg>
