<?xml version="1.0" encoding="utf-8"?>
<!-- Generated by IcoMoon.io -->
<!DOCTYPE svg PUBLIC "-//W3C//DTD SVG 1.1//EN" "http://www.w3.org/Graphics/SVG/1.1/DTD/svg11.dtd">
<svg version="1.1" xmlns="http://www.w3.org/2000/svg" xmlns:xlink="http://www.w3.org/1999/xlink" width="549" height="512" viewBox="0 0 549 512">
<g>
</g>
	<path d="M182.857 402.286q0-15.143-10.714-25.857t-25.857-10.714-25.857 10.714-10.715 25.857 10.715 25.857 25.857 10.714 25.857-10.714 10.714-25.857zM73.143 256h109.715v-73.143h-45.143q-4 0.571-6.286 2.571l-55.715 55.714q-2 3.429-2.572 6.286v8.572zM438.857 402.286q0-15.143-10.714-25.857t-25.857-10.714-25.857 10.714-10.714 25.857 10.714 25.857 25.857 10.714 25.857-10.714 10.714-25.857zM475.428 210.286v-54.857q0-4-2.572-6.571t-6.572-2.571h-64v-64q0-4-2.572-6.572t-6.572-2.572h-54.857q-4 0-6.572 2.572t-2.572 6.572v64h-64q-4 0-6.572 2.571t-2.571 6.572v54.857q0 4 2.571 6.571t6.572 2.571h64v64q0 4 2.572 6.572t6.572 2.572h54.857q4 0 6.572-2.572t2.572-6.572v-64h64q4 0 6.572-2.571t2.572-6.571zM548.572 54.857v329.143q0 7.428-5.428 12.857t-12.857 5.428h-54.857q0 30.286-21.428 51.714t-51.714 21.428-51.714-21.428-21.428-51.714h-109.714q0 30.286-21.428 51.714t-51.714 21.428-51.715-21.428-21.428-51.714h-36.572q-7.428 0-12.857-5.428t-5.428-12.857 5.428-12.857 12.857-5.428v-118.857q0-7.429 3.715-16.571t9.143-14.572l56.572-56.572q5.428-5.428 14.572-9.143t16.572-3.714h45.714v-91.428q0-7.428 5.428-12.857t12.857-5.428h329.143q7.428 0 12.857 5.428t5.428 12.857z" fill="#000000" />
</svg>
