<?xml version="1.0" encoding="utf-8"?>
<!-- Generated by IcoMoon.io -->
<!DOCTYPE svg PUBLIC "-//W3C//DTD SVG 1.1//EN" "http://www.w3.org/Graphics/SVG/1.1/DTD/svg11.dtd">
<svg version="1.1" xmlns="http://www.w3.org/2000/svg" xmlns:xlink="http://www.w3.org/1999/xlink" width="512" height="512" viewBox="0 0 512 512">
<g>
</g>
	<path d="M274.286 73.143q0-7.428-5.428-12.857t-12.857-5.428-12.857 5.428-5.429 12.857 5.428 12.857 12.857 5.428 12.857-5.428 5.428-12.857zM512 338.286v100.572q0 6.286-5.714 8.572-2.286 0.572-3.428 0.572-3.714 0-6.572-2.572l-26.572-26.572q-34 40.857-91 64.714t-122.714 23.857-122.714-23.857-91-64.714l-26.572 26.572q-2.572 2.572-6.572 2.572-1.143 0-3.428-0.572-5.715-2.286-5.715-8.572v-100.572q0-4 2.571-6.572t6.572-2.572h100.572q6.285 0 8.572 5.714 2.285 5.428-2 10l-28.572 28.572q19.143 26 54.143 43.857t77.572 23.572v-184.857h-54.857q-7.429 0-12.857-5.429t-5.428-12.857v-36.571q0-7.428 5.428-12.857t12.857-5.429h54.857v-46.572q-16.572-9.715-26.572-26.428t-10-36.715q0-30.285 21.428-51.715t51.714-21.428 51.714 21.428 21.428 51.715q0 20-10 36.715t-26.572 26.428v46.572h54.857q7.428 0 12.857 5.428t5.428 12.857v36.571q0 7.428-5.428 12.857t-12.857 5.429h-54.857v184.857q42.572-5.714 77.572-23.572t54.143-43.857l-28.572-28.572q-4.286-4.572-2-10 2.286-5.714 8.572-5.714h100.572q4 0 6.572 2.572t2.572 6.572z" fill="#000000" />
</svg>
