<?xml version="1.0" encoding="utf-8"?>
<!-- Generated by IcoMoon.io -->
<!DOCTYPE svg PUBLIC "-//W3C//DTD SVG 1.1//EN" "http://www.w3.org/Graphics/SVG/1.1/DTD/svg11.dtd">
<svg version="1.1" xmlns="http://www.w3.org/2000/svg" xmlns:xlink="http://www.w3.org/1999/xlink" width="403" height="512" viewBox="0 0 403 512">
<g>
</g>
	<path d="M398 347.143q-11.143 35.714-35.143 71.428-36.857 56-73.428 56-14 0-40-9.143-24.572-9.143-43.143-9.143-17.429 0-40.571 9.428-23.143 9.714-37.715 9.714-43.428 0-86-74-42-74.572-42-143.714 0-65.143 32.285-106.857 32-41.143 81.143-41.143 20.572 0 50.572 8.572 29.714 8.572 39.428 8.572 12.857 0 40.857-9.715 29.143-9.715 49.429-9.715 34 0 60.857 18.572 14.857 10.285 29.714 28.572-22.572 19.143-32.572 33.715-18.572 26.857-18.572 59.143 0 35.429 19.714 63.715t45.143 36zM290.572 12q0 17.428-8.286 38.857-8.572 21.428-26.572 39.428-15.428 15.428-30.857 20.572-10.571 3.143-29.715 4.857 0.857-42.572 22.286-73.428 21.143-30.572 71.428-42.285 0.286 0.857 0.714 3.143t0.714 3.143q0 1.143 0.143 2.857t0.143 2.857z" fill="#000000" />
</svg>
