<?xml version="1.0" encoding="utf-8"?>
<!-- Generated by IcoMoon.io -->
<!DOCTYPE svg PUBLIC "-//W3C//DTD SVG 1.1//EN" "http://www.w3.org/Graphics/SVG/1.1/DTD/svg11.dtd">
<svg version="1.1" xmlns="http://www.w3.org/2000/svg" xmlns:xlink="http://www.w3.org/1999/xlink" width="512" height="512" viewBox="0 0 512 512">
<g>
</g>
	<path d="M310.857 237.714q0-7.428-5.428-12.857t-12.857-5.429h-73.143q-7.429 0-12.857 5.428t-5.428 12.857 5.428 12.857 12.857 5.428h73.143q7.428 0 12.857-5.428t5.428-12.857zM475.428 182.857v274.286q0 7.428-5.428 12.857t-12.857 5.428h-402.286q-7.428 0-12.857-5.428t-5.428-12.857v-274.286q0-7.428 5.428-12.857t12.857-5.429h402.286q7.428 0 12.857 5.428t5.428 12.857zM493.714 54.857v73.143q0 7.428-5.428 12.857t-12.857 5.429h-438.857q-7.428 0-12.857-5.428t-5.428-12.857v-73.143q0-7.428 5.428-12.857t12.857-5.428h438.857q7.428 0 12.857 5.428t5.428 12.857z" fill="#000000" />
</svg>
