<?xml version="1.0" encoding="utf-8"?>
<!-- Generated by IcoMoon.io -->
<!DOCTYPE svg PUBLIC "-//W3C//DTD SVG 1.1//EN" "http://www.w3.org/Graphics/SVG/1.1/DTD/svg11.dtd">
<svg version="1.1" xmlns="http://www.w3.org/2000/svg" xmlns:xlink="http://www.w3.org/1999/xlink" width="476" height="512" viewBox="0 0 476 512">
<g>
</g>
	<path d="M460.286 237.714q0 15.143-10.572 25.714l-186 186.286q-11.143 10.572-26 10.572-15.143 0-25.714-10.572l-186-186.286q-10.857-10.286-10.857-25.714 0-15.143 10.857-26l21.143-21.428q11.143-10.572 26-10.572 15.143 0 25.715 10.572l84 84v-201.143q0-14.857 10.857-25.715t25.715-10.857h36.572q14.857 0 25.714 10.857t10.857 25.715v201.143l84-84q10.572-10.572 25.714-10.572 14.857 0 26 10.572l21.428 21.428q10.572 11.143 10.572 26z" fill="#000000" />
</svg>
