<?xml version="1.0" encoding="utf-8"?>
<!-- Generated by IcoMoon.io -->
<!DOCTYPE svg PUBLIC "-//W3C//DTD SVG 1.1//EN" "http://www.w3.org/Graphics/SVG/1.1/DTD/svg11.dtd">
<svg version="1.1" xmlns="http://www.w3.org/2000/svg" xmlns:xlink="http://www.w3.org/1999/xlink" width="476" height="512" viewBox="0 0 476 512">
<g>
</g>
	<path d="M460.286 277.428q0 14.572-10.572 25.714l-21.428 21.428q-10.857 10.857-26 10.857-15.428 0-25.714-10.857l-84-83.714v201.143q0 14.857-10.714 24.143t-25.857 9.286h-36.571q-15.143 0-25.857-9.286t-10.714-24.143v-201.143l-84 83.715q-10.285 10.857-25.715 10.857t-25.715-10.857l-21.428-21.428q-10.857-10.857-10.857-25.714 0-15.143 10.857-26l186-186q10-10.572 25.714-10.572 15.428 0 26 10.572l186 186q10.572 11.143 10.572 26z" fill="#000000" />
</svg>
