<?xml version="1.0" encoding="utf-8"?>
<!-- Generated by IcoMoon.io -->
<!DOCTYPE svg PUBLIC "-//W3C//DTD SVG 1.1//EN" "http://www.w3.org/Graphics/SVG/1.1/DTD/svg11.dtd">
<svg version="1.1" xmlns="http://www.w3.org/2000/svg" xmlns:xlink="http://www.w3.org/1999/xlink" width="439" height="512" viewBox="0 0 439 512">
<g>
</g>
	<path d="M438.857 256v36.572q0 15.143-9.286 25.857t-24.143 10.714h-201.143l83.715 84q10.857 10.286 10.857 25.714t-10.857 25.714l-21.428 21.714q-10.572 10.572-25.714 10.572-14.857 0-26-10.572l-186-186.286q-10.572-10.572-10.572-25.714 0-14.857 10.572-26l186-185.714q10.857-10.857 26-10.857 14.857 0 25.714 10.857l21.428 21.143q10.857 10.857 10.857 26t-10.857 26l-83.714 83.715h201.143q14.857 0 24.143 10.714t9.286 25.857z" fill="#000000" />
</svg>
