<?xml version="1.0" encoding="utf-8"?>
<!-- Generated by IcoMoon.io -->
<!DOCTYPE svg PUBLIC "-//W3C//DTD SVG 1.1//EN" "http://www.w3.org/Graphics/SVG/1.1/DTD/svg11.dtd">
<svg version="1.1" xmlns="http://www.w3.org/2000/svg" xmlns:xlink="http://www.w3.org/1999/xlink" width="439" height="512" viewBox="0 0 439 512">
<g>
</g>
	<path d="M420.572 274.286q0 15.428-10.572 26l-186 186q-11.143 10.572-26 10.572-14.572 0-25.714-10.572l-21.428-21.428q-10.857-10.857-10.857-26t10.857-26l83.714-83.714h-201.143q-14.857 0-24.143-10.714t-9.286-25.857v-36.572q0-15.143 9.286-25.857t24.143-10.714h201.143l-83.714-84q-10.857-10.285-10.857-25.715t10.857-25.715l21.428-21.428q10.857-10.857 25.714-10.857 15.143 0 26 10.857l186 186q10.572 10 10.572 25.714z" fill="#000000" />
</svg>
