<?xml version="1.0" encoding="utf-8"?>
<!-- Generated by IcoMoon.io -->
<!DOCTYPE svg PUBLIC "-//W3C//DTD SVG 1.1//EN" "http://www.w3.org/Graphics/SVG/1.1/DTD/svg11.dtd">
<svg version="1.1" xmlns="http://www.w3.org/2000/svg" xmlns:xlink="http://www.w3.org/1999/xlink" width="476" height="512" viewBox="0 0 476 512">
<g>
</g>
	<path d="M423.428 300q13.143 7.428 17 22.143t-3.572 27.857l-18.286 31.428q-7.428 13.143-22.143 17t-27.857-3.572l-76-43.714v87.714q0 14.857-10.857 25.714t-25.714 10.857h-36.572q-14.857 0-25.714-10.857t-10.857-25.714v-87.714l-76 43.714q-13.143 7.428-27.857 3.572t-22.143-17l-18.285-31.428q-7.428-13.143-3.572-27.857t17-22.143l76-44-76-44q-13.143-7.428-17-22.143t3.572-27.857l18.285-31.428q7.428-13.143 22.143-17t27.857 3.572l76 43.715v-87.715q0-14.857 10.857-25.715t25.714-10.857h36.572q14.857 0 25.714 10.857t10.857 25.715v87.715l76-43.715q13.143-7.428 27.857-3.572t22.143 17l18.286 31.428q7.428 13.143 3.572 27.857t-17 22.143l-76 44z" fill="#000000" />
</svg>
