<?xml version="1.0" encoding="utf-8"?>
<!-- Generated by IcoMoon.io -->
<!DOCTYPE svg PUBLIC "-//W3C//DTD SVG 1.1//EN" "http://www.w3.org/Graphics/SVG/1.1/DTD/svg11.dtd">
<svg version="1.1" xmlns="http://www.w3.org/2000/svg" xmlns:xlink="http://www.w3.org/1999/xlink" width="439" height="512" viewBox="0 0 439 512">
<g>
</g>
	<path d="M374.857 255.143q0-46-24.857-84.285l-215.429 215.143q39.143 25.428 84.857 25.428 31.714 0 60.428-12.428t49.572-33.286 33.143-49.857 12.286-60.714zM89.428 340.572l215.714-215.429q-38.572-26-85.714-26-42.286 0-78 20.857t-56.572 56.857-20.857 78.285q0 46.286 25.428 85.428zM438.857 255.143q0 44.857-17.428 85.715t-46.714 70.286-70 46.857-85.286 17.428-85.286-17.428-70-46.857-46.715-70.286-17.428-85.714 17.428-85.572 46.715-70.143 70-46.857 85.286-17.428 85.286 17.428 70 46.857 46.714 70.143 17.428 85.572z" fill="#000000" />
</svg>
