<?xml version="1.0" encoding="utf-8"?>
<!-- Generated by IcoMoon.io -->
<!DOCTYPE svg PUBLIC "-//W3C//DTD SVG 1.1//EN" "http://www.w3.org/Graphics/SVG/1.1/DTD/svg11.dtd">
<svg version="1.1" xmlns="http://www.w3.org/2000/svg" xmlns:xlink="http://www.w3.org/1999/xlink" width="512" height="512" viewBox="0 0 512 512">
<g>
</g>
	<path d="M18 438.857h-18v-402.286h18v402.286zM36 438.572h-9.143v-402h9.143v402zM62.857 438.572h-8.857v-402h8.857v402zM107.715 438.572h-8.857v-402h8.857v402zM152.571 438.572h-17.715v-402h17.714v402zM188.571 438.572h-8.857v-402h8.857v402zM206.571 438.572h-8.857v-402h8.857v402zM224.571 438.572h-8.857v-402h8.857v402zM269.428 438.572h-18v-402h18v402zM314.286 438.572h-18v-402h18v402zM350.286 438.572h-18v-402h18v402zM386.286 438.572h-18v-402h18v402zM413.143 438.572h-18v-402h18v402zM467.143 438.572h-26.857v-402h26.857v402zM485.143 438.572h-9.143v-402h9.143v402zM512 438.857h-18v-402.286h18v402.286z" fill="#000000" />
</svg>
