<?xml version="1.0" encoding="utf-8"?>
<!-- Generated by IcoMoon.io -->
<!DOCTYPE svg PUBLIC "-//W3C//DTD SVG 1.1//EN" "http://www.w3.org/Graphics/SVG/1.1/DTD/svg11.dtd">
<svg version="1.1" xmlns="http://www.w3.org/2000/svg" xmlns:xlink="http://www.w3.org/1999/xlink" width="476" height="512" viewBox="0 0 476 512">
<g>
</g>
	<path d="M242.286 484.572q0-4.572-4.572-4.572-16.857 0-29-12.143t-12.143-29q0-4.572-4.571-4.572t-4.572 4.572q0 20.857 14.714 35.572t35.572 14.714q4.572 0 4.572-4.572zM52.285 402.286h370.857q-46.857-51.714-70.428-117.572t-23.572-138.429q0-73.143-91.428-73.143t-91.428 73.143q0 72.571-23.572 138.429t-70.428 117.572zM475.428 402.286q0 14.857-10.857 25.714t-25.714 10.857h-128q0 30.286-21.428 51.714t-51.714 21.428-51.714-21.428-21.428-51.714h-128q-14.857 0-25.715-10.857t-10.857-25.714q54.285-46 82-113.572t27.715-142.429q0-47.143 27.429-74.857t75.428-33.428q-2.286-5.143-2.286-10.572 0-11.428 8-19.428t19.428-8 19.428 8 8 19.428q0 5.428-2.286 10.572 48 5.715 75.428 33.428t27.428 74.857q0 74.857 27.714 142.429t82 113.572z" fill="#000000" />
</svg>
