<?xml version="1.0" encoding="utf-8"?>
<!-- Generated by IcoMoon.io -->
<!DOCTYPE svg PUBLIC "-//W3C//DTD SVG 1.1//EN" "http://www.w3.org/Graphics/SVG/1.1/DTD/svg11.dtd">
<svg version="1.1" xmlns="http://www.w3.org/2000/svg" xmlns:xlink="http://www.w3.org/1999/xlink" width="403" height="512" viewBox="0 0 403 512">
<g>
</g>
	<path d="M232.857 245.429q2.286 18-14.429 28.857t-31.857 1.714q-11.143-4.857-15.286-16.572t-0.143-23.428 14.857-16.572q10.286-5.143 20.715-3.429t18.286 10.143 7.857 19.286zM264.572 239.429q-4-30.571-32.286-46.857t-56.286-3.714q-18 8-28.714 25.286t-9.857 37q1.143 26 22.143 44.286t47.286 16q26-2.286 43.428-24t14.286-48zM332.857 84.572q-5.714-7.715-16-12.715t-16.572-6.285-20.286-3.572q-83.143-13.428-161.714 0.572-12.285 2-18.857 3.428t-15.715 6.285-14.285 12.285q8.572 8 21.715 13t21 6.285 25 3.285q65.143 8.285 128 0.285 18-2.285 25.572-3.428t20.714-6.143 21.428-13.285zM349.143 380.286q-2.286 7.428-4.428 21.857t-4 24-8.143 20-16.572 16.143q-24.572 13.714-54.143 20.428t-57.714 6.286-57.572-5.286q-13.143-2.286-23.285-5.143t-21.857-7.714-20.857-12.428-14.857-17.572q-7.143-27.428-16.285-83.428l1.715-4.572 5.143-2.572q63.715 42.286 144.714 42.286t145-42.286q6 1.714 6.857 6.572t-1.428 12.857-2.286 10.572zM400.857 105.715q-7.428 47.715-31.714 187.143-1.428 8.572-7.714 16t-12.428 11.428-15.572 8.857q-72 36-174.286 25.143-70.857-7.714-112.572-39.714-4.285-3.428-7.285-7.572t-4.857-10-2.572-9.714-1.715-11.286-1.572-10q-2.572-14.286-7.572-42.857t-8-46.143-6.715-42.143-6.285-45.143q0.857-7.428 5-13.857t9-10.715 12.857-8.572 13.143-6.428 13.715-5.285q35.715-13.143 89.428-18.285 108.286-10.572 193.143 14.285 44.286 13.143 61.428 34.857 4.572 5.715 4.714 14.572t-1.572 15.428z" fill="#000000" />
</svg>
