<?xml version="1.0" encoding="utf-8"?>
<!-- Generated by IcoMoon.io -->
<!DOCTYPE svg PUBLIC "-//W3C//DTD SVG 1.1//EN" "http://www.w3.org/Graphics/SVG/1.1/DTD/svg11.dtd">
<svg version="1.1" xmlns="http://www.w3.org/2000/svg" xmlns:xlink="http://www.w3.org/1999/xlink" width="439" height="512" viewBox="0 0 439 512">
<g>
</g>
	<path d="M242.286 248.571q0-12.286-11.714-18.857t-22-0.286q-12.286 5.714-12.143 20.714t12.429 20.143q11.143 6.572 23.143-1.143t10.286-20.572zM265.143 244q2.286 18.857-10.286 34.572t-31.428 17.428-34-11.428-16-32.286q-0.571-14 7.286-26.572t20.714-18.286q20-8.857 40.428 2.857t23.286 33.715zM314.286 132.286q-5.714 6-15.286 9.714t-15.143 4.572-18.143 2.286q-44.286 5.714-92.572 0-12.572-1.714-18-2.714t-15-4.572-15.572-9.286q3.715-5.428 10.285-8.857t11.428-4.428 13.428-2.428q56.572-10 116.572-0.285 9.428 1.428 14.572 2.428t12.286 4.572 11.143 9zM326.286 345.428q0-2 1.572-7.572t0.857-9.143-5-4.714q-46 30.286-104.286 30.286t-104.572-30.286l-3.428 1.714-1.428 3.428q7.428 44 11.715 60 13.428 23.143 58.286 30.857 71.143 13.143 122.286-15.143 9.714-5.428 14-14.714t6.428-24.428 3.572-20.286zM363.428 147.429q2.572-15.143-2.286-21.428-12.286-15.715-44.286-25.143-61.714-18-139.143-10.285-37.715 3.428-64.572 13.143-10.857 4.285-17 7.143t-13.428 9.715-8.428 15.428q2.285 19.429 5.428 39.429t8.285 48.857 6.857 39.143q0.285 1.428 1.428 8.857t2 10.286 3.428 7.714 6.285 8q30 22.857 81.143 28.572 74 8 125.715-18 6.857-3.714 11.286-6.572t8.857-8.286 5.572-11.428q13.714-76.286 22.857-135.143zM438.857 118.857v274.286q0 34-24.143 58.143t-58.143 24.143h-274.286q-34 0-58.143-24.143t-24.143-58.143v-274.286q0-34 24.143-58.143t58.143-24.143h274.286q34 0 58.143 24.143t24.143 58.143z" fill="#000000" />
</svg>
