<?xml version="1.0" encoding="utf-8"?>
<!-- Generated by IcoMoon.io -->
<!DOCTYPE svg PUBLIC "-//W3C//DTD SVG 1.1//EN" "http://www.w3.org/Graphics/SVG/1.1/DTD/svg11.dtd">
<svg version="1.1" xmlns="http://www.w3.org/2000/svg" xmlns:xlink="http://www.w3.org/1999/xlink" width="366" height="512" viewBox="0 0 366 512">
<g>
</g>
	<path d="M333.428 182.857q5.143 52-37.428 73.715 33.428 8 50 29.428t12.857 61.143q-2 20.286-9.286 35.714t-18.428 25.428-27.714 16.714-34.714 9.857-41.572 4.286v72.857h-44v-71.714q-22.857 0-34.857-0.286v72h-44v-72.857q-5.143 0-15.428-0.143t-15.715-0.143h-57.143l8.857-52.286h31.715q14.285 0 16.572-14.572v-114.857h4.572q-1.715-0.286-4.572-0.286v-82q-3.715-19.428-25.428-19.428h-31.715v-46.857l60.572 0.285q18.285 0 27.715-0.285v-72h44v70.572q23.429-0.572 34.857-0.572v-70h44v72q22.572 2 40 6.428t32.286 12.857 23.572 22.285 10.428 32.714zM272 338.572q0-10.286-4.286-18.286t-10.572-13.143-16.428-8.714-18.714-5.286-21.143-2.572-19.715-0.857-18.428 0.286-13.572 0.286v96.572q2.286 0 10.572 0.143t13.714 0.143 15.143-0.428 16.715-1.143 16.286-2.428 15.857-4 13.571-6 11.286-8.572 7-11.428 2.714-14.572zM251.714 202.571q0-9.429-3.571-16.715t-8.714-12-13.714-8-15.714-4.714-17.571-2.286-16.572-0.714-15.428 0.286-11.286 0.143v87.715q1.429 0 9.857 0.143t13.286 0 14.286-0.571 15.714-1.571 14.714-3.143 13.857-5.286 10.572-7.714 7.714-11 2.571-14.572z" fill="#000000" />
</svg>
