<?xml version="1.0" encoding="utf-8"?>
<!-- Generated by IcoMoon.io -->
<!DOCTYPE svg PUBLIC "-//W3C//DTD SVG 1.1//EN" "http://www.w3.org/Graphics/SVG/1.1/DTD/svg11.dtd">
<svg version="1.1" xmlns="http://www.w3.org/2000/svg" xmlns:xlink="http://www.w3.org/1999/xlink" width="256" height="512" viewBox="0 0 256 512">
<g>
</g>
	<path d="M252.857 161.714q5.143 5.714 2 12.572l-154.286 330.572q-3.715 7.143-12 7.143-1.143 0-4-0.572-4.857-1.428-7.285-5.428t-1.285-8.572l56.286-230.857-116 28.857q-1.143 0.286-3.428 0.286-5.143 0-8.857-3.143-5.143-4.286-3.715-11.143l57.428-235.714q1.143-4 4.572-6.572t8-2.572h93.714q5.428 0 9.143 3.572t3.714 8.428q0 2.285-1.429 5.143l-48.857 132.286 113.143-28q2.286-0.571 3.429-0.571 5.429 0 9.714 4.286z" fill="#000000" />
</svg>
