<?xml version="1.0" encoding="utf-8"?>
<!-- Generated by IcoMoon.io -->
<!DOCTYPE svg PUBLIC "-//W3C//DTD SVG 1.1//EN" "http://www.w3.org/Graphics/SVG/1.1/DTD/svg11.dtd">
<svg version="1.1" xmlns="http://www.w3.org/2000/svg" xmlns:xlink="http://www.w3.org/1999/xlink" width="476" height="512" viewBox="0 0 476 512">
<g>
</g>
	<path d="M468.286 136.571q11.428 16.285 5.143 36.857l-78.572 258.857q-5.428 18.286-21.857 30.714t-35 12.428h-263.714q-22 0-42.428-15.286t-28.428-37.572q-6.857-19.143-0.571-36.286 0-1.143 0.857-7.714t1.143-10.572q0.285-2.286-0.857-6.143t-0.857-5.572q0.571-3.143 2.285-6t4.715-6.714 4.714-6.714q6.572-10.857 12.857-26.143t8.572-26.143q0.857-2.857 0.143-8.572t-0.143-8q0.857-3.143 4.857-8t4.857-6.572q6-10.286 12-26.286t7.143-25.714q0.285-2.571-0.715-9.143t0.143-8q1.143-3.714 6.285-8.714t6.285-6.429q5.428-7.428 12.143-24.143t7.857-27.572q0.285-2.285-0.857-7.285t-0.572-7.572q0.572-2.285 2.572-5.143t5.143-6.572 4.857-6q2.285-3.428 4.715-8.715t4.285-10 4.572-10.285 5.572-9.143 7.571-6.715 10.286-3.285 13.572 1.572l-0.286 0.857q10.857-2.572 14.572-2.572h217.428q21.143 0 32.572 16t5.143 37.143l-78.286 258.857q-10.286 34-20.428 43.857t-36.714 9.857h-248.286q-7.715 0-10.857 4.286-3.143 4.572-0.285 12.286 6.857 20 41.143 20h263.714q8.286 0 16-4.428t10-11.857l85.714-282q2-6.286 1.428-16.285 10.857 4.285 16.857 12.285zM164.286 137.143q-1.143 3.714 0.571 6.429t5.714 2.714h173.714q3.714 0 7.286-2.714t4.714-6.428l6-18.285q1.143-3.715-0.572-6.428t-5.714-2.715h-173.714q-3.714 0-7.286 2.715t-4.714 6.428zM140.571 210.286q-1.143 3.714 0.571 6.428t5.714 2.714h173.714q3.714 0 7.286-2.714t4.714-6.428l6-18.286q1.143-3.714-0.572-6.428t-5.714-2.714h-173.714q-3.714 0-7.286 2.714t-4.714 6.428z" fill="#000000" />
</svg>
