<?xml version="1.0" encoding="utf-8"?>
<!-- Generated by IcoMoon.io -->
<!DOCTYPE svg PUBLIC "-//W3C//DTD SVG 1.1//EN" "http://www.w3.org/Graphics/SVG/1.1/DTD/svg11.dtd">
<svg version="1.1" xmlns="http://www.w3.org/2000/svg" xmlns:xlink="http://www.w3.org/1999/xlink" width="366" height="512" viewBox="0 0 366 512">
<g>
</g>
	<path d="M329.143 73.143h-292.572v354.857l146.286-140.286 25.428 24.286 120.857 116v-354.857zM332.572 36.572q6.572 0 12.572 2.572 9.428 3.715 15 11.715t5.572 17.715v368.286q0 9.714-5.572 17.714t-15 11.714q-5.428 2.286-12.572 2.286-13.714 0-23.714-9.143l-126-121.143-126 121.143q-10.285 9.428-23.715 9.428-6.572 0-12.572-2.572-9.428-3.714-15-11.714t-5.572-17.714v-368.286q0-9.715 5.572-17.715t15-11.715q6-2.572 12.572-2.572h299.428z" fill="#000000" />
</svg>
