<?xml version="1.0" encoding="utf-8"?>
<!-- Generated by IcoMoon.io -->
<!DOCTYPE svg PUBLIC "-//W3C//DTD SVG 1.1//EN" "http://www.w3.org/Graphics/SVG/1.1/DTD/svg11.dtd">
<svg version="1.1" xmlns="http://www.w3.org/2000/svg" xmlns:xlink="http://www.w3.org/1999/xlink" width="403" height="512" viewBox="0 0 403 512">
<g>
</g>
	<path d="M109.715 374.857v18.286q0 3.714-2.715 6.428t-6.428 2.714h-18.285q-3.715 0-6.428-2.714t-2.715-6.428v-18.286q0-3.714 2.715-6.428t6.428-2.714h18.285q3.715 0 6.428 2.714t2.715 6.428zM109.715 301.714v18.286q0 3.714-2.715 6.428t-6.428 2.714h-18.285q-3.715 0-6.428-2.714t-2.715-6.428v-18.286q0-3.714 2.715-6.428t6.428-2.714h18.285q3.715 0 6.428 2.714t2.715 6.428zM182.857 301.714v18.286q0 3.714-2.714 6.428t-6.429 2.714h-18.286q-3.714 0-6.428-2.714t-2.714-6.428v-18.286q0-3.714 2.714-6.428t6.428-2.714h18.286q3.714 0 6.428 2.714t2.714 6.428zM109.715 228.571v18.285q0 3.714-2.715 6.428t-6.428 2.714h-18.285q-3.715 0-6.428-2.714t-2.715-6.428v-18.286q0-3.714 2.715-6.428t6.428-2.714h18.285q3.715 0 6.428 2.714t2.715 6.428zM329.143 374.857v18.286q0 3.714-2.714 6.428t-6.428 2.714h-18.286q-3.714 0-6.428-2.714t-2.714-6.428v-18.286q0-3.714 2.714-6.428t6.428-2.714h18.286q3.714 0 6.428 2.714t2.714 6.428zM256 301.714v18.286q0 3.714-2.714 6.428t-6.428 2.714h-18.286q-3.714 0-6.428-2.714t-2.714-6.428v-18.286q0-3.714 2.714-6.428t6.428-2.714h18.286q3.714 0 6.428 2.714t2.714 6.428zM182.857 228.571v18.285q0 3.714-2.714 6.428t-6.429 2.714h-18.286q-3.714 0-6.428-2.714t-2.714-6.428v-18.286q0-3.714 2.714-6.428t6.428-2.714h18.286q3.714 0 6.428 2.714t2.714 6.428zM109.715 155.429v18.285q0 3.714-2.715 6.428t-6.428 2.714h-18.285q-3.715 0-6.428-2.714t-2.715-6.428v-18.286q0-3.714 2.715-6.428t6.428-2.714h18.285q3.715 0 6.428 2.714t2.715 6.428zM329.143 301.714v18.286q0 3.714-2.714 6.428t-6.428 2.714h-18.286q-3.714 0-6.428-2.714t-2.714-6.428v-18.286q0-3.714 2.714-6.428t6.428-2.714h18.286q3.714 0 6.428 2.714t2.714 6.428zM256 228.571v18.285q0 3.714-2.714 6.428t-6.428 2.714h-18.286q-3.714 0-6.428-2.714t-2.714-6.428v-18.286q0-3.714 2.714-6.428t6.428-2.714h18.286q3.714 0 6.428 2.714t2.714 6.428zM182.857 155.429v18.285q0 3.714-2.714 6.428t-6.429 2.714h-18.286q-3.714 0-6.428-2.714t-2.714-6.428v-18.286q0-3.714 2.714-6.428t6.428-2.714h18.286q3.714 0 6.428 2.714t2.714 6.428zM109.715 82.285v18.285q0 3.715-2.715 6.428t-6.428 2.715h-18.285q-3.715 0-6.428-2.715t-2.715-6.428v-18.285q0-3.715 2.715-6.428t6.428-2.715h18.285q3.715 0 6.428 2.715t2.715 6.428zM329.143 228.571v18.285q0 3.714-2.714 6.428t-6.428 2.714h-18.286q-3.714 0-6.428-2.714t-2.714-6.428v-18.286q0-3.714 2.714-6.428t6.428-2.714h18.286q3.714 0 6.428 2.714t2.714 6.428zM256 155.429v18.285q0 3.714-2.714 6.428t-6.428 2.714h-18.286q-3.714 0-6.428-2.714t-2.714-6.428v-18.286q0-3.714 2.714-6.428t6.428-2.714h18.286q3.714 0 6.428 2.714t2.714 6.428zM182.857 82.285v18.285q0 3.715-2.714 6.428t-6.429 2.715h-18.286q-3.714 0-6.428-2.715t-2.714-6.428v-18.285q0-3.715 2.714-6.428t6.428-2.715h18.286q3.714 0 6.428 2.715t2.714 6.428zM329.143 155.429v18.285q0 3.714-2.714 6.428t-6.428 2.714h-18.286q-3.714 0-6.428-2.714t-2.714-6.428v-18.286q0-3.714 2.714-6.428t6.428-2.714h18.286q3.714 0 6.428 2.714t2.714 6.428zM256 82.285v18.285q0 3.715-2.714 6.428t-6.428 2.715h-18.286q-3.714 0-6.428-2.715t-2.714-6.428v-18.285q0-3.715 2.714-6.428t6.428-2.715h18.286q3.714 0 6.428 2.715t2.714 6.428zM329.143 82.285v18.285q0 3.715-2.714 6.428t-6.428 2.715h-18.286q-3.714 0-6.428-2.715t-2.714-6.428v-18.285q0-3.715 2.714-6.428t6.428-2.715h18.286q3.714 0 6.428 2.715t2.714 6.428zM256 475.428h109.714v-438.857h-329.143v438.857h109.714v-64q0-3.714 2.714-6.428t6.428-2.714h91.428q3.714 0 6.428 2.714t2.714 6.428v64zM402.286 18.285v475.428q0 7.428-5.428 12.857t-12.857 5.428h-365.714q-7.428 0-12.857-5.428t-5.428-12.857v-475.428q0-7.428 5.428-12.857t12.857-5.428h365.714q7.428 0 12.857 5.428t5.428 12.857z" fill="#000000" />
</svg>
