<?xml version="1.0" encoding="utf-8"?>
<!-- Generated by IcoMoon.io -->
<!DOCTYPE svg PUBLIC "-//W3C//DTD SVG 1.1//EN" "http://www.w3.org/Graphics/SVG/1.1/DTD/svg11.dtd">
<svg version="1.1" xmlns="http://www.w3.org/2000/svg" xmlns:xlink="http://www.w3.org/1999/xlink" width="439" height="512" viewBox="0 0 439 512">
<g>
</g>
	<path d="M292.572 256q0 30.286-21.428 51.714t-51.714 21.428-51.714-21.428-21.428-51.714 21.428-51.714 51.714-21.428 51.714 21.428 21.428 51.714zM329.143 256q0-45.428-32.143-77.572t-77.572-32.143-77.572 32.143-32.143 77.572 32.143 77.572 77.572 32.143 77.572-32.143 32.143-77.572zM365.714 256q0 60.572-42.857 103.428t-103.428 42.857-103.428-42.857-42.857-103.428 42.857-103.428 103.428-42.857 103.428 42.857 42.857 103.428zM402.286 256q0-37.143-14.572-71t-39-58.285-58.286-39-71-14.572-71 14.572-58.285 39-39 58.285-14.572 71 14.572 71 39 58.286 58.285 39 71 14.572 71-14.572 58.286-39 39-58.286 14.572-71zM438.857 256q0 59.714-29.428 110.143t-79.857 79.857-110.143 29.428-110.143-29.428-79.857-79.857-29.428-110.143 29.428-110.143 79.857-79.857 110.143-29.428 110.143 29.428 79.857 79.857 29.428 110.143z" fill="#000000" />
</svg>
