<?xml version="1.0" encoding="utf-8"?>
<!-- Generated by IcoMoon.io -->
<!DOCTYPE svg PUBLIC "-//W3C//DTD SVG 1.1//EN" "http://www.w3.org/Graphics/SVG/1.1/DTD/svg11.dtd">
<svg version="1.1" xmlns="http://www.w3.org/2000/svg" xmlns:xlink="http://www.w3.org/1999/xlink" width="512" height="512" viewBox="0 0 512 512">
<g>
</g>
	<path d="M475.428 182.857q15.143 0 25.857 10.714t10.714 25.857-10.714 25.857-25.857 10.714v109.715q0 14.857-10.857 25.714t-25.714 10.857q-119.143-99.143-232-108.572-16.572 5.428-26 18.857t-8.857 28.714 11.429 26.428q-5.714 9.428-6.572 18.714t1.714 16.572 9.572 15.714 13.714 14.286 17.572 14.428q-8.286 16.572-31.857 23.714t-48.143 3.286-37.715-15.857q-2-6.572-8.428-25t-9.143-27-6.572-25.428-4.285-28.857 1-28.143 6.285-31.572h-34.857q-18.857 0-32.285-13.428t-13.428-32.286v-54.857q0-18.857 13.428-32.285t32.285-13.428h137.143q124.286 0 256-109.715 14.857 0 25.714 10.857t10.857 25.715v109.715zM438.857 355.428v-272.572q-112.572 86.286-219.429 98v77.143q107.715 12 219.429 97.428z" fill="#000000" />
</svg>
