<?xml version="1.0" encoding="utf-8"?>
<!-- Generated by IcoMoon.io -->
<!DOCTYPE svg PUBLIC "-//W3C//DTD SVG 1.1//EN" "http://www.w3.org/Graphics/SVG/1.1/DTD/svg11.dtd">
<svg version="1.1" xmlns="http://www.w3.org/2000/svg" xmlns:xlink="http://www.w3.org/1999/xlink" width="476" height="512" viewBox="0 0 476 512">
<g>
</g>
	<path d="M36.572 475.428h82.285v-82.286h-82.285v82.286zM137.143 475.428h91.429v-82.286h-91.428v82.286zM36.572 374.857h82.285v-91.428h-82.285v91.428zM137.143 374.857h91.429v-91.428h-91.428v91.428zM36.572 265.143h82.285v-82.286h-82.285v82.286zM246.857 475.428h91.429v-82.286h-91.428v82.286zM137.143 265.143h91.429v-82.286h-91.428v82.286zM356.572 475.428h82.286v-82.286h-82.286v82.286zM246.857 374.857h91.429v-91.428h-91.428v91.428zM146.286 128v-82.285q0-3.715-2.714-6.428t-6.428-2.715h-18.285q-3.715 0-6.428 2.715t-2.715 6.428v82.285q0 3.714 2.715 6.428t6.428 2.714h18.285q3.714 0 6.428-2.714t2.714-6.428zM356.572 374.857h82.286v-91.428h-82.286v91.428zM246.857 265.143h91.429v-82.286h-91.428v82.286zM356.572 265.143h82.286v-82.286h-82.286v82.286zM365.714 128v-82.285q0-3.715-2.714-6.428t-6.428-2.715h-18.286q-3.714 0-6.428 2.715t-2.714 6.428v82.285q0 3.714 2.714 6.428t6.428 2.714h18.286q3.714 0 6.428-2.714t2.714-6.428zM475.428 109.715v365.714q0 14.857-10.857 25.714t-25.714 10.857h-402.286q-14.857 0-25.715-10.857t-10.857-25.714v-365.714q0-14.857 10.857-25.715t25.715-10.857h36.572v-27.428q0-18.857 13.428-32.285t32.285-13.428h18.285q18.857 0 32.285 13.428t13.428 32.285v27.428h109.714v-27.428q0-18.857 13.428-32.285t32.286-13.428h18.286q18.857 0 32.286 13.428t13.428 32.285v27.428h36.572q14.857 0 25.714 10.857t10.857 25.715z" fill="#000000" />
</svg>
