<?xml version="1.0" encoding="utf-8"?>
<!-- Generated by IcoMoon.io -->
<!DOCTYPE svg PUBLIC "-//W3C//DTD SVG 1.1//EN" "http://www.w3.org/Graphics/SVG/1.1/DTD/svg11.dtd">
<svg version="1.1" xmlns="http://www.w3.org/2000/svg" xmlns:xlink="http://www.w3.org/1999/xlink" width="476" height="512" viewBox="0 0 476 512">
<g>
</g>
	<path d="M36.572 475.428h402.286v-292.572h-402.286v292.572zM146.286 128v-82.285q0-4-2.571-6.572t-6.571-2.572h-18.285q-4 0-6.572 2.572t-2.572 6.572v82.285q0 4 2.572 6.572t6.572 2.571h18.285q4 0 6.572-2.571t2.571-6.572zM365.714 128v-82.285q0-4-2.572-6.572t-6.572-2.572h-18.286q-4 0-6.572 2.572t-2.572 6.572v82.285q0 4 2.572 6.572t6.572 2.571h18.286q4 0 6.572-2.571t2.572-6.572zM475.428 109.715v365.714q0 14.857-10.857 25.714t-25.714 10.857h-402.286q-14.857 0-25.715-10.857t-10.857-25.714v-365.714q0-14.857 10.857-25.715t25.715-10.857h36.572v-27.428q0-18.857 13.428-32.285t32.285-13.428h18.285q18.857 0 32.285 13.428t13.428 32.285v27.428h109.714v-27.428q0-18.857 13.428-32.285t32.286-13.428h18.286q18.857 0 32.286 13.428t13.428 32.285v27.428h36.572q14.857 0 25.714 10.857t10.857 25.715z" fill="#000000" />
</svg>
