<?xml version="1.0" encoding="utf-8"?>
<!-- Generated by IcoMoon.io -->
<!DOCTYPE svg PUBLIC "-//W3C//DTD SVG 1.1//EN" "http://www.w3.org/Graphics/SVG/1.1/DTD/svg11.dtd">
<svg version="1.1" xmlns="http://www.w3.org/2000/svg" xmlns:xlink="http://www.w3.org/1999/xlink" width="549" height="512" viewBox="0 0 549 512">
<g>
</g>
	<path d="M274.286 192q34 0 58.143 24.143t24.143 58.143-24.143 58.143-58.143 24.143-58.143-24.143-24.143-58.143 24.143-58.143 58.143-24.143zM475.428 73.143q30.286 0 51.715 21.428t21.428 51.715v256q0 30.286-21.428 51.714t-51.714 21.428h-402.286q-30.285 0-51.715-21.428t-21.428-51.714v-256q0-30.285 21.428-51.715t51.715-21.428h64l14.572-38.857q5.428-14 19.857-24.143t29.571-10.143h146.286q15.143 0 29.572 10.143t19.857 24.143l14.572 38.857h64zM274.286 402.286q52.857 0 90.428-37.572t37.572-90.428-37.572-90.428-90.428-37.572-90.428 37.572-37.572 90.428 37.572 90.428 90.428 37.572z" fill="#000000" />
</svg>
