<?xml version="1.0" encoding="utf-8"?>
<!-- Generated by IcoMoon.io -->
<!DOCTYPE svg PUBLIC "-//W3C//DTD SVG 1.1//EN" "http://www.w3.org/Graphics/SVG/1.1/DTD/svg11.dtd">
<svg version="1.1" xmlns="http://www.w3.org/2000/svg" xmlns:xlink="http://www.w3.org/1999/xlink" width="439" height="512" viewBox="0 0 439 512">
<g>
</g>
	<path d="M393.143 256l39.428 38.572q8.572 8 5.714 20-3.428 11.714-14.857 14.572l-53.714 13.714 15.143 53.143q3.428 11.714-5.428 20-8.286 8.857-20 5.428l-53.143-15.143-13.714 53.714q-2.857 11.428-14.572 14.857-3.428 0.572-5.428 0.572-8.857 0-14.572-6.286l-38.572-39.428-38.572 39.428q-8 8.572-20 5.714-11.714-3.143-14.572-14.857l-13.714-53.714-53.143 15.143q-11.715 3.428-20-5.428-8.857-8.286-5.428-20l15.143-53.143-53.715-13.714q-11.428-2.857-14.857-14.572-2.857-12 5.715-20l39.428-38.572-39.428-38.572q-8.572-8-5.715-20 3.429-11.714 14.857-14.572l53.715-13.714-15.143-53.143q-3.428-11.715 5.428-20 8.285-8.857 20-5.428l53.143 15.143 13.714-53.715q2.857-11.715 14.572-14.572 11.714-3.428 20 5.428l38.572 39.715 38.572-39.715q8.286-8.572 20-5.428 11.714 2.857 14.572 14.572l13.714 53.715 53.143-15.143q11.714-3.428 20 5.428 8.857 8.285 5.428 20l-15.143 53.143 53.714 13.714q11.428 2.857 14.857 14.572 2.857 12-5.714 20z" fill="#000000" />
</svg>
