<?xml version="1.0" encoding="utf-8"?>
<!-- Generated by IcoMoon.io -->
<!DOCTYPE svg PUBLIC "-//W3C//DTD SVG 1.1//EN" "http://www.w3.org/Graphics/SVG/1.1/DTD/svg11.dtd">
<svg version="1.1" xmlns="http://www.w3.org/2000/svg" xmlns:xlink="http://www.w3.org/1999/xlink" width="403" height="512" viewBox="0 0 403 512">
<g>
</g>
	<path d="M329.143 228.571v18.285q0 4-2.572 6.572t-6.572 2.571h-237.714q-4 0-6.572-2.571t-2.572-6.572v-18.286q0-4 2.572-6.572t6.572-2.571h237.714q4 0 6.572 2.571t2.572 6.572zM365.714 356.572v-237.714q0-18.857-13.428-32.285t-32.286-13.428h-237.714q-18.857 0-32.285 13.428t-13.428 32.285v237.714q0 18.857 13.428 32.286t32.285 13.428h237.714q18.857 0 32.286-13.428t13.428-32.286zM402.286 118.857v237.715q0 34-24.143 58.143t-58.143 24.143h-237.714q-34 0-58.143-24.143t-24.143-58.143v-237.714q0-34 24.143-58.143t58.143-24.143h237.714q34 0 58.143 24.143t24.143 58.143z" fill="#000000" />
</svg>
