<?xml version="1.0" encoding="utf-8"?>
<!-- Generated by IcoMoon.io -->
<!DOCTYPE svg PUBLIC "-//W3C//DTD SVG 1.1//EN" "http://www.w3.org/Graphics/SVG/1.1/DTD/svg11.dtd">
<svg version="1.1" xmlns="http://www.w3.org/2000/svg" xmlns:xlink="http://www.w3.org/1999/xlink" width="439" height="512" viewBox="0 0 439 512">
<g>
</g>
	<path d="M195.714 371.143l175.429-175.429q5.428-5.429 5.428-12.857t-5.428-12.857l-29.143-29.143q-5.428-5.428-12.857-5.428t-12.857 5.428l-133.429 133.428-60.285-60.286q-5.428-5.428-12.857-5.428t-12.857 5.428l-29.143 29.143q-5.428 5.429-5.428 12.857t5.428 12.857l102.285 102.286q5.428 5.428 12.857 5.428t12.857-5.428zM438.857 118.857v274.286q0 34-24.143 58.143t-58.143 24.143h-274.286q-34 0-58.143-24.143t-24.143-58.143v-274.286q0-34 24.143-58.143t58.143-24.143h274.286q34 0 58.143 24.143t24.143 58.143z" fill="#000000" />
</svg>
