<?xml version="1.0" encoding="utf-8"?>
<!-- Generated by IcoMoon.io -->
<!DOCTYPE svg PUBLIC "-//W3C//DTD SVG 1.1//EN" "http://www.w3.org/Graphics/SVG/1.1/DTD/svg11.dtd">
<svg version="1.1" xmlns="http://www.w3.org/2000/svg" xmlns:xlink="http://www.w3.org/1999/xlink" width="439" height="512" viewBox="0 0 439 512">
<g>
</g>
	<path d="M204.857 398.572l129.715-129.714q5.428-5.428 5.428-12.857t-5.428-12.857l-129.714-129.714q-5.428-5.428-12.857-5.428t-12.857 5.428l-29.143 29.143q-5.429 5.428-5.429 12.857t5.428 12.857l87.714 87.714-87.714 87.714q-5.428 5.428-5.428 12.857t5.428 12.857l29.143 29.143q5.429 5.428 12.857 5.428t12.857-5.428zM438.857 256q0 59.714-29.428 110.143t-79.857 79.857-110.143 29.428-110.143-29.428-79.857-79.857-29.428-110.143 29.428-110.143 79.857-79.857 110.143-29.428 110.143 29.428 79.857 79.857 29.428 110.143z" fill="#000000" />
</svg>
