<?xml version="1.0" encoding="utf-8"?>
<!-- Generated by IcoMoon.io -->
<!DOCTYPE svg PUBLIC "-//W3C//DTD SVG 1.1//EN" "http://www.w3.org/Graphics/SVG/1.1/DTD/svg11.dtd">
<svg version="1.1" xmlns="http://www.w3.org/2000/svg" xmlns:xlink="http://www.w3.org/1999/xlink" width="439" height="512" viewBox="0 0 439 512">
<g>
</g>
	<path d="M366.857 256.286q0-7.714-5.143-12.857l-26-26q-5.143-5.143-12.857-5.143t-12.857 5.143l-54 54v-143.429q0-7.428-5.428-12.857t-12.857-5.428h-36.571q-7.428 0-12.857 5.428t-5.429 12.857v143.429l-54-54q-5.428-5.428-12.857-5.428t-12.857 5.428l-26 26q-5.143 5.143-5.143 12.857t5.143 12.857l129.428 129.428q5.143 5.143 12.857 5.143t12.857-5.143l129.428-129.428q5.143-5.143 5.143-12.857zM438.857 256q0 59.714-29.428 110.143t-79.857 79.857-110.143 29.428-110.143-29.428-79.857-79.857-29.428-110.143 29.428-110.143 79.857-79.857 110.143-29.428 110.143 29.428 79.857 79.857 29.428 110.143z" fill="#000000" />
</svg>
