<?xml version="1.0" encoding="utf-8"?>
<!-- Generated by IcoMoon.io -->
<!DOCTYPE svg PUBLIC "-//W3C//DTD SVG 1.1//EN" "http://www.w3.org/Graphics/SVG/1.1/DTD/svg11.dtd">
<svg version="1.1" xmlns="http://www.w3.org/2000/svg" xmlns:xlink="http://www.w3.org/1999/xlink" width="549" height="512" viewBox="0 0 549 512">
<g>
</g>
	<path d="M176.286 399.714l-14.286 14.286q-2.857 2.857-6.572 2.857t-6.572-2.857l-133.143-133.143q-2.857-2.857-2.857-6.572t2.857-6.572l133.143-133.143q2.857-2.857 6.572-2.857t6.572 2.857l14.286 14.286q2.857 2.857 2.857 6.571t-2.857 6.572l-112.285 112.286 112.285 112.286q2.857 2.857 2.857 6.572t-2.857 6.572zM345.143 94.857l-106.572 368.857q-1.143 3.714-4.428 5.572t-6.714 0.714l-17.714-4.857q-3.714-1.143-5.572-4.428t-0.714-7l106.572-368.857q1.143-3.715 4.428-5.572t6.714-0.715l17.714 4.857q3.714 1.143 5.572 4.428t0.714 7zM532.857 280.857l-133.143 133.143q-2.857 2.857-6.572 2.857t-6.572-2.857l-14.286-14.286q-2.857-2.857-2.857-6.572t2.857-6.572l112.286-112.286-112.286-112.286q-2.857-2.857-2.857-6.572t2.857-6.572l14.286-14.286q2.857-2.857 6.572-2.857t6.572 2.857l133.143 133.143q2.857 2.857 2.857 6.572t-2.857 6.572z" fill="#000000" />
</svg>
