<?xml version="1.0" encoding="utf-8"?>
<!-- Generated by IcoMoon.io -->
<!DOCTYPE svg PUBLIC "-//W3C//DTD SVG 1.1//EN" "http://www.w3.org/Graphics/SVG/1.1/DTD/svg11.dtd">
<svg version="1.1" xmlns="http://www.w3.org/2000/svg" xmlns:xlink="http://www.w3.org/1999/xlink" width="293" height="512" viewBox="0 0 293 512">
<g>
</g>
	<path d="M82.285 420.572q0-11.428-8-19.428t-19.428-8-19.428 8-8 19.428 8 19.428 19.428 8 19.428-8 8-19.428zM82.285 91.428q0-11.428-8-19.428t-19.428-8-19.428 8-8 19.428 8 19.428 19.428 8 19.428-8 8-19.428zM265.143 128q0-11.428-8-19.428t-19.428-8-19.428 8-8 19.428 8 19.428 19.428 8 19.428-8 8-19.428zM292.572 128q0 14.857-7.428 27.572t-20 19.857q-0.572 82-64.572 118.285-19.428 10.857-58 23.143-36.572 11.428-48.428 20.286t-11.857 28.572v7.428q12.572 7.143 20 19.857t7.428 27.572q0 22.857-16 38.857t-38.857 16-38.857-16-16-38.857q0-14.857 7.428-27.572t20-19.857v-234.286q-12.572-7.143-20-19.857t-7.428-27.572q0-22.857 16-38.857t38.857-16 38.857 16 16 38.857q0 14.857-7.428 27.572t-20 19.857v142q15.428-7.428 44-16.286 15.715-4.857 25-8.428t20.143-8.857 16.857-11.286 11.572-14.571 8-19.857 2.429-26.143q-12.571-7.143-20-19.857t-7.429-27.571q0-22.857 16-38.857t38.857-16 38.857 16 16 38.857z" fill="#000000" />
</svg>
