<?xml version="1.0" encoding="utf-8"?>
<!-- Generated by IcoMoon.io -->
<!DOCTYPE svg PUBLIC "-//W3C//DTD SVG 1.1//EN" "http://www.w3.org/Graphics/SVG/1.1/DTD/svg11.dtd">
<svg version="1.1" xmlns="http://www.w3.org/2000/svg" xmlns:xlink="http://www.w3.org/1999/xlink" width="549" height="512" viewBox="0 0 549 512">
<g>
</g>
	<path d="M475.428 182.857q0-22.857-16-38.857t-38.857-16h-18.286v109.714h18.286q22.857 0 38.857-16t16-38.857zM0 402.286h512q0 30.286-21.428 51.714t-51.714 21.428h-365.714q-30.285 0-51.715-21.428t-21.428-51.714zM530.285 182.857q0 45.429-32.143 77.571t-77.572 32.143h-18.286v9.143q0 26.286-18.857 45.143t-45.143 18.857h-201.143q-26.285 0-45.143-18.857t-18.857-45.143v-210.286q0-7.428 5.428-12.857t12.857-5.428h329.143q45.428 0 77.572 32.143t32.143 77.572z" fill="#000000" />
</svg>
