<?xml version="1.0" encoding="utf-8"?>
<!-- Generated by IcoMoon.io -->
<!DOCTYPE svg PUBLIC "-//W3C//DTD SVG 1.1//EN" "http://www.w3.org/Graphics/SVG/1.1/DTD/svg11.dtd">
<svg version="1.1" xmlns="http://www.w3.org/2000/svg" xmlns:xlink="http://www.w3.org/1999/xlink" width="329" height="512" viewBox="0 0 329 512">
<g>
</g>
	<path d="M265.143 109.715q26.572 0 45.286 18.715t18.714 45.285v201.143q0 26.286-18.714 45.143t-45.286 18.857h-201.143q-26.572 0-45.285-18.857t-18.715-45.143v-201.143q0-26.571 18.715-45.285t45.285-18.715h201.143zM292.572 374.857v-201.143q0-11.429-8-19.429t-19.428-8h-201.143q-11.428 0-19.428 8t-8 19.428v201.143q0 11.428 8 19.428t19.428 8h201.143q11.428 0 19.428-8t8-19.428zM246.857 256q4 0 6.571 2.572t2.571 6.572v18.286q0 4-2.571 6.572t-6.572 2.572h-164.571q-4 0-6.572-2.572t-2.572-6.572v-18.286q0-4 2.572-6.572t6.572-2.572h164.571z" fill="#000000" />
</svg>
