<?xml version="1.0" encoding="utf-8"?>
<!-- Generated by IcoMoon.io -->
<!DOCTYPE svg PUBLIC "-//W3C//DTD SVG 1.1//EN" "http://www.w3.org/Graphics/SVG/1.1/DTD/svg11.dtd">
<svg version="1.1" xmlns="http://www.w3.org/2000/svg" xmlns:xlink="http://www.w3.org/1999/xlink" width="439" height="512" viewBox="0 0 439 512">
<g>
</g>
	<path d="M327.143 192.857q5.143 10-1.428 18.857l-91.428 128q-5.428 7.714-14.857 7.714t-14.857-7.714l-91.428-128q-6.572-8.857-1.428-18.857 4.857-10 16.285-10h182.857q11.428 0 16.286 10zM365.714 393.143v-274.286q0-3.715-2.714-6.428t-6.428-2.715h-274.286q-3.715 0-6.428 2.715t-2.715 6.428v274.286q0 3.714 2.715 6.428t6.428 2.714h274.286q3.714 0 6.428-2.714t2.714-6.428zM438.857 118.857v274.286q0 34-24.143 58.143t-58.143 24.143h-274.286q-34 0-58.143-24.143t-24.143-58.143v-274.286q0-34 24.143-58.143t58.143-24.143h274.286q34 0 58.143 24.143t24.143 58.143z" fill="#000000" />
</svg>
