<?xml version="1.0" encoding="utf-8"?>
<!-- Generated by IcoMoon.io -->
<!DOCTYPE svg PUBLIC "-//W3C//DTD SVG 1.1//EN" "http://www.w3.org/Graphics/SVG/1.1/DTD/svg11.dtd">
<svg version="1.1" xmlns="http://www.w3.org/2000/svg" xmlns:xlink="http://www.w3.org/1999/xlink" width="512" height="512" viewBox="0 0 512 512">
<g>
</g>
	<path d="M201.143 109.715q-43.715 0-81.715 14.857t-60.428 40.285-22.428 54.571q0 23.428 15.143 45.143t42.572 37.714l27.715 16-10 24q9.715-5.714 17.715-11.143l12.571-8.857 15.143 2.857q22.285 4 43.715 4 43.714 0 81.714-14.857t60.428-40.286 22.428-54.572-22.428-54.572-60.428-40.285-81.714-14.857zM201.143 73.143q54.571 0 101 19.572t73.286 53.285 26.857 73.428-26.857 73.428-73.286 53.286-101 19.572q-24.572 0-50.286-4.572-35.428 25.143-79.428 36.572-10.285 2.572-24.572 4.572h-0.857q-3.143 0-5.857-2.286t-3.285-6q-0.285-0.857-0.285-1.857t0.143-1.857 0.572-1.714l0.715-1.428t1-1.572 1.143-1.428 1.285-1.428 1.143-1.286q1.428-1.714 6.572-7.143t7.428-8.428 6.428-8.286 7.143-11 5.857-12.572q-35.428-20.572-55.715-50.572t-20.285-64q0-39.714 26.857-73.428t73.285-53.285 101-19.572zM436 407.143q2.857 6.857 5.857 12.572t7.143 11 6.428 8.286 7.428 8.428 6.572 7.143q0.286 0.286 1.143 1.286t1.286 1.428 1.143 1.428 1 1.572l0.714 1.428t0.572 1.714 0.143 1.857-0.286 1.857q-0.857 4-3.714 6.286t-6.286 2q-14.286-2-24.572-4.572-44-11.428-79.428-36.572-25.714 4.572-50.286 4.572-77.428 0-134.857-37.714 16.571 1.143 25.143 1.143 46 0 88.286-12.857t75.428-36.857q35.714-26.286 54.857-60.572t19.143-72.572q0-22-6.572-43.428 36.857 20.286 58.286 50.857t21.429 65.715q0 34.286-20.286 64.143t-55.714 50.428z" fill="#000000" />
</svg>
