<?xml version="1.0" encoding="utf-8"?>
<!-- Generated by IcoMoon.io -->
<!DOCTYPE svg PUBLIC "-//W3C//DTD SVG 1.1//EN" "http://www.w3.org/Graphics/SVG/1.1/DTD/svg11.dtd">
<svg version="1.1" xmlns="http://www.w3.org/2000/svg" xmlns:xlink="http://www.w3.org/1999/xlink" width="512" height="512" viewBox="0 0 512 512">
<g>
</g>
	<path d="M256 109.715q-58.286 0-109 19.857t-80.572 53.572-29.857 72.857q0 32 20.428 61t57.572 50.143l24.857 14.286-7.714 27.428q-6.857 26-20 49.143 43.428-18 78.572-48.857l12.286-10.857 16.286 1.714q19.714 2.286 37.143 2.286 58.285 0 109-19.857t80.572-53.572 29.857-72.857-29.857-72.857-80.572-53.571-109-19.857zM512 256q0 49.714-34.286 91.857t-93.143 66.572-128.572 24.428q-20 0-41.428-2.286-56.572 50-131.429 69.143-14 4-32.572 6.286h-1.428q-4.285 0-7.715-3t-4.572-7.857v-0.286q-0.857-1.143-0.143-3.428t0.572-2.857 1.285-2.714l1.715-2.572t2-2.428 2.285-2.572q2-2.286 8.857-9.857t9.857-10.857 8.857-11.286 9.285-14.572 7.715-16.857 7.428-21.714q-44.857-25.428-70.715-62.857t-25.857-80.286q0-49.714 34.285-91.857t93.143-66.572 128.571-24.428 128.571 24.428 93.143 66.572 34.286 91.857z" fill="#000000" />
</svg>
