<?xml version="1.0" encoding="utf-8"?>
<!-- Generated by IcoMoon.io -->
<!DOCTYPE svg PUBLIC "-//W3C//DTD SVG 1.1//EN" "http://www.w3.org/Graphics/SVG/1.1/DTD/svg11.dtd">
<svg version="1.1" xmlns="http://www.w3.org/2000/svg" xmlns:xlink="http://www.w3.org/1999/xlink" width="512" height="512" viewBox="0 0 512 512">
<g>
</g>
	<path d="M484.572 109.715q11.428 0 19.428 8t8 19.428v347.428q0 11.428-8 19.428t-19.428 8h-274.286q-11.428 0-19.428-8t-8-19.428v-82.286h-155.429q-11.428 0-19.428-8t-8-19.428v-192q0-11.428 5.715-25.143t13.714-21.715l116.572-116.572q8-8 21.715-13.714t25.143-5.715h118.857q11.428 0 19.428 8t8 19.428v93.715q19.428-11.428 36.572-11.428h118.857zM329.143 170.571l-85.428 85.429h85.428v-85.428zM146.286 60.857l-85.428 85.429h85.428v-85.428zM202.286 245.714l90.286-90.286v-118.857h-109.714v118.857q0 11.428-8 19.428t-19.428 8h-118.857v182.857h146.286v-73.143q0-11.428 5.714-25.143t13.714-21.714zM475.428 475.428v-329.143h-109.714v118.857q0 11.428-8 19.428t-19.428 8h-118.857v182.857h256z" fill="#000000" />
</svg>
