<?xml version="1.0" encoding="utf-8"?>
<!-- Generated by IcoMoon.io -->
<!DOCTYPE svg PUBLIC "-//W3C//DTD SVG 1.1//EN" "http://www.w3.org/Graphics/SVG/1.1/DTD/svg11.dtd">
<svg version="1.1" xmlns="http://www.w3.org/2000/svg" xmlns:xlink="http://www.w3.org/1999/xlink" width="476" height="512" viewBox="0 0 476 512">
<g>
</g>
	<path d="M159.143 365.714h170v-170zM146.286 352.857l170-170h-170v170zM475.428 374.857v54.857q0 4-2.572 6.572t-6.572 2.572h-64v64q0 4-2.572 6.572t-6.572 2.572h-54.857q-4 0-6.572-2.572t-2.572-6.572v-64h-246.857q-4 0-6.572-2.572t-2.572-6.572v-246.857h-64q-4 0-6.572-2.571t-2.571-6.572v-54.857q0-4 2.571-6.572t6.572-2.572h64v-64q0-4 2.572-6.572t6.572-2.572h54.857q4 0 6.572 2.572t2.571 6.572v64h243.143l70.286-70.572q2.857-2.572 6.572-2.572t6.572 2.572q2.572 2.857 2.572 6.572t-2.572 6.572l-70.572 70.285v243.143h64q4 0 6.572 2.572t2.572 6.572z" fill="#000000" />
</svg>
