<?xml version="1.0" encoding="utf-8"?>
<!-- Generated by IcoMoon.io -->
<!DOCTYPE svg PUBLIC "-//W3C//DTD SVG 1.1//EN" "http://www.w3.org/Graphics/SVG/1.1/DTD/svg11.dtd">
<svg version="1.1" xmlns="http://www.w3.org/2000/svg" xmlns:xlink="http://www.w3.org/1999/xlink" width="512" height="512" viewBox="0 0 512 512">
<g>
</g>
	<path d="M274.286 256q7.428 0 12.857 5.428t5.428 12.857-5.428 12.857-12.857 5.428-12.857-5.428-5.428-12.857 5.428-12.857 12.857-5.428zM360 274.286l144.857 113.714q8 5.714 7.143 16-1.428 10-10 14.572l-36.572 18.286q-3.714 2-8.286 2-4.857 0-8.857-2.286l-197.143-110.572-31.429 18.857q-2.286 1.143-3.429 1.428 4 14 2.857 27.714-2 22-16 42.143t-37.714 35.286q-37.715 24-79.143 24-38.857 0-63.428-22.286-25.715-24-22.572-59.143 2-21.714 16-42t37.428-35.428q37.715-24 79.428-24 23.714 0 43.143 8.857 2.571-3.714 6.286-6.286l34.857-20.857-34.857-20.857q-3.714-2.571-6.286-6.286-19.429 8.857-43.143 8.857-41.715 0-79.428-24-23.428-15.143-37.428-35.428t-16-42q-1.429-16.857 4.428-32.285t18.143-26.572q24.285-22.572 63.428-22.572 41.428 0 79.143 24 23.714 14.857 37.714 35.143t16 42.286q1.143 13.714-2.857 27.714 1.143 0.286 3.429 1.429l31.428 18.857 197.143-110.572q4-2.285 8.857-2.285 4.572 0 8.286 2l36.572 18.285q8.572 4.572 10 14.572 0.857 10.286-7.143 16zM165.429 200q13.143-12 6-30.857t-30.285-33.429q-26.285-16.857-54.857-16.857-21.143 0-32.285 10.286-13.143 12-6 30.857t30.285 33.428q26.285 16.857 54.857 16.857 21.143 0 32.286-10.286zM141.143 412.857q23.143-14.572 30.285-33.428t-6-30.857q-11.143-10.286-32.286-10.286-28.572 0-54.857 16.857-23.143 14.572-30.285 33.428t6 30.857q11.143 10.286 32.285 10.286 28.572 0 54.857-16.857zM192 237.714l27.428 16.572v-3.143q0-10.286 9.428-16l4-2.286-22.572-13.429-7.428 7.428q-0.857 0.857-2.857 3.143t-3.429 3.429q-0.571 0.571-1.143 1t-0.857 0.714zM256 301.714l27.428 9.143 210.286-164.571-36.572-18.285-219.429 123.143v32.285l-45.715 27.428 2.571 2.286q0.571 0.572 2 1.714 1.143 1.143 3.143 3.428t3.143 3.428l7.429 7.428zM457.143 420.572l36.572-18.286-148.571-116.572-50.572 39.428q-0.572 0.857-3.714 2z" fill="#000000" />
</svg>
