<?xml version="1.0" encoding="utf-8"?>
<!-- Generated by IcoMoon.io -->
<!DOCTYPE svg PUBLIC "-//W3C//DTD SVG 1.1//EN" "http://www.w3.org/Graphics/SVG/1.1/DTD/svg11.dtd">
<svg version="1.1" xmlns="http://www.w3.org/2000/svg" xmlns:xlink="http://www.w3.org/1999/xlink" width="549" height="512" viewBox="0 0 549 512">
<g>
</g>
	<path d="M512 283.428v-237.714q0-3.715-2.714-6.428t-6.428-2.715h-457.143q-3.715 0-6.428 2.715t-2.715 6.428v237.714q0 3.714 2.715 6.428t6.428 2.714h457.143q3.714 0 6.428-2.714t2.714-6.428zM548.572 45.715v310.857q0 18.857-13.428 32.286t-32.286 13.428h-155.429q0 10.572 4.572 22.143t9.143 20.286 4.572 12.428q0 7.428-5.428 12.857t-12.857 5.428h-146.286q-7.428 0-12.857-5.428t-5.429-12.857q0-4 4.572-12.572t9.143-20 4.571-22.286h-155.429q-18.857 0-32.285-13.428t-13.428-32.286v-310.857q0-18.857 13.428-32.285t32.285-13.428h457.143q18.857 0 32.285 13.428t13.428 32.285z" fill="#000000" />
</svg>
