<?xml version="1.0" encoding="utf-8"?>
<!-- Generated by IcoMoon.io -->
<!DOCTYPE svg PUBLIC "-//W3C//DTD SVG 1.1//EN" "http://www.w3.org/Graphics/SVG/1.1/DTD/svg11.dtd">
<svg version="1.1" xmlns="http://www.w3.org/2000/svg" xmlns:xlink="http://www.w3.org/1999/xlink" width="293" height="512" viewBox="0 0 293 512">
<g>
</g>
	<path d="M179.143 393.143q0 3.714-2.857 6.572l-14.286 14.286q-2.857 2.857-6.572 2.857t-6.572-2.857l-133.143-133.143q-2.857-2.857-2.857-6.572t2.857-6.572l133.143-133.143q2.857-2.857 6.572-2.857t6.572 2.857l14.286 14.286q2.857 2.857 2.857 6.571t-2.857 6.572l-112.285 112.286 112.285 112.286q2.857 2.857 2.857 6.572zM288.857 393.143q0 3.714-2.857 6.572l-14.286 14.286q-2.857 2.857-6.572 2.857t-6.572-2.857l-133.143-133.143q-2.857-2.857-2.857-6.572t2.857-6.572l133.143-133.143q2.857-2.857 6.572-2.857t6.572 2.857l14.286 14.286q2.857 2.857 2.857 6.571t-2.857 6.572l-112.286 112.286 112.286 112.286q2.857 2.857 2.857 6.572z" fill="#000000" />
</svg>
