<?xml version="1.0" encoding="utf-8"?>
<!-- Generated by IcoMoon.io -->
<!DOCTYPE svg PUBLIC "-//W3C//DTD SVG 1.1//EN" "http://www.w3.org/Graphics/SVG/1.1/DTD/svg11.dtd">
<svg version="1.1" xmlns="http://www.w3.org/2000/svg" xmlns:xlink="http://www.w3.org/1999/xlink" width="439" height="512" viewBox="0 0 439 512">
<g>
</g>
	<path d="M320 265.143q0 3.428-2.857 6.857l-91.143 91.143q-3.143 2.572-6.571 2.572t-6.572-2.572l-91.428-91.428q-4.285-4.572-2-10 2.285-5.714 8.572-5.714h54.857v-100.572q0-4 2.571-6.572t6.571-2.571h54.857q4 0 6.571 2.571t2.571 6.572v100.572h54.857q4 0 6.572 2.572t2.572 6.572zM219.429 100.572q-42.285 0-78 20.857t-56.572 56.572-20.857 78 20.857 78 56.572 56.572 78 20.857 78-20.857 56.572-56.572 20.857-78-20.857-78-56.572-56.572-78-20.857zM438.857 256q0 59.714-29.428 110.143t-79.857 79.857-110.143 29.428-110.143-29.428-79.857-79.857-29.428-110.143 29.428-110.143 79.857-79.857 110.143-29.428 110.143 29.428 79.857 79.857 29.428 110.143z" fill="#000000" />
</svg>
