<?xml version="1.0" encoding="utf-8"?>
<!-- Generated by IcoMoon.io -->
<!DOCTYPE svg PUBLIC "-//W3C//DTD SVG 1.1//EN" "http://www.w3.org/Graphics/SVG/1.1/DTD/svg11.dtd">
<svg version="1.1" xmlns="http://www.w3.org/2000/svg" xmlns:xlink="http://www.w3.org/1999/xlink" width="476" height="512" viewBox="0 0 476 512">
<g>
</g>
	<path d="M365.714 384q0-7.428-5.428-12.857t-12.857-5.428-12.857 5.428-5.428 12.857 5.428 12.857 12.857 5.428 12.857-5.428 5.428-12.857zM438.857 384q0-7.428-5.428-12.857t-12.857-5.428-12.857 5.428-5.428 12.857 5.428 12.857 12.857 5.428 12.857-5.428 5.428-12.857zM475.428 320v91.428q0 11.428-8 19.428t-19.428 8h-420.572q-11.428 0-19.428-8t-8-19.428v-91.428q0-11.428 8-19.428t19.428-8h132.857l38.571 38.857q16.572 16 38.857 16t38.857-16l38.857-38.857h132.572q11.428 0 19.428 8t8 19.428zM382.572 157.429q4.857 11.714-4 20l-128 128q-5.143 5.428-12.857 5.428t-12.857-5.428l-128-128q-8.857-8.286-4-20 4.857-11.143 16.857-11.143h73.143v-128q0-7.428 5.428-12.857t12.857-5.428h73.143q7.428 0 12.857 5.428t5.428 12.857v128h73.143q12 0 16.857 11.143z" fill="#000000" />
</svg>
