<?xml version="1.0" encoding="utf-8"?>
<!-- Generated by IcoMoon.io -->
<!DOCTYPE svg PUBLIC "-//W3C//DTD SVG 1.1//EN" "http://www.w3.org/Graphics/SVG/1.1/DTD/svg11.dtd">
<svg version="1.1" xmlns="http://www.w3.org/2000/svg" xmlns:xlink="http://www.w3.org/1999/xlink" width="439" height="512" viewBox="0 0 439 512">
<g>
</g>
	<path d="M292.572 428.572q-12-68.857-40-142.286h-0.571l-0.571 0.286q-4.572 1.714-12.286 4.714t-28.857 14-39.143 23.428-37.428 32.714-29.428 42.286l-4.285-3.143q52.572 42.857 119.428 42.857 37.714 0 73.143-14.857zM239.714 255.143q-6-14-15.143-31.715-88.857 26.572-192.286 26.572-0.285 2-0.285 6 0 35.428 12.572 67.572t35.428 57.572q14.285-25.428 35.285-47.572t40.715-35.572 37.286-23.143 28.428-13.714l10.572-3.714q1.143-0.286 3.714-1t3.714-1.286zM209.143 194.571q-34.285-60.857-69.715-108-39.428 18.572-66.857 53.143t-36.572 77.714q86.285 0 173.143-22.857zM404.572 285.714q-60-17.143-116.857-8.286 24.857 68.286 36.572 134 31.714-21.428 52.857-54.143t27.428-71.572zM174.571 74q-0.286 0-0.571 0.285 0.286-0.285 0.571-0.285zM343.143 115.428q-52.857-46.857-123.714-46.857-21.714 0-44.286 5.428 37.428 48.572 70.286 109.143 19.714-7.429 37.143-17.285t27.572-17.572 18.714-16.286 10.714-11.572zM406.857 254q-0.857-66.286-42.572-117.143l-0.286 0.286q-2.572 3.429-5.428 7t-12.428 12.714-20.286 17.285-28.572 18.572-37.572 18.428q7.143 15.143 12.572 27.143 0.572 1.714 1.857 5t2.143 4.714q10.286-1.429 21.286-2t21-0.571 19.714 0.429 18.286 1.143 16.143 1.571 13.714 1.857 10.428 1.714 7.143 1.286zM438.857 256q0 59.714-29.428 110.143t-79.857 79.857-110.143 29.428-110.143-29.428-79.857-79.857-29.428-110.143 29.428-110.143 79.857-79.857 110.143-29.428 110.143 29.428 79.857 79.857 29.428 110.143z" fill="#000000" />
</svg>
