<?xml version="1.0" encoding="utf-8"?>
<!-- Generated by IcoMoon.io -->
<!DOCTYPE svg PUBLIC "-//W3C//DTD SVG 1.1//EN" "http://www.w3.org/Graphics/SVG/1.1/DTD/svg11.dtd">
<svg version="1.1" xmlns="http://www.w3.org/2000/svg" xmlns:xlink="http://www.w3.org/1999/xlink" width="512" height="512" viewBox="0 0 512 512">
<g>
</g>
	<path d="M114.857 202l141.143 87.143-97.714 81.428-140-91.143zM396.572 360.572v30.857l-140 83.714v0.286l-0.286-0.286-0.286 0.286v-0.286l-139.714-83.714v-30.857l42 27.428 97.714-81.143v-0.572l0.286 0.286 0.286-0.286v0.572l98 81.143zM158.286 33.715l97.714 81.428-141.143 86.857-96.572-77.143zM397.143 202l96.572 77.428-139.714 91.143-98-81.428zM354 33.715l139.714 91.143-96.572 77.143-141.143-86.857z" fill="#000000" />
</svg>
