<?xml version="1.0" encoding="utf-8"?>
<!-- Generated by IcoMoon.io -->
<!DOCTYPE svg PUBLIC "-//W3C//DTD SVG 1.1//EN" "http://www.w3.org/Graphics/SVG/1.1/DTD/svg11.dtd">
<svg version="1.1" xmlns="http://www.w3.org/2000/svg" xmlns:xlink="http://www.w3.org/1999/xlink" width="512" height="512" viewBox="0 0 512 512">
<g>
</g>
	<path d="M253.714 338.286l33.143-33.143-43.428-43.428-33.143 33.143v16h27.429v27.428h16zM379.428 132.571q-4.572-4.572-9.428 0.286l-100 100q-4.857 4.857-0.286 9.429t9.428-0.286l100-100q4.857-4.857 0.286-9.428zM402.286 302.286v54.286q0 34-24.143 58.143t-58.143 24.143h-237.714q-34 0-58.143-24.143t-24.143-58.143v-237.714q0-34 24.143-58.143t58.143-24.143h237.714q18 0 33.428 7.143 4.286 2 5.143 6.572 0.857 4.857-2.572 8.285l-14 14q-4 4-9.143 2.285-6.572-1.715-12.857-1.715h-237.714q-18.857 0-32.285 13.428t-13.428 32.285v237.715q0 18.857 13.428 32.286t32.285 13.428h237.714q18.857 0 32.286-13.428t13.428-32.286v-36q0-3.714 2.572-6.286l18.286-18.286q4.286-4.286 10-2t5.714 8.286zM374.857 91.428l82.286 82.285-192 192h-82.286v-82.286zM501.714 129.143l-26.286 26.285-82.286-82.285 26.286-26.285q8-8 19.428-8t19.428 8l43.428 43.428q8 8 8 19.428t-8 19.428z" fill="#000000" />
</svg>
