<?xml version="1.0" encoding="utf-8"?>
<!-- Generated by IcoMoon.io -->
<!DOCTYPE svg PUBLIC "-//W3C//DTD SVG 1.1//EN" "http://www.w3.org/Graphics/SVG/1.1/DTD/svg11.dtd">
<svg version="1.1" xmlns="http://www.w3.org/2000/svg" xmlns:xlink="http://www.w3.org/1999/xlink" width="439" height="512" viewBox="0 0 439 512">
<g>
</g>
	<path d="M115.428 316.572l43.428 43.428-14.857 14.857h-16v-27.428h-27.428v-16zM233.714 205.143q4 3.714-0.857 8.571l-83.143 83.143q-4.857 4.857-8.572 0.857-4-3.714 0.857-8.572l83.143-83.143q4.857-4.857 8.572-0.857zM155.429 402.286l155.429-155.429-82.286-82.285-155.429 155.428v82.286h82.285zM329.143 228.571l26.286-26.285q8-8 8-19.428t-8-19.428l-43.428-43.428q-8-8-19.428-8t-19.428 8l-26.286 26.285zM438.857 118.857v274.286q0 34-24.143 58.143t-58.143 24.143h-274.286q-34 0-58.143-24.143t-24.143-58.143v-274.286q0-34 24.143-58.143t58.143-24.143h274.286q34 0 58.143 24.143t24.143 58.143z" fill="#000000" />
</svg>
