<?xml version="1.0" encoding="utf-8"?>
<!-- Generated by IcoMoon.io -->
<!DOCTYPE svg PUBLIC "-//W3C//DTD SVG 1.1//EN" "http://www.w3.org/Graphics/SVG/1.1/DTD/svg11.dtd">
<svg version="1.1" xmlns="http://www.w3.org/2000/svg" xmlns:xlink="http://www.w3.org/1999/xlink" width="110" height="512" viewBox="0 0 110 512">
<g>
</g>
	<path d="M109.715 356.572v54.857q0 11.428-8 19.428t-19.428 8h-54.857q-11.428 0-19.428-8t-8-19.428v-54.857q0-11.428 8-19.428t19.428-8h54.857q11.428 0 19.428 8t8 19.428zM109.715 210.286v54.857q0 11.428-8 19.428t-19.428 8h-54.857q-11.428 0-19.428-8t-8-19.428v-54.857q0-11.429 8-19.429t19.428-8h54.857q11.428 0 19.428 8t8 19.428zM109.715 64v54.857q0 11.429-8 19.429t-19.428 8h-54.857q-11.428 0-19.428-8t-8-19.428v-54.857q0-11.428 8-19.428t19.428-8h54.857q11.428 0 19.428 8t8 19.428z" fill="#000000" />
</svg>
