<?xml version="1.0" encoding="utf-8"?>
<!-- Generated by IcoMoon.io -->
<!DOCTYPE svg PUBLIC "-//W3C//DTD SVG 1.1//EN" "http://www.w3.org/Graphics/SVG/1.1/DTD/svg11.dtd">
<svg version="1.1" xmlns="http://www.w3.org/2000/svg" xmlns:xlink="http://www.w3.org/1999/xlink" width="512" height="512" viewBox="0 0 512 512">
<g>
</g>
	<path d="M512 202.857v226.857q0 18.857-13.428 32.286t-32.286 13.428h-420.572q-18.857 0-32.285-13.428t-13.428-32.286v-226.857q12.572 14 28.857 24.857 103.429 70.286 142 98.572 16.285 12 26.429 18.714t27 13.714 31.428 7h0.572q14.572 0 31.428-7t27-13.714 26.428-18.714q48.572-35.143 142.286-98.572 16.286-11.143 28.572-24.857zM512 118.857q0 22.571-14 43.143t-34.857 35.143q-107.428 74.571-133.714 92.857-2.857 2-12.143 8.714t-15.428 10.857-14.857 9.286-16.428 7.714-14.286 2.572h-0.571q-6.571 0-14.286-2.572t-16.429-7.714-14.857-9.286-15.429-10.857-12.143-8.714q-26-18.286-74.857-52.143t-58.572-40.715q-17.715-12-33.428-33t-15.714-39q0-22.285 11.857-37.143t33.857-14.857h420.572q18.572 0 32.143 13.428t13.572 32.285z" fill="#000000" />
</svg>
