<?xml version="1.0" encoding="utf-8"?>
<!-- Generated by IcoMoon.io -->
<!DOCTYPE svg PUBLIC "-//W3C//DTD SVG 1.1//EN" "http://www.w3.org/Graphics/SVG/1.1/DTD/svg11.dtd">
<svg version="1.1" xmlns="http://www.w3.org/2000/svg" xmlns:xlink="http://www.w3.org/1999/xlink" width="293" height="512" viewBox="0 0 293 512">
<g>
</g>
	<path d="M278.857 373.428l10 45.428q0.857 3.428-0.857 6.428t-4.857 4.143l-1.428 0.286q-1.143 0.572-3 1t-4.572 1.286-6.143 1.572-7.286 1.428-8.572 1.428-9.572 1.286-10.428 0.857-11 0.286q-66.857 0-116.857-37.286t-68-100.428h-27.143q-3.715 0-6.428-2.714t-2.715-6.428v-32.286q0-3.714 2.715-6.428t6.428-2.714h18.857q-0.572-16.286 0.285-30h-19.143q-4 0-6.572-2.571t-2.571-6.571v-32.572q0-4 2.571-6.572t6.572-2.571h28q19.143-60 69.572-96.572t114.429-36.572q29.143 0 55.428 6.572 3.143 0.857 5.714 4.285 1.714 3.143 0.857 6.857l-12.286 45.428q-0.857 3.715-4 5.572t-6.857 0.715l-1.143-0.285q-1.143-0.285-3.286-0.715l-5-1t-6.428-1-7.428-0.857-8.286-0.715-8.428-0.285q-36 0-64.572 18.285t-42.857 50.285h133.714q4.571 0 7.143 3.429 2.857 3.429 2 7.429l-6.857 32.572q-1.429 7.428-9.143 7.428h-139.429q-0.857 10.572 0 30h131.143q4.286 0 7.143 3.429 2.571 3.429 1.714 7.715l-6.857 32q-0.571 3.143-3.143 5.286t-5.714 2.143h-110.572q13.715 33.428 42.715 53t65.286 19.572q5.143 0 10.286-0.428t9.572-1 8.428-1.286 7-1.428 5.286-1.286l3.428-0.857 1.428-0.572q3.714-1.428 7.428 0.572 3.428 2 4.286 6z" fill="#000000" />
</svg>
