<?xml version="1.0" encoding="utf-8"?>
<!-- Generated by IcoMoon.io -->
<!DOCTYPE svg PUBLIC "-//W3C//DTD SVG 1.1//EN" "http://www.w3.org/Graphics/SVG/1.1/DTD/svg11.dtd">
<svg version="1.1" xmlns="http://www.w3.org/2000/svg" xmlns:xlink="http://www.w3.org/1999/xlink" width="512" height="512" viewBox="0 0 512 512">
<g>
</g>
	<path d="M512 338.286v54.857q0 3.714-2.714 6.428t-6.428 2.714h-393.143v54.857q0 3.714-2.715 6.428t-6.428 2.714q-3.428 0-6.857-2.857l-91.143-91.428q-2.571-2.572-2.571-6.286 0-4 2.571-6.572l91.428-91.428q2.572-2.572 6.572-2.572 3.715 0 6.428 2.714t2.715 6.428v54.857h393.143q3.714 0 6.428 2.714t2.714 6.428zM512 182.857q0 4-2.572 6.571l-91.428 91.428q-2.572 2.572-6.572 2.572-3.714 0-6.428-2.714t-2.714-6.428v-54.857h-393.143q-3.715 0-6.428-2.714t-2.715-6.429v-54.857q0-3.714 2.715-6.429t6.428-2.714h393.143v-54.857q0-4 2.572-6.572t6.572-2.572q3.428 0 6.857 2.857l91.143 91.143q2.572 2.571 2.572 6.572z" fill="#000000" />
</svg>
