<?xml version="1.0" encoding="utf-8"?>
<!-- Generated by IcoMoon.io -->
<!DOCTYPE svg PUBLIC "-//W3C//DTD SVG 1.1//EN" "http://www.w3.org/Graphics/SVG/1.1/DTD/svg11.dtd">
<svg version="1.1" xmlns="http://www.w3.org/2000/svg" xmlns:xlink="http://www.w3.org/1999/xlink" width="183" height="512" viewBox="0 0 183 512">
<g>
</g>
	<path d="M146.286 356.572v64q0 7.428-5.428 12.857t-12.857 5.428h-73.143q-7.428 0-12.857-5.428t-5.428-12.857v-64q0-7.428 5.428-12.857t12.857-5.428h73.143q7.429 0 12.857 5.428t5.428 12.857zM154.857 54.857l-8 219.429q-0.286 7.428-5.857 12.857t-13 5.428h-73.143q-7.428 0-13-5.428t-5.857-12.857l-8-219.429q-0.285-7.428 5-12.857t12.715-5.428h91.428q7.429 0 12.714 5.428t5 12.857z" fill="#000000" />
</svg>
