<?xml version="1.0" encoding="utf-8"?>
<!-- Generated by IcoMoon.io -->
<!DOCTYPE svg PUBLIC "-//W3C//DTD SVG 1.1//EN" "http://www.w3.org/Graphics/SVG/1.1/DTD/svg11.dtd">
<svg version="1.1" xmlns="http://www.w3.org/2000/svg" xmlns:xlink="http://www.w3.org/1999/xlink" width="439" height="512" viewBox="0 0 439 512">
<g>
</g>
	<path d="M219.429 36.572q59.715 0 110.143 29.428t79.857 79.857 29.428 110.143-29.428 110.143-79.857 79.857-110.143 29.428-110.143-29.428-79.857-79.857-29.428-110.143 29.428-110.143 79.857-79.857 110.143-29.428zM256 392.857v-54.286q0-4-2.571-6.714t-6.286-2.714h-54.857q-3.714 0-6.572 2.857t-2.857 6.572v54.286q0 3.714 2.857 6.572t6.572 2.857h54.857q3.714 0 6.286-2.714t2.571-6.714zM255.429 294.572l5.143-177.429q0-3.428-2.857-5.143-2.857-2.285-6.857-2.285h-62.857q-4 0-6.857 2.285-2.857 1.715-2.857 5.143l4.857 177.429q0 2.857 2.857 5t6.857 2.143h52.857q4 0 6.714-2.143t3-5z" fill="#000000" />
</svg>
