<?xml version="1.0" encoding="utf-8"?>
<!-- Generated by IcoMoon.io -->
<!DOCTYPE svg PUBLIC "-//W3C//DTD SVG 1.1//EN" "http://www.w3.org/Graphics/SVG/1.1/DTD/svg11.dtd">
<svg version="1.1" xmlns="http://www.w3.org/2000/svg" xmlns:xlink="http://www.w3.org/1999/xlink" width="439" height="512" viewBox="0 0 439 512">
<g>
</g>
	<path d="M310.857 256q0 9.428-7.714 14.857l-128 91.428q-8.857 6.572-18.857 1.428-10-4.857-10-16.286v-182.857q0-11.429 10-16.285 10-5.143 18.857 1.429l128 91.429q7.714 5.428 7.714 14.857zM365.714 393.143v-274.286q0-4-2.572-6.572t-6.572-2.572h-274.286q-4 0-6.572 2.572t-2.572 6.572v274.286q0 4 2.572 6.572t6.572 2.572h274.286q4 0 6.572-2.572t2.572-6.572zM438.857 118.857v274.286q0 34-24.143 58.143t-58.143 24.143h-274.286q-34 0-58.143-24.143t-24.143-58.143v-274.286q0-34 24.143-58.143t58.143-24.143h274.286q34 0 58.143 24.143t24.143 58.143z" fill="#000000" />
</svg>
