<?xml version="1.0" encoding="utf-8"?>
<!-- Generated by IcoMoon.io -->
<!DOCTYPE svg PUBLIC "-//W3C//DTD SVG 1.1//EN" "http://www.w3.org/Graphics/SVG/1.1/DTD/svg11.dtd">
<svg version="1.1" xmlns="http://www.w3.org/2000/svg" xmlns:xlink="http://www.w3.org/1999/xlink" width="439" height="512" viewBox="0 0 439 512">
<g>
</g>
	<path d="M365.714 265.143v-137.143q0-7.428-5.428-12.857t-12.857-5.428h-137.143q-12 0-16.857 11.143-4.857 11.715 4 20l41.143 41.143-152.571 152.571q-5.428 5.428-5.428 12.857t5.428 12.857l29.143 29.143q5.428 5.428 12.857 5.428t12.857-5.428l152.571-152.571 41.143 41.143q5.143 5.428 12.857 5.428 3.428 0 7.143-1.428 11.143-4.857 11.143-16.857zM438.857 118.857v274.286q0 34-24.143 58.143t-58.143 24.143h-274.286q-34 0-58.143-24.143t-24.143-58.143v-274.286q0-34 24.143-58.143t58.143-24.143h274.286q34 0 58.143 24.143t24.143 58.143z" fill="#000000" />
</svg>
