<?xml version="1.0" encoding="utf-8"?>
<!-- Generated by IcoMoon.io -->
<!DOCTYPE svg PUBLIC "-//W3C//DTD SVG 1.1//EN" "http://www.w3.org/Graphics/SVG/1.1/DTD/svg11.dtd">
<svg version="1.1" xmlns="http://www.w3.org/2000/svg" xmlns:xlink="http://www.w3.org/1999/xlink" width="512" height="512" viewBox="0 0 512 512">
<g>
</g>
	<path d="M402.286 265.143v91.428q0 34-24.143 58.143t-58.143 24.143h-237.714q-34 0-58.143-24.143t-24.143-58.143v-237.714q0-34 24.143-58.143t58.143-24.143h201.143q4 0 6.572 2.572t2.572 6.572v18.285q0 4-2.572 6.572t-6.572 2.572h-201.143q-18.857 0-32.285 13.428t-13.428 32.285v237.714q0 18.857 13.428 32.286t32.285 13.428h237.715q18.857 0 32.286-13.428t13.428-32.286v-91.428q0-4 2.572-6.572t6.572-2.571h18.286q4 0 6.572 2.571t2.572 6.572zM512 18.285v146.286q0 7.428-5.428 12.857t-12.857 5.429-12.857-5.428l-50.286-50.285-186.286 186.286q-2.857 2.857-6.572 2.857t-6.572-2.857l-32.572-32.572q-2.857-2.857-2.857-6.572t2.857-6.572l186.286-186.286-50.286-50.285q-5.428-5.428-5.428-12.857t5.428-12.857 12.857-5.428h146.286q7.428 0 12.857 5.428t5.428 12.857z" fill="#000000" />
</svg>
