<?xml version="1.0" encoding="utf-8"?>
<!-- Generated by IcoMoon.io -->
<!DOCTYPE svg PUBLIC "-//W3C//DTD SVG 1.1//EN" "http://www.w3.org/Graphics/SVG/1.1/DTD/svg11.dtd">
<svg version="1.1" xmlns="http://www.w3.org/2000/svg" xmlns:xlink="http://www.w3.org/1999/xlink" width="512" height="512" viewBox="0 0 512 512">
<g>
</g>
	<path d="M475.428 274.286q-43.428-67.428-108.857-100.857 17.428 29.715 17.428 64.285 0 52.857-37.572 90.428t-90.428 37.572-90.428-37.572-37.572-90.428q0-34.572 17.428-64.286-65.428 33.428-108.857 100.857 38 58.572 95.285 93.286t124.143 34.714 124.143-34.714 95.286-93.286zM269.714 164.571q0-5.714-4-9.714t-9.714-4q-35.714 0-61.286 25.571t-25.572 61.286q0 5.714 4 9.714t9.714 4 9.714-4 4-9.714q0-24.572 17.428-42t42-17.428q5.714 0 9.714-4t4-9.714zM512 274.286q0 9.714-5.714 19.714-40 65.714-107.572 105.286t-142.714 39.572-142.714-39.714-107.572-105.143q-5.715-10-5.715-19.714t5.715-19.714q40-65.428 107.572-105.143t142.714-39.715 142.714 39.715 107.572 105.143q5.714 10 5.714 19.714z" fill="#000000" />
</svg>
