<?xml version="1.0" encoding="utf-8"?>
<!-- Generated by IcoMoon.io -->
<!DOCTYPE svg PUBLIC "-//W3C//DTD SVG 1.1//EN" "http://www.w3.org/Graphics/SVG/1.1/DTD/svg11.dtd">
<svg version="1.1" xmlns="http://www.w3.org/2000/svg" xmlns:xlink="http://www.w3.org/1999/xlink" width="512" height="512" viewBox="0 0 512 512">
<g>
</g>
	<path d="M158.571 381.428l22.285-40.286q-24.857-18-38.857-45.428t-14-58q0-34.572 17.429-64.286-65.428 33.428-108.857 100.857 47.715 73.714 122 107.143zM269.714 164.571q0-5.714-4-9.714t-9.714-4q-35.714 0-61.286 25.571t-25.572 61.286q0 5.714 4 9.714t9.714 4 9.714-4 4-9.714q0-24.572 17.428-42t42-17.428q5.714 0 9.714-4t4-9.714zM373.428 110q0 2-0.286 2.572-30 53.715-90 161.714t-90.286 162l-14 25.428q-2.857 4.572-8 4.572-3.429 0-38.286-20-4.572-2.857-4.572-8 0-3.428 12.572-24.857-40.857-18.572-75.285-49.428t-59.572-70q-5.715-8.857-5.715-19.714t5.715-19.714q43.715-67.143 108.572-106t141.714-38.857q25.428 0 51.428 4.857l15.428-27.715q2.857-4.572 8-4.572 1.428 0 5.143 1.715t8.857 4.428 9.428 5.285 9 5.285 5.572 3.285q4.572 2.857 4.572 7.715zM384 237.714q0 39.714-22.572 72.428t-59.714 47l80-143.429q2.286 12.857 2.286 24zM512 274.286q0 10-5.714 19.714-11.143 18.286-31.143 41.428-42.857 49.143-99.286 76.286t-119.857 27.143l21.143-37.714q60.572-5.143 112.143-39.143t86.143-87.714q-32.857-51.143-80.572-84l18-32q27.143 18.286 52.143 43.714t41.286 52.572q5.714 9.714 5.714 19.714z" fill="#000000" />
</svg>
