<?xml version="1.0" encoding="utf-8"?>
<!-- Generated by IcoMoon.io -->
<!DOCTYPE svg PUBLIC "-//W3C//DTD SVG 1.1//EN" "http://www.w3.org/Graphics/SVG/1.1/DTD/svg11.dtd">
<svg version="1.1" xmlns="http://www.w3.org/2000/svg" xmlns:xlink="http://www.w3.org/1999/xlink" width="366" height="512" viewBox="0 0 366 512">
<g>
</g>
	<path d="M365.714 301.714q0 11.428-8 19.428t-19.428 8q-14.572 0-22.857-12.286l-64.857-97.428h-12.857v37.714l70.572 117.428q2.572 4.286 2.572 9.428 0 7.428-5.428 12.857t-12.857 5.428h-54.857v77.714q0 13.143-9.429 22.572t-22.572 9.429h-45.714q-13.143 0-22.572-9.428t-9.428-22.572v-77.714h-54.857q-7.428 0-12.857-5.428t-5.428-12.857q0-5.143 2.572-9.428l70.571-117.428v-37.714h-12.857l-64.857 97.428q-8.285 12.286-22.857 12.286-11.428 0-19.428-8t-8-19.428q0-8.286 4.572-15.143l73.143-109.714q20.857-30.572 50.285-30.572h109.714q29.428 0 50.286 30.572l73.143 109.714q4.572 6.857 4.572 15.143zM246.857 73.143q0 26.572-18.715 45.285t-45.286 18.715-45.286-18.715-18.715-45.285 18.715-45.285 45.286-18.715 45.286 18.715 18.714 45.285z" fill="#000000" />
</svg>
