<?xml version="1.0" encoding="utf-8"?>
<!-- Generated by IcoMoon.io -->
<!DOCTYPE svg PUBLIC "-//W3C//DTD SVG 1.1//EN" "http://www.w3.org/Graphics/SVG/1.1/DTD/svg11.dtd">
<svg version="1.1" xmlns="http://www.w3.org/2000/svg" xmlns:xlink="http://www.w3.org/1999/xlink" width="549" height="512" viewBox="0 0 549 512">
<g>
</g>
	<path d="M548.572 274.286q-0.285 9.143-82.286 27.428l-100.572 9.143-64 18.286h-18.286l-83.714 100.572h19.714q7.428 0 12.857 1.286t5.429 3.286-5.428 3.286-12.857 1.286h-91.429v-9.143h18.286v-118.857h-45.715l-54.857 64h-27.428l-9.143-9.143v-54.857h9.143v-9.143h36.572v-2.286l-54.857-6.857v-36.572l54.857-6.857v-2.286h-36.572v-9.143h-9.143v-54.857l9.143-9.143h27.428l54.857 64h45.715v-118.857h-18.286v-9.143h91.428q7.428 0 12.857 1.285t5.429 3.285-5.428 3.285-12.857 1.285h-19.715l83.714 100.572h18.286l64 18.286 100.572 9.143q74.571 16.571 82 26.571z" fill="#000000" />
</svg>
