<?xml version="1.0" encoding="utf-8"?>
<!-- Generated by IcoMoon.io -->
<!DOCTYPE svg PUBLIC "-//W3C//DTD SVG 1.1//EN" "http://www.w3.org/Graphics/SVG/1.1/DTD/svg11.dtd">
<svg version="1.1" xmlns="http://www.w3.org/2000/svg" xmlns:xlink="http://www.w3.org/1999/xlink" width="366" height="512" viewBox="0 0 366 512">
<g>
</g>
	<path d="M36.572 438.857h292.572v-219.429h-118.857q-11.429 0-19.429-8t-8-19.429v-118.857h-146.286v365.714zM219.429 182.857h107.429q-2.857-8.286-6.286-11.714l-89.428-89.428q-3.429-3.428-11.714-6.285v107.429zM365.714 192v256q0 11.428-8 19.428t-19.428 8h-310.857q-11.428 0-19.428-8t-8-19.428v-384q0-11.428 8-19.428t19.428-8h182.857q11.429 0 25.143 5.715t21.714 13.715l89.143 89.143q8 8 13.714 21.714t5.714 25.143z" fill="#000000" />
</svg>
