<?xml version="1.0" encoding="utf-8"?>
<!-- Generated by IcoMoon.io -->
<!DOCTYPE svg PUBLIC "-//W3C//DTD SVG 1.1//EN" "http://www.w3.org/Graphics/SVG/1.1/DTD/svg11.dtd">
<svg version="1.1" xmlns="http://www.w3.org/2000/svg" xmlns:xlink="http://www.w3.org/1999/xlink" width="366" height="512" viewBox="0 0 366 512">
<g>
</g>
	<path d="M292.572 393.143v-18.286q0-4-2.572-6.572t-6.572-2.572h-201.143q-4 0-6.572 2.572t-2.572 6.572v18.286q0 4 2.572 6.572t6.572 2.572h201.143q4 0 6.572-2.572t2.572-6.572zM292.572 320v-18.286q0-4-2.572-6.572t-6.572-2.572h-201.143q-4 0-6.572 2.572t-2.572 6.572v18.286q0 4 2.572 6.572t6.572 2.572h201.143q4 0 6.572-2.572t2.572-6.572zM365.714 219.429v228.571q0 11.428-8 19.428t-19.428 8h-310.857q-11.428 0-19.428-8t-8-19.428v-384q0-11.428 8-19.428t19.428-8h155.429v155.428q0 11.428 8 19.428t19.429 8h155.429zM364.857 182.857h-145.429v-145.429q23.429 4.285 37.715 18.572l89.143 89.143q14.286 14.286 18.572 37.714z" fill="#000000" />
</svg>
