<?xml version="1.0" encoding="utf-8"?>
<!-- Generated by IcoMoon.io -->
<!DOCTYPE svg PUBLIC "-//W3C//DTD SVG 1.1//EN" "http://www.w3.org/Graphics/SVG/1.1/DTD/svg11.dtd">
<svg version="1.1" xmlns="http://www.w3.org/2000/svg" xmlns:xlink="http://www.w3.org/1999/xlink" width="549" height="512" viewBox="0 0 549 512">
<g>
</g>
	<path d="M109.715 457.143v-36.572q0-7.428-5.428-12.857t-12.857-5.428h-36.572q-7.428 0-12.857 5.428t-5.428 12.857v36.572q0 7.428 5.428 12.857t12.857 5.428h36.572q7.428 0 12.857-5.428t5.428-12.857zM109.715 347.428v-36.572q0-7.428-5.428-12.857t-12.857-5.428h-36.572q-7.428 0-12.857 5.428t-5.428 12.857v36.572q0 7.428 5.428 12.857t12.857 5.428h36.572q7.428 0 12.857-5.428t5.428-12.857zM109.715 237.714v-36.572q0-7.428-5.428-12.857t-12.857-5.429h-36.572q-7.428 0-12.857 5.428t-5.428 12.857v36.571q0 7.428 5.428 12.857t12.857 5.429h36.572q7.428 0 12.857-5.428t5.428-12.857zM402.286 457.143v-146.286q0-7.428-5.428-12.857t-12.857-5.428h-219.429q-7.429 0-12.857 5.428t-5.428 12.857v146.286q0 7.428 5.428 12.857t12.857 5.428h219.429q7.428 0 12.857-5.428t5.428-12.857zM109.715 128v-36.572q0-7.428-5.428-12.857t-12.857-5.428h-36.572q-7.428 0-12.857 5.428t-5.428 12.857v36.572q0 7.428 5.428 12.857t12.857 5.429h36.572q7.428 0 12.857-5.428t5.428-12.857zM512 457.143v-36.572q0-7.428-5.428-12.857t-12.857-5.428h-36.572q-7.428 0-12.857 5.428t-5.428 12.857v36.572q0 7.428 5.428 12.857t12.857 5.428h36.572q7.428 0 12.857-5.428t5.428-12.857zM402.286 237.714v-146.286q0-7.428-5.428-12.857t-12.857-5.428h-219.429q-7.429 0-12.857 5.428t-5.428 12.857v146.286q0 7.428 5.428 12.857t12.857 5.429h219.429q7.428 0 12.857-5.428t5.428-12.857zM512 347.428v-36.572q0-7.428-5.428-12.857t-12.857-5.428h-36.572q-7.428 0-12.857 5.428t-5.428 12.857v36.572q0 7.428 5.428 12.857t12.857 5.428h36.572q7.428 0 12.857-5.428t5.428-12.857zM512 237.714v-36.572q0-7.428-5.428-12.857t-12.857-5.429h-36.572q-7.428 0-12.857 5.428t-5.428 12.857v36.571q0 7.428 5.428 12.857t12.857 5.429h36.572q7.428 0 12.857-5.428t5.428-12.857zM512 128v-36.572q0-7.428-5.428-12.857t-12.857-5.428h-36.572q-7.428 0-12.857 5.428t-5.428 12.857v36.572q0 7.428 5.428 12.857t12.857 5.429h36.572q7.428 0 12.857-5.428t5.428-12.857zM548.572 82.285v384q0 18.857-13.428 32.286t-32.286 13.428h-457.143q-18.857 0-32.285-13.428t-13.428-32.286v-384q0-18.857 13.428-32.285t32.285-13.428h457.143q18.857 0 32.286 13.428t13.428 32.285z" fill="#000000" />
</svg>
