<?xml version="1.0" encoding="utf-8"?>
<!-- Generated by IcoMoon.io -->
<!DOCTYPE svg PUBLIC "-//W3C//DTD SVG 1.1//EN" "http://www.w3.org/Graphics/SVG/1.1/DTD/svg11.dtd">
<svg version="1.1" xmlns="http://www.w3.org/2000/svg" xmlns:xlink="http://www.w3.org/1999/xlink" width="403" height="512" viewBox="0 0 403 512">
<g>
</g>
	<path d="M146.286 54.857q0-7.428-5.428-12.857t-12.857-5.428-12.857 5.428-5.428 12.857 5.428 12.857 12.857 5.428 12.857-5.428 5.428-12.857zM402.286 45.715v91.428q0 4.571-3.428 7.143-2.286 2-5.714 2-1.143 0-2-0.286l-128-27.428q-3.143-0.572-5.143-3.143t-2-5.715h-73.143v29.143q31.715 6.571 52.429 31.715t20.714 58v228.572q0 7.428-5.428 12.857t-12.857 5.428h-146.286q-7.428 0-12.857-5.428t-5.428-12.857v-228.571q0-30.285 17.857-54.429t46.143-32.714v-31.715h-9.143q-16.857 0-32.857 6.715t-26.143 15.143-18.857 19-11.572 15.286-4 7q-4.857 10-16.285 10-4.572 0-8.286-2-6.572-3.429-9-10.571t1-14q1.429-2.857 4.143-7.428t10.715-15.286 17.286-20 24.285-19.143 31-15q-7.143-12-7.143-24.572 0-18.857 13.428-32.285t32.285-13.428 32.285 13.428 13.428 32.285q0 9.428-4 18.285h86.286q0-3.143 2-5.715t5.143-3.143l128-27.428q0.857-0.285 2-0.285 3.428 0 5.714 2 3.428 2.572 3.428 7.143z" fill="#000000" />
</svg>
