<?xml version="1.0" encoding="utf-8"?>
<!-- Generated by IcoMoon.io -->
<!DOCTYPE svg PUBLIC "-//W3C//DTD SVG 1.1//EN" "http://www.w3.org/Graphics/SVG/1.1/DTD/svg11.dtd">
<svg version="1.1" xmlns="http://www.w3.org/2000/svg" xmlns:xlink="http://www.w3.org/1999/xlink" width="439" height="512" viewBox="0 0 439 512">
<g>
</g>
	<path d="M356.572 36.572q34 0 58.143 24.143t24.143 58.143v274.286q0 34-24.143 58.143t-58.143 24.143h-274.286q-34 0-58.143-24.143t-24.143-58.143v-274.286q0-34 24.143-58.143t58.143-24.143h274.286zM199.429 256q0-25.143-17.715-42.857t-42.857-17.715-42.857 17.714-17.715 42.857 17.715 42.857 42.857 17.714 42.857-17.714 17.714-42.857zM360.572 256q0-25.143-17.714-42.857t-42.857-17.715-42.857 17.714-17.714 42.857 17.714 42.857 42.857 17.714 42.857-17.714 17.714-42.857z" fill="#000000" />
</svg>
