<?xml version="1.0" encoding="utf-8"?>
<!-- Generated by IcoMoon.io -->
<!DOCTYPE svg PUBLIC "-//W3C//DTD SVG 1.1//EN" "http://www.w3.org/Graphics/SVG/1.1/DTD/svg11.dtd">
<svg version="1.1" xmlns="http://www.w3.org/2000/svg" xmlns:xlink="http://www.w3.org/1999/xlink" width="549" height="512" viewBox="0 0 549 512">
<g>
</g>
	<path d="M536.857 272q0 8.857-8.857 18.857l-96 113.143q-12.286 14.572-34.428 24.714t-41 10.143h-310.857q-9.715 0-17.285-3.714t-7.572-12.286q0-8.857 8.857-18.857l96-113.143q12.286-14.572 34.428-24.714t41-10.143h310.857q9.715 0 17.285 3.715t7.572 12.286zM438.857 173.714v45.714h-237.714q-26.857 0-56.286 13.572t-46.857 34.143l-97.714 114.858q0-1.143-0.143-3.572t-0.143-3.572v-274.286q0-26.285 18.857-45.143t45.143-18.857h91.429q26.286 0 45.143 18.857t18.857 45.143v9.143h155.429q26.286 0 45.143 18.857t18.857 45.143z" fill="#000000" />
</svg>
