<?xml version="1.0" encoding="utf-8"?>
<!-- Generated by IcoMoon.io -->
<!DOCTYPE svg PUBLIC "-//W3C//DTD SVG 1.1//EN" "http://www.w3.org/Graphics/SVG/1.1/DTD/svg11.dtd">
<svg version="1.1" xmlns="http://www.w3.org/2000/svg" xmlns:xlink="http://www.w3.org/1999/xlink" width="549" height="512" viewBox="0 0 549 512">
<g>
</g>
	<path d="M508.857 266q0-10-15.143-10h-310.857q-11.428 0-24.428 6.143t-20.428 15l-84 103.714q-5.143 6.857-5.143 11.428 0 10 15.143 10h310.857q11.428 0 24.572-6.286t20.286-15.143l84-103.714q5.143-6.286 5.143-11.143zM182.857 219.429h219.429v-45.715q0-11.428-8-19.428t-19.428-8h-164.571q-11.429 0-19.429-8t-8-19.428v-18.285q0-11.428-8-19.428t-19.428-8h-91.428q-11.428 0-19.428 8t-8 19.428v243.714l73.143-90q12.572-15.143 33.143-25t40-9.857zM545.428 266q0 17.714-13.143 34.286l-84.286 103.714q-12.286 15.143-33.143 25t-40 9.857h-310.857q-26.285 0-45.143-18.857t-18.857-45.143v-274.286q0-26.285 18.857-45.143t45.143-18.857h91.428q26.286 0 45.143 18.857t18.857 45.143v9.143h155.429q26.286 0 45.143 18.857t18.857 45.143v45.715h54.857q15.428 0 28.285 7t19.143 20.143q4.285 9.143 4.285 19.429z" fill="#000000" />
</svg>
