<?xml version="1.0" encoding="utf-8"?>
<!-- Generated by IcoMoon.io -->
<!DOCTYPE svg PUBLIC "-//W3C//DTD SVG 1.1//EN" "http://www.w3.org/Graphics/SVG/1.1/DTD/svg11.dtd">
<svg version="1.1" xmlns="http://www.w3.org/2000/svg" xmlns:xlink="http://www.w3.org/1999/xlink" width="476" height="512" viewBox="0 0 476 512">
<g>
</g>
	<path d="M438.857 374.857v-201.143q0-11.429-8-19.429t-19.428-8h-201.143q-11.429 0-19.429-8t-8-19.428v-18.285q0-11.428-8-19.428t-19.428-8h-91.428q-11.428 0-19.428 8t-8 19.428v274.286q0 11.428 8 19.428t19.428 8h347.428q11.428 0 19.428-8t8-19.428zM475.428 173.714v201.143q0 26.286-18.857 45.143t-45.143 18.857h-347.428q-26.285 0-45.143-18.857t-18.857-45.143v-274.286q0-26.285 18.857-45.143t45.143-18.857h91.428q26.286 0 45.143 18.857t18.857 45.143v9.143h192q26.286 0 45.143 18.857t18.857 45.143z" fill="#000000" />
</svg>
