<?xml version="1.0" encoding="utf-8"?>
<!-- Generated by IcoMoon.io -->
<!DOCTYPE svg PUBLIC "-//W3C//DTD SVG 1.1//EN" "http://www.w3.org/Graphics/SVG/1.1/DTD/svg11.dtd">
<svg version="1.1" xmlns="http://www.w3.org/2000/svg" xmlns:xlink="http://www.w3.org/1999/xlink" width="476" height="512" viewBox="0 0 476 512">
<g>
</g>
	<path d="M207.143 159.714l-48.571 128.571q20.857 0.286 43.857 0.572t34 0.428 15 0.143l8.285-0.572q-9.143-27.143-26.286-68.857-15.143-37.715-26.286-60.285zM6 475.428h-6l0.572-22.572q6.285-2 22.857-5.143 25.428-4.572 31.428-8.857 5.715-4.572 13.715-19.428l67.715-176 80-206.857h36.572l3.143 6 58.572 137.143q29.428 69.143 35.428 84.857 11.143 29.143 27.428 67.143 7.428 16.572 18.572 46.857 6.857 19.143 18.572 42.572 6.286 14 10 16.286 6.286 5.428 19.714 6.572 13.428 1.714 29.428 7.714 1.714 11.143 1.714 16.286 0 4-0.286 7.428-22.857 0-54.857-2.286-26.572-2.286-54-2.286-22.572 0-38.572 0.572l-57.143 3.143-16.572 0.572q0-12.857 1.143-22.286l37.429-8q16-3.714 19.428-6.572 3.428-3.428 3.428-7.714t-1.714-9.143l-13.428-32.572-26.286-65.143-128.571-0.572q-8.286 18.572-29.715 78.286-6.572 18.286-6.572 24 0 8.857 4.857 12.286 7.428 6 29.428 9.143 0.857 0 3.857 0.572t8.571 1.428 11.572 1.714q0.286 8 0.286 16.572 0 4.857-0.571 7.714-18.857 0-99.715-5.714l-13.715 2.286q-23.143 4-47.715 4z" fill="#000000" />
</svg>
