<?xml version="1.0" encoding="utf-8"?>
<!-- Generated by IcoMoon.io -->
<!DOCTYPE svg PUBLIC "-//W3C//DTD SVG 1.1//EN" "http://www.w3.org/Graphics/SVG/1.1/DTD/svg11.dtd">
<svg version="1.1" xmlns="http://www.w3.org/2000/svg" xmlns:xlink="http://www.w3.org/1999/xlink" width="403" height="512" viewBox="0 0 403 512">
<g>
</g>
	<path d="M182.857 18.285v182.857q0 17.428-10.143 31.714t-26.428 20v222.572q0 14.857-10.857 25.714t-25.715 10.857h-36.572q-14.857 0-25.715-10.857t-10.857-25.714v-222.571q-16.285-5.714-26.428-20t-10.143-31.715v-182.857q0-7.428 5.428-12.857t12.857-5.428 12.857 5.428 5.428 12.857v118.857q0 7.428 5.428 12.857t12.857 5.429 12.857-5.428 5.428-12.857v-118.857q0-7.428 5.428-12.857t12.857-5.428 12.857 5.428 5.428 12.857v118.857q0 7.429 5.428 12.857t12.857 5.428 12.857-5.428 5.428-12.857v-118.857q0-7.428 5.428-12.857t12.857-5.428 12.857 5.428 5.428 12.857zM402.286 18.285v457.143q0 14.857-10.857 25.714t-25.714 10.857h-36.572q-14.857 0-25.714-10.857t-10.857-25.714v-146.286h-64q-3.714 0-6.428-2.714t-2.714-6.428v-228.571q0-37.715 26.857-64.572t64.571-26.857h73.143q7.428 0 12.857 5.428t5.428 12.857z" fill="#000000" />
</svg>
