<?xml version="1.0" encoding="utf-8"?>
<!-- Generated by IcoMoon.io -->
<!DOCTYPE svg PUBLIC "-//W3C//DTD SVG 1.1//EN" "http://www.w3.org/Graphics/SVG/1.1/DTD/svg11.dtd">
<svg version="1.1" xmlns="http://www.w3.org/2000/svg" xmlns:xlink="http://www.w3.org/1999/xlink" width="476" height="512" viewBox="0 0 476 512">
<g>
</g>
	<path d="M423.714 292.572l-167.714 167.714q-14.857 15.143-36.428 15.143t-36.714-15.143l-167.714-167.714q-15.143-15.143-15.143-36.572t15.143-36.572l167.714-167.714q15.143-15.143 36.572-15.143t36.572 15.143l75.714 75.715-113.714 114-53.714-53.714q-12-12-28.286-12-16.857 0-28.572 11.714l-34.285 34.572q-12 11.428-12 28.286 0 16.572 12 28.572l116 116.572q8.571 8 19.143 10.572l1.714 1.143h8q17.143 0 28.286-11.714l176.857-176.857 0.572 0.857q15.143 15.143 15.143 36.572t-15.143 36.572zM401.714 113.715l34.286 34.285q4 4.286 4 10.286t-4 10.286l-208.571 208.572q-4.857 4.286-10.571 4.286v0q-1.143 0-1.714-0.286-5.143-0.572-8.572-4l-116.285-116.572q-4-4.286-4-10.286t4-10l34.572-34.286q3.714-4.286 10-4.286t10.286 4.286l72 72 164-164.286q4.286-4.285 10.286-4.285t10.286 4.285z" fill="#000000" />
</svg>
