<?xml version="1.0" encoding="utf-8"?>
<!-- Generated by IcoMoon.io -->
<!DOCTYPE svg PUBLIC "-//W3C//DTD SVG 1.1//EN" "http://www.w3.org/Graphics/SVG/1.1/DTD/svg11.dtd">
<svg version="1.1" xmlns="http://www.w3.org/2000/svg" xmlns:xlink="http://www.w3.org/1999/xlink" width="439" height="512" viewBox="0 0 439 512">
<g>
</g>
	<path d="M366.572 154.571l-101.428 101.429 101.428 101.428 41.143-41.143q8.286-8.857 20-4 11.143 4.857 11.143 16.857v128q0 7.428-5.428 12.857t-12.857 5.428h-128q-12 0-16.857-11.428-4.857-11.143 4-19.714l41.143-41.143-101.428-101.428-101.428 101.428 41.143 41.143q8.857 8.572 4 19.714-4.857 11.428-16.857 11.428h-128q-7.428 0-12.857-5.428t-5.428-12.857v-128q0-12 11.428-16.857 11.143-4.857 19.715 4l41.143 41.143 101.428-101.428-101.428-101.428-41.143 41.143q-5.428 5.429-12.857 5.429-3.428 0-6.857-1.429-11.428-4.857-11.428-16.857v-128q0-7.428 5.428-12.857t12.857-5.428h128q12 0 16.857 11.428 4.857 11.143-4 19.715l-41.143 41.143 101.428 101.428 101.428-101.428-41.143-41.143q-8.857-8.572-4-19.715 4.857-11.428 16.857-11.428h128q7.428 0 12.857 5.428t5.428 12.857v128q0 12-11.143 16.857-3.714 1.429-7.143 1.429-7.428 0-12.857-5.428z" fill="#000000" />
</svg>
