<?xml version="1.0" encoding="utf-8"?>
<!-- Generated by IcoMoon.io -->
<!DOCTYPE svg PUBLIC "-//W3C//DTD SVG 1.1//EN" "http://www.w3.org/Graphics/SVG/1.1/DTD/svg11.dtd">
<svg version="1.1" xmlns="http://www.w3.org/2000/svg" xmlns:xlink="http://www.w3.org/1999/xlink" width="549" height="512" viewBox="0 0 549 512">
<g>
</g>
	<path d="M237.714 310.857v-36.572q0-4-2.571-6.572t-6.571-2.572h-54.857v-54.857q0-4-2.571-6.571t-6.572-2.571h-36.572q-4 0-6.572 2.571t-2.572 6.572v54.857h-54.857q-4 0-6.572 2.572t-2.572 6.572v36.572q0 4 2.572 6.572t6.572 2.572h54.857v54.857q0 4 2.572 6.572t6.572 2.572h36.572q4 0 6.572-2.572t2.571-6.572v-54.857h54.857q4 0 6.572-2.572t2.571-6.572zM402.286 329.143q0-15.143-10.714-25.857t-25.857-10.714-25.857 10.714-10.714 25.857 10.714 25.857 25.857 10.714 25.857-10.714 10.714-25.857zM475.428 256q0-15.143-10.714-25.857t-25.857-10.714-25.857 10.714-10.714 25.857 10.714 25.857 25.857 10.714 25.857-10.714 10.714-25.857zM548.572 292.572q0 60.572-42.857 103.428t-103.428 42.857q-54.857 0-96.572-36.572h-62.857q-41.715 36.572-96.571 36.572-60.572 0-103.428-42.857t-42.857-103.428 42.857-103.428 103.428-42.857h256q60.572 0 103.428 42.857t42.857 103.428z" fill="#000000" />
</svg>
