<?xml version="1.0" encoding="utf-8"?>
<!-- Generated by IcoMoon.io -->
<!DOCTYPE svg PUBLIC "-//W3C//DTD SVG 1.1//EN" "http://www.w3.org/Graphics/SVG/1.1/DTD/svg11.dtd">
<svg version="1.1" xmlns="http://www.w3.org/2000/svg" xmlns:xlink="http://www.w3.org/1999/xlink" width="293" height="512" viewBox="0 0 293 512">
<g>
</g>
	<path d="M291.428 324.857v104.857q0 4-2.572 6.572t-6.572 2.572h-273.143q-4 0-6.572-2.572t-2.571-6.572v-42.857q0-3.714 2.715-6.428t6.428-2.714h27.715v-109.428h-27.143q-4 0-6.572-2.714t-2.571-6.428v-37.428q0-4 2.571-6.572t6.572-2.571h27.143v-63.715q0-48.857 35.285-80.572t89.857-31.715q52.857 0 95.715 35.715 2.572 2.285 2.857 5.857t-2 6.428l-29.428 36.285q-2.571 3.143-6.286 3.428-3.714 0.572-6.572-2-1.429-1.428-7.428-5.428t-19.714-9.143-26.572-5.143q-24.286 0-39.143 13.428t-14.857 35.143v61.429h87.143q3.714 0 6.429 2.571t2.714 6.571v37.428q0 3.714-2.714 6.428t-6.428 2.714h-87.143v108.286h118.285v-51.714q0-3.714 2.571-6.428t6.571-2.714h46.286q4 0 6.572 2.714t2.572 6.428z" fill="#000000" />
</svg>
