<?xml version="1.0" encoding="utf-8"?>
<!-- Generated by IcoMoon.io -->
<!DOCTYPE svg PUBLIC "-//W3C//DTD SVG 1.1//EN" "http://www.w3.org/Graphics/SVG/1.1/DTD/svg11.dtd">
<svg version="1.1" xmlns="http://www.w3.org/2000/svg" xmlns:xlink="http://www.w3.org/1999/xlink" width="439" height="512" viewBox="0 0 439 512">
<g>
</g>
	<path d="M265.143 387.428v-204.571h-91.428v204.571q0 7.143 5.143 11t13.143 3.857h54.857q8 0 13.143-3.857t5.143-11zM134.857 146.286h55.715l-36-46q-7.428-8.857-19.714-8.857-11.428 0-19.428 8t-8 19.428 8 19.428 19.428 8zM331.428 118.857q0-11.428-8-19.428t-19.428-8q-12.286 0-19.714 8.857l-35.714 46h55.428q11.428 0 19.428-8t8-19.428zM438.857 192v91.428q0 4-2.572 6.572t-6.572 2.572h-27.428v118.857q0 11.428-8 19.428t-19.428 8h-310.857q-11.428 0-19.428-8t-8-19.428v-118.857h-27.428q-4 0-6.572-2.572t-2.571-6.572v-91.428q0-4 2.571-6.572t6.572-2.571h125.715q-26.572 0-45.285-18.715t-18.715-45.285 18.715-45.285 45.285-18.715q30.572 0 48 22l36.572 47.143 36.572-47.143q17.428-22 48-22 26.572 0 45.286 18.715t18.714 45.285-18.714 45.285-45.286 18.714h125.714q4 0 6.572 2.571t2.572 6.571z" fill="#000000" />
</svg>
