<?xml version="1.0" encoding="utf-8"?>
<!-- Generated by IcoMoon.io -->
<!DOCTYPE svg PUBLIC "-//W3C//DTD SVG 1.1//EN" "http://www.w3.org/Graphics/SVG/1.1/DTD/svg11.dtd">
<svg version="1.1" xmlns="http://www.w3.org/2000/svg" xmlns:xlink="http://www.w3.org/1999/xlink" width="476" height="512" viewBox="0 0 476 512">
<g>
</g>
	<path d="M182.857 347.428q0 11.428-3.571 23.428t-12.286 21.714-20.714 9.714-20.715-9.714-12.285-21.714-3.572-23.428 3.572-23.428 12.285-21.714 20.715-9.714 20.714 9.714 12.286 21.714 3.571 23.428zM365.714 347.428q0 11.428-3.572 23.428t-12.286 21.714-20.714 9.714-20.714-9.714-12.286-21.714-3.572-23.428 3.572-23.428 12.286-21.714 20.714-9.714 20.714 9.714 12.286 21.714 3.572 23.428zM411.428 347.428q0-34.286-19.714-58.286t-53.428-24q-11.714 0-55.714 6-20.286 3.143-44.857 3.143t-44.857-3.143q-43.428-6-55.714-6-33.715 0-53.428 24t-19.715 58.286q0 25.143 9.143 43.857t23.143 29.428 34.857 17.143 40 8.428 42.572 2h48q23.428 0 42.572-2t40-8.428 34.857-17.143 23.143-29.428 9.143-43.857zM475.428 297.143q0 59.143-17.428 94.572-10.857 22-30.143 38t-40.286 24.572-48.572 13.572-49 6.286-47.714 1.286q-22.286 0-40.572-0.857t-42.143-3.572-43.572-8.572-39.143-14.714-34.572-23.143-24.572-32.857q-17.715-35.143-17.715-94.572 0-67.714 38.857-113.143-7.715-23.429-7.715-48.571 0-33.143 14.572-62.285 30.857 0 54.285 11.285t54 35.285q42-10 88.286-10 42.286 0 80 9.143 30-23.428 53.428-34.572t54-11.143q14.572 29.143 14.572 62.286 0 24.857-7.714 48 38.857 45.714 38.857 113.714z" fill="#000000" />
</svg>
