<?xml version="1.0" encoding="utf-8"?>
<!-- Generated by IcoMoon.io -->
<!DOCTYPE svg PUBLIC "-//W3C//DTD SVG 1.1//EN" "http://www.w3.org/Graphics/SVG/1.1/DTD/svg11.dtd">
<svg version="1.1" xmlns="http://www.w3.org/2000/svg" xmlns:xlink="http://www.w3.org/1999/xlink" width="439" height="512" viewBox="0 0 439 512">
<g>
</g>
	<path d="M112.572 386.286q-2.285 2.572-5.715-0.857-3.715-3.143-1.143-5.428 2.285-2.572 5.715 0.857 3.428 3.143 1.143 5.428zM100.572 368.857q2.572 3.428 0 5.428-2.285 1.714-4.857-2t0-5.143q2.572-2 4.857 1.714zM83.143 351.714q-1.428 2-3.715 0.572-2.857-1.428-2-3.428 0.857-1.428 3.715-0.572 2.857 1.428 2 3.428zM92 361.428q-1.715 2-4.572-0.857-2.572-3.143-0.572-4.572 1.715-1.714 4.572 0.857 2.572 3.143 0.572 4.572zM128.857 393.428q-1.143 3.428-5.428 1.714-4.857-1.143-3.715-4.286t5.428-2q4.572 1.428 3.715 4.572zM146.857 394.857q0 3.143-4.571 3.143-4.857 0.572-4.857-3.143 0-3.143 4.571-3.143 4.857-0.572 4.857 3.143zM163.429 392q0.571 2.857-4 4t-5.143-2.286 4-4.286q4.572-0.572 5.143 2.572zM438.857 118.857v274.286q0 34-24.143 58.143t-58.143 24.143h-64q-4.572 0-7-0.286t-5.572-1.428-4.572-4.143-1.428-7.857v-68.286q0-27.714-14.857-40.572 16.286-1.714 29.286-5.143t26.857-11.143 23.143-19 15.143-30 5.857-43q0-34.572-22.572-58.857 10.572-26-2.286-58.285-8-2.572-23.143 3.143t-26.286 12.572l-10.857 6.857q-26.572-7.429-54.857-7.429t-54.857 7.428q-4.572-3.143-12.143-7.714t-23.857-11-24.572-3.857q-12.572 32.285-2 58.285-22.572 24.286-22.572 58.857 0 24.285 5.857 42.857t15 30 23 19.143 26.857 11.143 29.285 5.143q-11.428 10.286-14 29.428-6 2.857-12.857 4.286t-16.285 1.428-18.715-6.143-15.857-17.857q-5.428-9.143-13.857-14.857t-14.143-6.857l-5.715-0.857q-6 0-8.285 1.286t-1.428 3.286 2.572 4 3.715 3.428l2 1.428q6.285 2.857 12.428 10.857t9 14.572l2.857 6.572q3.715 10.857 12.572 17.572t19.143 8.572 19.857 2 15.857-1l6.572-1.143q0 10.857 0.143 29.428t0.143 19.428q0 6.286-3.143 9.572t-6.286 3.714-9.429 0.428h-64q-34 0-58.143-24.143t-24.143-58.143v-274.286q0-34 24.143-58.143t58.143-24.143h274.286q34 0 58.143 24.143t24.143 58.143z" fill="#000000" />
</svg>
