<?xml version="1.0" encoding="utf-8"?>
<!-- Generated by IcoMoon.io -->
<!DOCTYPE svg PUBLIC "-//W3C//DTD SVG 1.1//EN" "http://www.w3.org/Graphics/SVG/1.1/DTD/svg11.dtd">
<svg version="1.1" xmlns="http://www.w3.org/2000/svg" xmlns:xlink="http://www.w3.org/1999/xlink" width="439" height="512" viewBox="0 0 439 512">
<g>
</g>
	<path d="M220.857 372l100-135.143q4.572-6.286 7-16.857t-1.714-24.286-17.572-22.572q-11.428-7.428-23.714-7.286t-21 5-15.572 12.857q-10.286 11.429-27.428 11.429-16.857 0-27.143-11.428-6.857-8-15.571-12.857t-21-5-24 7.286q-13.143 8.857-17.285 22.571t-1.715 24.286 7 16.857zM438.857 256q0 59.714-29.428 110.143t-79.857 79.857-110.143 29.428-110.143-29.428-79.857-79.857-29.428-110.143 29.428-110.143 79.857-79.857 110.143-29.428 110.143 29.428 79.857 79.857 29.428 110.143z" fill="#000000" />
</svg>
