<?xml version="1.0" encoding="utf-8"?>
<!-- Generated by IcoMoon.io -->
<!DOCTYPE svg PUBLIC "-//W3C//DTD SVG 1.1//EN" "http://www.w3.org/Graphics/SVG/1.1/DTD/svg11.dtd">
<svg version="1.1" xmlns="http://www.w3.org/2000/svg" xmlns:xlink="http://www.w3.org/1999/xlink" width="439" height="512" viewBox="0 0 439 512">
<g>
</g>
	<path d="M219.429 36.572q59.715 0 110.143 29.428t79.857 79.857 29.428 110.143-29.428 110.143-79.857 79.857-110.143 29.428-110.143-29.428-79.857-79.857-29.428-110.143 29.428-110.143 79.857-79.857 110.143-29.428zM297.714 185.429q-0.572 0.286-2.714 2.714t-3.857 2.714q0.572 0 1.286-1.429t1.428-3.143 1-2q1.714-2 6.286-4.286 4-1.714 14.857-3.429 9.714-2.286 14.572 3.143-0.572-0.571 2.714-3.714t4.143-3.429q0.857-0.571 4.286-1.286t4.286-2.143l0.572-6.286q-3.428 0.286-5-2t-1.857-6q0 0.571-1.714 2.286 0-2-1.286-2.286t-3.286 0.286-2.572 0.286q-2.857-0.857-4.286-2.143t-2.286-4.714-1.143-4.286q-0.572-1.429-2.714-3t-2.714-3q-0.286-0.571-0.714-1.571t-0.857-1.857-1.143-1.571-1.572-0.714-2 1.429-2.143 2.857-1.286 1.429q-0.857-0.571-1.714-0.429t-1.286 0.286-1.286 0.857-1.428 1q-0.857 0.571-2.428 0.857t-2.428 0.571q4.286-1.429-0.286-3.143-2.857-1.143-4.572-0.857 2.572-1.143 2.143-3.429t-2.428-4h1.428q-0.286-1.143-2.428-2.428t-5-2.428-3.714-1.715q-2.286-1.428-9.714-2.715t-9.428-0.143q-1.428 1.715-1.286 3t1.143 4 1 3.571q0.286 1.714-1.572 3.714t-1.857 3.429q0 2 4 4.428t2.857 6.143q-0.857 2.286-4.572 4.571t-4.572 3.429q-1.428 2.286-0.428 5.286t3 4.714q0.572 0.571 0.428 1.143t-1 1.286-1.572 1.143-1.857 1l-0.857 0.571q-3.143 1.429-5.857-1.714t-3.857-7.428q-2-7.143-4.572-8.572-6.572-2.286-8.286 0.286-1.429-3.714-11.714-7.428-7.143-2.571-16.572-1.143 1.714-0.286 0-4.286-2-4.286-5.428-3.429 0.857-1.714 1.143-5t0.286-3.857q0.857-3.715 3.429-6.572 0.286-0.285 2-2.428t2.714-3.857 0.143-1.715q10 1.143 14.286-3.143 1.429-1.428 3.286-4.857t3-4.857q2.571-1.715 4-1.572t4.143 1.572 4.143 1.428q4 0.285 4.429-3.143t-2.143-5.715q3.429 0.285 0.857-4.857-1.429-2-2.286-2.572-3.429-1.143-7.714 1.428-2.286 1.143 0.571 2.285-0.286-0.285-2.714 3t-4.714 5-4.571-1.428q-0.286-0.285-1.571-3.857t-2.714-3.857q-2.286 0-4.571 4.285 0.857-2.285-3.143-4.285t-6.857-2.285q5.428-3.428-2.286-7.715-2-1.143-5.857-1.428t-5.571 1.143q-1.429 2-1.571 3.285t1.429 2.285 3 1.572 3.286 1.143 2.429 0.857q4 2.857 2.286 4-0.571 0.285-2.429 1t-3.286 1.285-1.714 1.143q-0.857 1.143 0 4t-0.571 4q-1.429-1.428-2.571-5t-2-4.715q2 2.572-7.143 1.715l-2.857-0.285q-1.143 0-4.572 0.572t-5.857 0.285-3.857-2.285q-1.143-2.285 0-5.715 0.286-1.143 1.143-0.572-1.143-0.857-3.143-2.715t-2.857-2.428q-13.143 4.285-26.857 11.715 1.714 0.285 3.429-0.285 1.429-0.572 3.714-1.857t2.857-1.572q9.714-4 12-2l1.429-1.428q4 4.572 5.714 7.143-2-1.143-8.571-0.285-5.714 1.715-6.286 3.428 2 3.428 1.429 5.143-1.143-0.857-3.286-2.857t-4.143-3.143-4.286-1.428q-4.572 0-6.286 0.285-41.715 22.857-67.143 63.429 2 2 3.428 2.286 1.143 0.286 1.428 2.571t0.715 3.143 3.285-0.857q2.572 2.286 0.857 5.429 0.285-0.286 12.572 7.714 5.428 4.857 6 6 0.857 3.143-2.857 5.143-0.285-0.571-2.572-2.571t-2.572-1.143q-0.857 1.429 0.143 5.286t3 3.571q-2 0-2.715 4.572t-0.715 10.143-0.285 6.714l0.572 0.286q-0.857 3.429 1.572 9.857t6.143 5.572q-3.715 0.857 5.715 12.286 1.715 2.286 2.285 2.571 0.857 0.571 3.428 2.143t4.285 2.857 2.857 3q1.143 1.429 2.857 6.429t4 6.714q-0.572 1.714 2.715 5.714t3 6.572q-0.285 0-0.715 0.286t-0.715 0.286q0.857 2 4.428 4t4.429 3.714q0.286 0.857 0.571 2.857t0.857 3.143 2.286 0.572q0.571-5.714-6.857-17.714-4.285-7.143-4.857-8.286-0.857-1.428-1.572-4.428t-1.285-4.143q0.572 0 1.715 0.428t2.428 1 2.143 1.143 0.572 0.857q-0.857 2 0.572 5t3.429 5.286 4.857 5.428 3.429 3.714q1.714 1.714 4 5.572t0 3.857q2.571 0 5.714 2.857t4.857 5.714q1.429 2.286 2.286 7.428t1.429 6.857q0.571 2 2.429 3.857t3.571 2.714l4.571 2.286t3.714 2q1.429 0.572 5.286 3t6.143 3.286q2.857 1.143 4.571 1.143t4.143-0.714 3.857-1q4.286-0.572 8.286 4.286t6 6q10.286 5.428 15.714 3.143-0.571 0.286 0.143 2.143t2.286 4.428 2.571 4.143 1.571 2.428q1.429 1.714 5.143 4.286t5.143 4.286q1.714-1.143 2-2.572-0.857 2.286 2 5.714t5.143 2.857q4-0.857 4-9.143-8.857 4.286-14-5.143 0-0.286-0.714-1.572t-1.143-2.428-0.714-2.428 0-2.143 1.429-0.857q2.571 0 2.857-1t-0.571-3.572-1.143-3.714q-0.286-2.286-3.143-5.714t-3.429-4.286q-1.429 2.572-4.571 2.286t-4.572-2.572q0 0.286-0.429 1.572t-0.429 1.857q-3.714 0-4.286-0.286 0.286-0.857 0.714-5t1-6.428q0.286-1.143 1.571-3.428t2.143-4.143 1.143-3.572-1.286-2.714-5-0.714q-5.429 0.286-7.429 5.714-0.286 0.857-0.857 3t-1.429 3.286-2.571 2q-2 0.857-6.857 0.572t-6.857-1.428q-3.714-2.286-6.429-8.286t-2.714-10.572q0-2.857 0.714-7.572t0.857-7.143-1.571-7q0.857-0.572 2.571-2.714t2.857-3q0.571-0.286 1.286-0.428t1.286 0 1.143-0.428 0.857-1.714q-0.286-0.286-1.143-0.857-0.857-0.857-1.143-0.857 2 0.857 8.143-0.428t7.857 0.428q4.286 3.143 6.286-0.572 0-0.286-0.714-2.714t-0.143-3.857q1.429 7.714 8.286 2.572 0.857 0.857 4.429 1.428t5 1.428q0.857 0.572 2 1.572t1.571 1.286 1.429-0.143 2.429-1.857q2.857 4 3.429 6.857 3.143 11.428 5.428 12.572 2 0.857 3.143 0.572t1.286-2.714 0-4-0.429-3.572l-0.286-2.286v-5.143l-0.286-2.286q-4.286-0.857-5.286-3.428t0.429-5.286 4.286-5.286q0.286-0.286 2.286-1t4.429-1.857 3.572-2.286q6-5.429 4.286-10 2 0 3.143-2.571-0.286 0-1.428-0.857t-2.143-1.429-1.286-0.571q2.572-1.429 0.572-4.571 1.428-0.857 2.143-3.143t2.143-2.857q2.572 3.429 6 0.571 2-2.286 0.286-4.571 1.428-2 5.857-3t5.286-2.714q2 0.571 2.286-0.571t0.286-3.429 0.857-3.429q1.143-1.429 4.286-2.571t3.714-1.429l4.857-3.143q0.857-1.143 0-1.143 5.143 0.571 8.857-3.143 2.857-3.143-1.714-5.714 0.857-1.714-0.857-2.714t-4.286-1.571q0.857-0.286 3.286-0.143t3-0.429q4.286-2.857-2-4.571-4.857-1.429-12.286 3.429zM251.143 436q58.857-10.286 100.285-54-0.857-0.857-3.572-1.286t-3.572-1q-5.143-2-6.857-2.286 0.286-2-0.714-3.714t-2.286-2.572-3.572-2.286-3.143-2q-0.572-0.572-2-1.714t-2-1.572-2.143-1.286-2.428-0.572-2.857 0.286l-0.857 0.286q-0.857 0.286-1.572 0.714t-1.572 0.857-1.143 0.857 0 0.714q-6-4.857-10.286-6.286-1.428-0.286-3.143-1.572t-3-2-2.857-0.428-3.286 2q-1.428 1.428-1.714 4.286t-0.572 3.714q-2-1.428 0-5t0.572-5.286q-0.857-1.714-3-1.286t-3.428 1.286-3.286 2.428-2.572 1.857-2.428 1.572-2.428 2.143q-0.857 1.143-1.714 3.428t-1.428 3.143q-0.572-1.143-3.286-1.857t-2.714-1.572q0.572 2.857 1.143 10t1.428 10.857q2 8.857-3.428 13.714-7.714 7.143-8.286 11.428-1.143 6.286 3.429 7.428 0 2-2.286 5.857t-2 6.143q0 1.714 0.571 4.572z" fill="#000000" />
</svg>
