<?xml version="1.0" encoding="utf-8"?>
<!-- Generated by IcoMoon.io -->
<!DOCTYPE svg PUBLIC "-//W3C//DTD SVG 1.1//EN" "http://www.w3.org/Graphics/SVG/1.1/DTD/svg11.dtd">
<svg version="1.1" xmlns="http://www.w3.org/2000/svg" xmlns:xlink="http://www.w3.org/1999/xlink" width="439" height="512" viewBox="0 0 439 512">
<g>
</g>
	<path d="M193.714 455.143q0 10.857-2.857 20.286h-108.572q-27.143 0-49-16.143t-29.572-42.143q6.857-12.857 19.715-22.143t28.572-14.143 30.572-6.857 30.572-2q9.143 0 14 0.572 1.714 1.143 8.714 6t9.429 6.572 8.857 6.572 9.143 7.286 7.857 7.286 7.571 8.428 6 8.714 5 9.857 2.714 10.286 1.286 11.572zM110 354.857q-66.857 2-110 24.286v-123.714q29.428 33.714 78 33.714 9.143 0 20-1.428-6 17.428-6 24.572 0 19.143 18 42.572zM159.429 208.857q0 28.571-12.429 45.857t-40.143 17.286q-14.572 0-27.715-7.428t-22.285-19.286-16-26.714-10.143-29.714-3.285-28.286q0-27.428 14.715-47.143t41.285-19.715q18.857 0 34 11.715t24 29.715 13.428 37.143 4.572 36.571zM438.857 182.857v210.286q0 34-24.143 58.143t-58.143 24.143h-133.714q11.143-20.857 11.143-44.857 0-18.857-6.286-35t-15.857-26.572-20.572-20.286-20.572-17-15.857-15.572-6.286-17q0-10.286 6.571-19.428t16-17.572 18.714-18.428 15.857-26.572 6.571-37.428-7.572-41.572-21.572-33.857q-1.714-1.715-4-3.143t-3.571-2.143-2.857-2.715-3-4.857h38.572l38.572-18.285h-124.857q-39.428 0-69.857 11t-52.143 38.143q0-36 23.143-60.857t59.143-24.857h274.286q34 0 58.143 24.143t24.143 58.143v27.429h-73.143v-73.143h-36.572v73.143h-73.143v36.572h73.143v73.143h36.572v-73.143h73.143z" fill="#000000" />
</svg>
