<?xml version="1.0" encoding="utf-8"?>
<!-- Generated by IcoMoon.io -->
<!DOCTYPE svg PUBLIC "-//W3C//DTD SVG 1.1//EN" "http://www.w3.org/Graphics/SVG/1.1/DTD/svg11.dtd">
<svg version="1.1" xmlns="http://www.w3.org/2000/svg" xmlns:xlink="http://www.w3.org/1999/xlink" width="549" height="512" viewBox="0 0 549 512">
<g>
</g>
	<path d="M169.429 256q-46.285 1.428-75.715 36.572h-38.285q-23.428 0-39.428-11.572t-16-33.857q0-100.857 35.428-100.857 1.715 0 12.428 6t27.857 12.143 34 6.143q19.143 0 38-6.572-1.429 10.572-1.429 18.857 0 39.715 23.143 73.143zM475.428 438q0 34.286-20.857 54.143t-55.428 19.857h-249.714q-34.572 0-55.428-19.857t-20.857-54.143q0-15.143 1-29.572t4-31.143 7.572-31 12.285-27.857 17.715-23.143 24.428-15.286 31.857-5.714q2.857 0 12.286 6.143t20.857 13.714 30.572 13.714 38.572 6.143 38.572-6.143 30.572-13.714 20.857-13.714 12.286-6.143q17.428 0 31.857 5.714t24.428 15.286 17.714 23.143 12.286 27.857 7.572 31 4 31.143 1 29.572zM182.857 73.143q0 30.285-21.429 51.715t-51.715 21.428-51.715-21.428-21.428-51.715 21.428-51.715 51.715-21.428 51.715 21.428 21.428 51.715zM384 182.857q0 45.429-32.143 77.571t-77.572 32.143-77.572-32.143-32.143-77.572 32.143-77.572 77.572-32.143 77.572 32.143 32.143 77.572zM548.572 247.143q0 22.285-16 33.857t-39.428 11.572h-38.286q-29.428-35.143-75.714-36.572 23.143-33.428 23.143-73.143 0-8.286-1.428-18.857 18.857 6.572 38 6.572 16.857 0 34-6.143t27.857-12.143 12.428-6q35.428 0 35.428 100.857zM512 73.143q0 30.285-21.428 51.715t-51.714 21.428-51.714-21.428-21.428-51.715 21.428-51.715 51.714-21.428 51.714 21.428 21.428 51.715z" fill="#000000" />
</svg>
