<?xml version="1.0" encoding="utf-8"?>
<!-- Generated by IcoMoon.io -->
<!DOCTYPE svg PUBLIC "-//W3C//DTD SVG 1.1//EN" "http://www.w3.org/Graphics/SVG/1.1/DTD/svg11.dtd">
<svg version="1.1" xmlns="http://www.w3.org/2000/svg" xmlns:xlink="http://www.w3.org/1999/xlink" width="439" height="512" viewBox="0 0 439 512">
<g>
</g>
	<path d="M402.286 274.286q0-24-9.143-52.286t-18.286-55.428-9.143-47.715v-9.143h-182.857v9.143q0 10-3.429 19.285t-10.572 17.857-13.143 14.286-15.429 14q-2.571 2.286-4 3.429-23.143 20.571-41.428 32-6.285 4-19.428 10.857-0.857 0.286-6.428 3t-10.285 5.286-10.143 5.714-8.715 6.143-3.285 5.286q0 20.285 8.715 33t27.857 12.714q12.285 0 24.143-4.286t19.428-9.428 15.714-9.428 13.857-4.286v164.571q0 14.286 11 25.428t25.572 11.143q14.857 0 25.714-10.857t10.857-25.714v-94.572q13.143 10 29.429 10 19.714 0 34-15.143 9.143 5.143 19.714 5.143t21-5 15-13.572q6.857 1.143 16 1.143 24.286 0 36-13.857t11.714-38.714zM365.714 54.857q0-7.428-5.428-12.857t-12.857-5.428-12.857 5.428-5.428 12.857 5.428 12.857 12.857 5.428 12.857-5.428 5.428-12.857zM438.857 273.143q0 40.572-22.143 65.714t-62.143 24.857l-1.428-0.286q-21.714 17.428-50.857 17.428-6.286 0-12.286-0.857-15.428 8.572-34 10.572v48.286q0 30-21.714 51.572t-51.714 21.571q-29.428 0-51.143-21.714t-21.715-51.428v-106.857q-15.428 6.286-36.572 6.286-34.572 0-53.857-23.286t-19.285-59q0-10.857 5-19.857t14.143-15.714 18-11.571 20.572-10.572 17.715-9.428q15.715-10 36.857-28.572 0.857-0.571 4.857-4t6.143-5.428 6.143-5.857 6.429-6.857 5.143-6.428 4-6.715 1.286-6.143v-82.285q0-15.143 10.714-25.857t25.857-10.714h182.857q15.143 0 25.857 10.714t10.714 25.857v82.285q0 16.857 16.857 63.715 19.714 54.285 19.714 90.571z" fill="#000000" />
</svg>
