<?xml version="1.0" encoding="utf-8"?>
<!-- Generated by IcoMoon.io -->
<!DOCTYPE svg PUBLIC "-//W3C//DTD SVG 1.1//EN" "http://www.w3.org/Graphics/SVG/1.1/DTD/svg11.dtd">
<svg version="1.1" xmlns="http://www.w3.org/2000/svg" xmlns:xlink="http://www.w3.org/1999/xlink" width="512" height="512" viewBox="0 0 512 512">
<g>
</g>
	<path d="M73.143 384q0-7.428-5.428-12.857t-12.857-5.428-12.857 5.428-5.428 12.857 5.428 12.857 12.857 5.428 12.857-5.428 5.428-12.857zM475.428 219.429q0-14.571-11.143-25.571t-25.428-11h-164.572q0-5.714 4.286-13.857t9.428-15.714 9.428-19.429 4.286-24.143q0-19.143-12.714-27.857t-33-8.715q-6.857 0-25.714 39.715-6.857 12.572-10.572 18.572-11.428 18.286-32 41.428-20.286 23.143-28.857 30.286-19.715 16.286-40 16.286h-9.143v182.857h9.143q20.571 0 47.715 9.143t55.286 18.286 51.286 9.143q54 0 54-47.714 0-7.428-1.428-16 8.572-4.572 13.572-15t5-21-5.143-19.714q15.143-14.286 15.143-34 0-7.143-2.857-15.857t-7.143-13.572h94.572q14.857 0 25.714-10.857t10.857-25.715zM512 219.143q0 30-21.572 51.715t-51.572 21.714h-48.286q-1.143 17.714-10.572 34 0.857 6 0.857 12.286 0 28.857-17.143 50.857 0.286 39.714-24.286 62.714t-64.857 23q-38 0-92-19.714-46.857-16.857-63.715-16.857h-82.285q-15.143 0-25.857-10.714t-10.714-25.857v-182.857q0-15.143 10.714-25.857t25.857-10.714h82.285q2.857 0 6.143-1.286t6.715-4 6.429-5.143 6.857-6.429 5.857-6.143 5.428-6.143 4-4.857q18.572-21.143 28.572-36.857 3.714-6 9.428-17.715t10.572-20.572 11.572-18 15.714-14.143 19.857-5q35.715 0 59 19.143t23.286 54q0 19.428-6.286 36.572h106.857q29.714 0 51.428 21.714t21.714 51.143z" fill="#000000" />
</svg>
