<?xml version="1.0" encoding="utf-8"?>
<!-- Generated by IcoMoon.io -->
<!DOCTYPE svg PUBLIC "-//W3C//DTD SVG 1.1//EN" "http://www.w3.org/Graphics/SVG/1.1/DTD/svg11.dtd">
<svg version="1.1" xmlns="http://www.w3.org/2000/svg" xmlns:xlink="http://www.w3.org/1999/xlink" width="439" height="512" viewBox="0 0 439 512">
<g>
</g>
	<path d="M365.714 457.143q0-7.428-5.428-12.857t-12.857-5.428-12.857 5.428-5.428 12.857 5.428 12.857 12.857 5.428 12.857-5.428 5.428-12.857zM402.286 238.857q0-54-47.714-54-7.428 0-16 1.429-4.572-8.572-15-13.572t-21-5-19.714 5.143q-14.286-15.143-34-15.143-7.143 0-15.857 2.857t-13.571 7.143v-94.572q0-14.857-10.857-25.715t-25.715-10.857q-14.572 0-25.572 11.143t-11 25.428v164.572q-5.714 0-13.857-4.286t-15.715-9.428-19.428-9.428-24.143-4.286q-19.143 0-27.857 12.714t-8.715 33q0 6.857 39.715 25.714 12.572 6.857 18.572 10.572 18.285 11.428 41.428 32 23.143 20.286 30.286 28.857 16.286 19.714 16.286 40v9.143h182.857v-9.143q0-20.572 9.143-47.714t18.286-55.286 9.143-51.286zM438.857 237.429q0 38-19.714 92-16.857 46.857-16.857 63.714v82.286q0 15.143-10.714 25.857t-25.857 10.714h-182.857q-15.143 0-25.857-10.714t-10.714-25.857v-82.286q0-2.857-1.286-6.143t-4-6.714-5.143-6.428-6.429-6.857-6.143-5.857-6.143-5.428-4.857-4q-21.143-18.572-36.857-28.572-6-3.714-17.715-9.428t-20.572-10.572-18-11.572-14.143-15.714-5-19.857q0-35.715 19.143-59t54-23.285q19.428 0 36.572 6.286v-106.857q0-29.715 21.715-51.428t51.143-21.715q30 0 51.715 21.572t21.714 51.572v48.285q17.714 1.143 34 10.572 6-0.857 12.286-0.857 28.857 0 50.857 17.143 39.714-0.286 62.714 24.286t23 64.857z" fill="#000000" />
</svg>
