<?xml version="1.0" encoding="utf-8"?>
<!-- Generated by IcoMoon.io -->
<!DOCTYPE svg PUBLIC "-//W3C//DTD SVG 1.1//EN" "http://www.w3.org/Graphics/SVG/1.1/DTD/svg11.dtd">
<svg version="1.1" xmlns="http://www.w3.org/2000/svg" xmlns:xlink="http://www.w3.org/1999/xlink" width="512" height="512" viewBox="0 0 512 512">
<g>
</g>
	<path d="M393.143 402.286h9.143v-182.857h-9.143q-10 0-19.286-3.429t-17.857-10.572-14.286-13.143-14-15.429q-0.572-0.857-1-1.286t-1.143-1.286-1.286-1.429q-20.572-23.143-32-41.429-4-6.285-10.857-19.428-0.286-0.857-3-6.428t-5.286-10.285-5.714-10.143-6.143-8.715-5.286-3.285q-20.286 0-33 8.715t-12.714 27.857q0 12.285 4.286 24.143t9.428 19.429 9.428 15.714 4.286 13.857h-164.571q-14.285 0-25.428 11t-11.143 25.571q0 14.857 10.857 25.714t25.715 10.857h94.571q-4.286 4.857-7.143 13.572t-2.857 15.857q0 19.714 15.143 34-5.143 9.143-5.143 19.714t5 21 13.572 15q-1.143 6.857-1.143 16 0 24.286 13.857 36t38.714 11.714q24 0 52.286-9.143t55.428-18.286 47.714-9.143zM475.428 384q0-7.428-5.428-12.857t-12.857-5.428-12.857 5.428-5.428 12.857 5.428 12.857 12.857 5.428 12.857-5.428 5.428-12.857zM512 219.429v182.857q0 15.143-10.714 25.857t-25.857 10.714h-82.286q-16.857 0-63.714 16.857-54.286 19.714-90.572 19.714-40.572 0-65.714-22.143t-24.857-62.143l0.286-1.428q-17.429-21.714-17.429-50.857 0-6.286 0.857-12.286-9.428-16.286-10.572-34h-48.285q-30 0-51.572-21.714t-21.572-51.714q0-29.428 21.715-51.143t51.428-21.715h106.857q-6.286-17.143-6.286-36.572 0-34.857 23.285-54t59-19.143q10.857 0 19.857 5t15.714 14.143 11.572 18 10.572 20.572 9.428 17.715q10 15.715 28.572 36.857 0.572 0.857 4 4.857t5.428 6.143 5.857 6.143 6.857 6.429 6.428 5.143 6.714 4 6.143 1.286h82.286q15.143 0 25.857 10.714t10.714 25.857z" fill="#000000" />
</svg>
