<?xml version="1.0" encoding="utf-8"?>
<!-- Generated by IcoMoon.io -->
<!DOCTYPE svg PUBLIC "-//W3C//DTD SVG 1.1//EN" "http://www.w3.org/Graphics/SVG/1.1/DTD/svg11.dtd">
<svg version="1.1" xmlns="http://www.w3.org/2000/svg" xmlns:xlink="http://www.w3.org/1999/xlink" width="439" height="512" viewBox="0 0 439 512">
<g>
</g>
	<path d="M297.143 347.428q0 9.428-6.714 16.143t-16.143 6.714-16.143-6.714-6.714-16.143 6.714-16.143 16.143-6.714 16.143 6.714 6.714 16.143zM370.286 347.428q0 9.428-6.714 16.143t-16.143 6.714-16.143-6.714-6.714-16.143 6.714-16.143 16.143-6.714 16.143 6.714 6.714 16.143zM402.286 393.143v-91.428q0-3.714-2.714-6.428t-6.428-2.714h-347.428q-3.715 0-6.428 2.714t-2.715 6.428v91.428q0 3.714 2.715 6.428t6.428 2.714h347.428q3.714 0 6.428-2.714t2.714-6.428zM50.857 256h337.143l-44.857-137.714q-1.143-3.715-4.572-6.143t-7.428-2.428h-223.429q-4 0-7.428 2.428t-4.572 6.143zM438.857 301.714v91.428q0 18.857-13.428 32.286t-32.286 13.428h-347.428q-18.857 0-32.285-13.428t-13.428-32.286v-91.428q0-7.143 4.572-21.428l56.285-173.143q4.857-15.143 18-24.572t28.857-9.428h223.428q15.714 0 28.857 9.428t18 24.572l56.286 173.143q4.572 14.286 4.572 21.428z" fill="#000000" />
</svg>
