<?xml version="1.0" encoding="utf-8"?>
<!-- Generated by IcoMoon.io -->
<!DOCTYPE svg PUBLIC "-//W3C//DTD SVG 1.1//EN" "http://www.w3.org/Graphics/SVG/1.1/DTD/svg11.dtd">
<svg version="1.1" xmlns="http://www.w3.org/2000/svg" xmlns:xlink="http://www.w3.org/1999/xlink" width="476" height="512" viewBox="0 0 476 512">
<g>
</g>
	<path d="M475.428 253.143q0 47.429-17.143 89.715l-5.714 14-52.857 9.428q-6.286 23.714-25.857 39t-44.714 15.286v9.143q0 4-2.572 6.572t-6.572 2.572h-18.286q-4 0-6.572-2.572t-2.572-6.572v-164.572q0-4 2.572-6.572t6.572-2.572h18.286q4 0 6.572 2.572t2.572 6.572v9.143q20.286 0 37.143 10.143t26.572 27.286l19.428-3.428q8.286-27.143 8.286-55.143 0-42.285-25.143-79.715t-67.572-59.715-90.143-22.285-90.143 22.285-67.572 59.715-25.143 79.714q0 28 8.285 55.143l19.428 3.428q9.715-17.143 26.572-27.286t37.143-10.143v-9.143q0-4 2.571-6.572t6.571-2.572h18.286q4 0 6.572 2.572t2.571 6.572v164.572q0 4-2.571 6.572t-6.572 2.572h-18.286q-4 0-6.572-2.572t-2.571-6.572v-9.143q-25.143 0-44.715-15.286t-25.857-39l-52.857-9.428-5.715-14q-17.143-42.286-17.143-89.714 0-43.143 19.143-83.143t51.143-69.285 76-46.715 91.429-17.428 91.428 17.428 76 46.715 51.143 69.285 19.143 83.143z" fill="#000000" />
</svg>
