<?xml version="1.0" encoding="utf-8"?>
<!-- Generated by IcoMoon.io -->
<!DOCTYPE svg PUBLIC "-//W3C//DTD SVG 1.1//EN" "http://www.w3.org/Graphics/SVG/1.1/DTD/svg11.dtd">
<svg version="1.1" xmlns="http://www.w3.org/2000/svg" xmlns:xlink="http://www.w3.org/1999/xlink" width="512" height="512" viewBox="0 0 512 512">
<g>
</g>
	<path d="M475.428 170.286q0-23.143-6.143-40.857t-15.714-28.143-23.286-17-26.857-8.857-28-2.285-32 7.285-31.572 18.285-24.714 20.572-17.143 17.572q-5.143 6.286-14 6.286t-14-6.286q-6.857-8-17.143-17.572t-24.715-20.572-31.572-18.285-32-7.285-28 2.285-26.857 8.857-23.285 17-15.715 28.143-6.143 40.857q0 48 53.428 101.429l166 160 165.714-159.714q53.714-53.714 53.714-101.714zM512 170.286q0 63.143-65.428 128.571l-178 171.428q-5.143 5.143-12.572 5.143t-12.572-5.143l-178.286-172q-2.857-2.286-7.857-7.428t-15.857-18.714-19.428-27.857-15.286-34.571-6.715-39.428q0-62.857 36.285-98.285t100.285-35.428q17.714 0 36.143 6.143t34.285 16.572 27.286 19.572 21.714 19.428q10.286-10.285 21.714-19.428t27.286-19.572 34.286-16.572 36.143-6.143q64 0 100.286 35.428t36.286 98.285z" fill="#000000" />
</svg>
