<?xml version="1.0" encoding="utf-8"?>
<!-- Generated by IcoMoon.io -->
<!DOCTYPE svg PUBLIC "-//W3C//DTD SVG 1.1//EN" "http://www.w3.org/Graphics/SVG/1.1/DTD/svg11.dtd">
<svg version="1.1" xmlns="http://www.w3.org/2000/svg" xmlns:xlink="http://www.w3.org/1999/xlink" width="439" height="512" viewBox="0 0 439 512">
<g>
</g>
	<path d="M292.286 274.286h90.286q-0.286-0.857-0.714-2.286t-0.714-2.286l-60.572-141.714h-202.286l-60.572 141.714q-0.285 0.572-0.715 2.286t-0.715 2.286h90.285l27.143 54.857h91.428zM438.857 282.857v137.714q0 7.428-5.428 12.857t-12.857 5.428h-402.286q-7.428 0-12.857-5.428t-5.428-12.857v-137.714q0-17.714 7.143-35.143l68-157.714q2.857-7.143 10.428-12t15-4.857h237.714q7.428 0 15 4.857t10.428 12l68 157.714q7.143 17.429 7.143 35.143z" fill="#000000" />
</svg>
