<?xml version="1.0" encoding="utf-8"?>
<!-- Generated by IcoMoon.io -->
<!DOCTYPE svg PUBLIC "-//W3C//DTD SVG 1.1//EN" "http://www.w3.org/Graphics/SVG/1.1/DTD/svg11.dtd">
<svg version="1.1" xmlns="http://www.w3.org/2000/svg" xmlns:xlink="http://www.w3.org/1999/xlink" width="439" height="512" viewBox="0 0 439 512">
<g>
</g>
	<path d="M292.572 393.143v-45.714q0-4-2.572-6.572t-6.572-2.572h-27.428v-146.286q0-4-2.571-6.572t-6.571-2.571h-91.428q-4 0-6.572 2.571t-2.571 6.572v45.714q0 4 2.571 6.572t6.572 2.571h27.428v91.429h-27.428q-4 0-6.572 2.572t-2.571 6.572v45.714q0 4 2.571 6.572t6.572 2.572h128q4 0 6.572-2.572t2.572-6.572zM256 137.143v-45.715q0-4-2.571-6.572t-6.571-2.572h-54.857q-4 0-6.571 2.572t-2.571 6.572v45.715q0 4 2.571 6.571t6.572 2.571h54.857q4 0 6.571-2.571t2.572-6.572zM438.857 256q0 59.714-29.428 110.143t-79.857 79.857-110.143 29.428-110.143-29.428-79.857-79.857-29.428-110.143 29.428-110.143 79.857-79.857 110.143-29.428 110.143 29.428 79.857 79.857 29.428 110.143z" fill="#000000" />
</svg>
