<?xml version="1.0" encoding="utf-8"?>
<!-- Generated by IcoMoon.io -->
<!DOCTYPE svg PUBLIC "-//W3C//DTD SVG 1.1//EN" "http://www.w3.org/Graphics/SVG/1.1/DTD/svg11.dtd">
<svg version="1.1" xmlns="http://www.w3.org/2000/svg" xmlns:xlink="http://www.w3.org/1999/xlink" width="183" height="512" viewBox="0 0 183 512">
<g>
</g>
	<path d="M182.857 384v36.572q0 7.428-5.429 12.857t-12.857 5.428h-146.286q-7.428 0-12.857-5.428t-5.428-12.857v-36.572q0-7.428 5.428-12.857t12.857-5.428h18.285v-109.714h-18.285q-7.428 0-12.857-5.428t-5.428-12.857v-36.571q0-7.428 5.428-12.857t12.857-5.429h109.715q7.428 0 12.857 5.428t5.429 12.857v164.571h18.286q7.428 0 12.857 5.428t5.429 12.857zM146.286 54.857v54.857q0 7.428-5.428 12.857t-12.857 5.428h-73.143q-7.428 0-12.857-5.428t-5.428-12.857v-54.857q0-7.428 5.428-12.857t12.857-5.428h73.143q7.429 0 12.857 5.428t5.428 12.857z" fill="#000000" />
</svg>
