<?xml version="1.0" encoding="utf-8"?>
<!-- Generated by IcoMoon.io -->
<!DOCTYPE svg PUBLIC "-//W3C//DTD SVG 1.1//EN" "http://www.w3.org/Graphics/SVG/1.1/DTD/svg11.dtd">
<svg version="1.1" xmlns="http://www.w3.org/2000/svg" xmlns:xlink="http://www.w3.org/1999/xlink" width="439" height="512" viewBox="0 0 439 512">
<g>
</g>
	<path d="M389.143 407.428v-185.143h-38.572q5.714 18 5.714 37.429 0 36-18.286 66.428t-49.714 48.143-68.572 17.714q-56.286 0-96.285-38.714t-40-93.572q0-19.428 5.715-37.428h-40.285v185.143q0 7.428 5 12.428t12.428 5h305.428q7.143 0 12.286-5t5.143-12.428zM308 255.143q0-35.429-25.857-60.429t-62.428-25q-36.286 0-62.143 25t-25.857 60.428 25.857 60.428 62.143 25q36.572 0 62.428-25t25.857-60.428zM389.143 152.286v-47.143q0-8-5.714-13.857t-14-5.857h-49.714q-8.286 0-14 5.857t-5.714 13.857v47.143q0 8.286 5.714 14t14 5.714h49.714q8.286 0 14-5.714t5.714-14zM438.857 92.857v326.286q0 23.143-16.572 39.714t-39.714 16.572h-326.286q-23.143 0-39.715-16.572t-16.572-39.714v-326.286q0-23.143 16.572-39.715t39.715-16.572h326.286q23.143 0 39.714 16.572t16.572 39.715z" fill="#000000" />
</svg>
