<?xml version="1.0" encoding="utf-8"?>
<!-- Generated by IcoMoon.io -->
<!DOCTYPE svg PUBLIC "-//W3C//DTD SVG 1.1//EN" "http://www.w3.org/Graphics/SVG/1.1/DTD/svg11.dtd">
<svg version="1.1" xmlns="http://www.w3.org/2000/svg" xmlns:xlink="http://www.w3.org/1999/xlink" width="293" height="512" viewBox="0 0 293 512">
<g>
</g>
	<path d="M0 474.857l4.857-24.286q1.143-0.286 22-5.714 21.715-5.428 33.143-11.143 8.285-10.572 11.715-28.857l7.715-39.714 16-76.572 3.428-18.286q2.285-12.572 4.857-24.143t4.572-19.143 3.572-13.286 2.572-8.714 1-3.286l8.285-44.857 4.572-18 6.286-38.572 2.286-14.285v-10.857q-11.715-6.285-41.143-8-8-0.572-10.857-1.143l5.428-29.428 90.572 4q11.143 0.572 20.857 0.572 18.857 0 61.143-2.572 9.428-0.572 19.428-1.285t10.286-0.715q-0.572 5.428-1.714 10.857-2 8.285-3.714 14.572-15.714 5.428-31.143 8.857-18.285 4.572-28.857 8.857-3.429 8.857-6.857 25.143-2.571 12.572-3.714 23.429-12.571 56.857-18.857 87.428l-17.428 88.857-10.857 45.143-12.286 67.143-3.429 12.857q-0.571 2 0.286 7.714 18.286 4.286 34 6 10.286 1.428 18.857 2.857-0.286 8.286-2 16.572-2 8.857-2.571 11.714-5.143 0-6.572 0.286-6.857 0.572-12 0.572-2.571 0-8-0.857-5.428-1.143-41.428-4.857l-56.572-0.572q-11.715-0.286-49.715 3.143-21.143 2-28 2.572z" fill="#000000" />
</svg>
