<?xml version="1.0" encoding="utf-8"?>
<!-- Generated by IcoMoon.io -->
<!DOCTYPE svg PUBLIC "-//W3C//DTD SVG 1.1//EN" "http://www.w3.org/Graphics/SVG/1.1/DTD/svg11.dtd">
<svg version="1.1" xmlns="http://www.w3.org/2000/svg" xmlns:xlink="http://www.w3.org/1999/xlink" width="512" height="512" viewBox="0 0 512 512">
<g>
</g>
	<path d="M237.714 146.286q0-22.857-16-38.857t-38.857-16-38.857 16-16 38.857q0 12 5.428 23.714-11.715-5.428-23.715-5.428-22.857 0-38.857 16t-16 38.857 16 38.857 38.857 16 38.857-16 16-38.857q0-12-5.428-23.715 11.714 5.428 23.714 5.428t38.857-16 16-38.857zM480.857 347.428q0 4.857-14 18.857t-18.857 14q-2.572 0-8.143-4.572t-10.428-9.428-11-11.428-7-7.428l-27.428 27.428 62.857 62.857q8 8 8 19.428 0 12-11.143 23.143t-23.143 11.143q-11.428 0-19.428-8l-191.714-191.714q-50.286 37.428-104.285 37.428-46.572 0-75.857-29.286t-29.285-75.857q0-45.715 27.143-89.429t70.857-70.857 89.428-27.143q46.572 0 75.857 29.285t29.286 75.857q0 54-37.428 104.286l101.428 101.428 27.428-27.428q-0.857-0.857-7.428-7t-11.428-11-9.428-10.428-4.572-8.143q0-4.857 14-18.857t18.857-14q3.714 0 6.572 2.857 1.714 1.714 13.143 12.715t23.428 22.714 24.714 24.572 20.857 22.286 8.143 11.714z" fill="#000000" />
</svg>
