<?xml version="1.0" encoding="utf-8"?>
<!-- Generated by IcoMoon.io -->
<!DOCTYPE svg PUBLIC "-//W3C//DTD SVG 1.1//EN" "http://www.w3.org/Graphics/SVG/1.1/DTD/svg11.dtd">
<svg version="1.1" xmlns="http://www.w3.org/2000/svg" xmlns:xlink="http://www.w3.org/1999/xlink" width="549" height="512" viewBox="0 0 549 512">
<g>
</g>
	<path d="M109.715 333.714v27.428q0 4.572-4.572 4.572h-27.428q-4.572 0-4.572-4.572v-27.428q0-4.572 4.572-4.572h27.428q4.572 0 4.572 4.572zM146.286 260.572v27.428q0 4.572-4.572 4.572h-64q-4.572 0-4.572-4.572v-27.428q0-4.572 4.572-4.572h64q4.572 0 4.572 4.572zM109.715 187.429v27.429q0 4.572-4.572 4.572h-27.428q-4.572 0-4.572-4.572v-27.428q0-4.572 4.572-4.572h27.428q4.572 0 4.572 4.572zM402.286 333.714v27.428q0 4.572-4.572 4.572h-246.857q-4.571 0-4.571-4.572v-27.428q0-4.572 4.572-4.572h246.857q4.572 0 4.572 4.572zM219.429 260.572v27.428q0 4.572-4.571 4.572h-27.428q-4.572 0-4.572-4.572v-27.428q0-4.572 4.572-4.572h27.428q4.572 0 4.572 4.572zM182.857 187.429v27.429q0 4.572-4.571 4.572h-27.428q-4.572 0-4.572-4.572v-27.428q0-4.572 4.572-4.572h27.428q4.572 0 4.572 4.572zM292.572 260.572v27.428q0 4.572-4.572 4.572h-27.428q-4.572 0-4.572-4.572v-27.428q0-4.572 4.572-4.572h27.428q4.572 0 4.572 4.572zM256 187.429v27.429q0 4.572-4.572 4.572h-27.428q-4.572 0-4.572-4.572v-27.428q0-4.572 4.572-4.572h27.428q4.572 0 4.572 4.572zM365.714 260.572v27.428q0 4.572-4.572 4.572h-27.428q-4.572 0-4.572-4.572v-27.428q0-4.572 4.572-4.572h27.428q4.572 0 4.572 4.572zM475.428 333.714v27.428q0 4.572-4.572 4.572h-27.428q-4.572 0-4.572-4.572v-27.428q0-4.572 4.572-4.572h27.428q4.572 0 4.572 4.572zM329.143 187.429v27.429q0 4.572-4.572 4.572h-27.428q-4.572 0-4.572-4.572v-27.428q0-4.572 4.572-4.572h27.428q4.572 0 4.572 4.572zM402.286 187.429v27.429q0 4.572-4.572 4.572h-27.428q-4.572 0-4.572-4.572v-27.428q0-4.572 4.572-4.572h27.428q4.572 0 4.572 4.572zM475.428 187.429v100.571q0 4.572-4.572 4.572h-64q-4.572 0-4.572-4.572v-27.428q0-4.572 4.572-4.572h32v-68.572q0-4.572 4.572-4.572h27.428q4.572 0 4.572 4.572zM512 402.286v-256h-475.428v256h475.428zM548.572 146.286v256q0 15.143-10.715 25.857t-25.857 10.714h-475.428q-15.143 0-25.857-10.714t-10.714-25.857v-256q0-15.143 10.714-25.857t25.857-10.715h475.428q15.143 0 25.857 10.715t10.715 25.857z" fill="#000000" />
</svg>
