<?xml version="1.0" encoding="utf-8"?>
<!-- Generated by IcoMoon.io -->
<!DOCTYPE svg PUBLIC "-//W3C//DTD SVG 1.1//EN" "http://www.w3.org/Graphics/SVG/1.1/DTD/svg11.dtd">
<svg version="1.1" xmlns="http://www.w3.org/2000/svg" xmlns:xlink="http://www.w3.org/1999/xlink" width="549" height="512" viewBox="0 0 549 512">
<g>
</g>
	<path d="M118.857 365.714q-18.857 0-32.285-13.428t-13.428-32.286v-201.143q0-18.857 13.428-32.285t32.285-13.428h310.857q18.857 0 32.286 13.428t13.428 32.285v201.143q0 18.857-13.428 32.286t-32.286 13.428h-310.857zM109.715 118.857v201.143q0 3.714 2.715 6.428t6.428 2.714h310.857q3.714 0 6.428-2.714t2.714-6.428v-201.143q0-3.715-2.714-6.428t-6.428-2.715h-310.857q-3.715 0-6.428 2.715t-2.715 6.428zM502.857 384h45.714v27.428q0 11.428-13.428 19.428t-32.286 8h-457.143q-18.857 0-32.285-8t-13.428-19.428v-27.428h502.857zM297.143 411.428q4.572 0 4.572-4.572t-4.572-4.572h-45.714q-4.572 0-4.572 4.572t4.572 4.572h45.714z" fill="#000000" />
</svg>
