<?xml version="1.0" encoding="utf-8"?>
<!-- Generated by IcoMoon.io -->
<!DOCTYPE svg PUBLIC "-//W3C//DTD SVG 1.1//EN" "http://www.w3.org/Graphics/SVG/1.1/DTD/svg11.dtd">
<svg version="1.1" xmlns="http://www.w3.org/2000/svg" xmlns:xlink="http://www.w3.org/1999/xlink" width="512" height="512" viewBox="0 0 512 512">
<g>
</g>
	<path d="M365.714 201.143q0-7.429-5.428-12.857t-12.857-5.428q-49.143 0-90.857 14.143t-74.143 38.285-67.285 62.714q-5.428 6-5.428 12.857 0 7.428 5.428 12.857t12.857 5.428q6.857 0 12.857-5.428 7.714-6.857 21.143-20.286t19.143-18.857q39.143-35.428 76.715-50.286t89.572-14.857q7.428 0 12.857-5.429t5.428-12.857zM512 144.571q0 27.143-5.714 55.143-13.143 64-52.714 109.428t-102.143 76.572q-61.143 30.857-125.143 30.857-42.285 0-81.715-13.428-4.286-1.428-25.143-12t-27.428-10.572q-4.572 0-11.285 9.143t-12.857 20-15 20-17.143 9.143q-8.572 0-14.572-3.143t-8.857-6.857-7.715-12q-0.571-1.143-1.715-3.143t-1.571-2.857-0.857-2.714-0.428-3.857q0-10 8.857-21t19.428-18.714 19.428-16 8.857-13.714q0-1.143-4-10.857t-4.572-12.572q-2.572-14.572-2.572-29.714 0-32.857 12.428-62.857t34-52.715 48.715-39.715 58.286-27.285q15.714-5.143 41.428-7.285t51.286-2.572 51-1.715 46.714-6.857 32.428-16.143l8.428-8.428t8.428-8 7.714-5.715 10.428-4.572 12.428-1.285q11.143 0 20.143 13.143t13.572 32 6.857 35.428 2.286 27.428z" fill="#000000" />
</svg>
