<?xml version="1.0" encoding="utf-8"?>
<!-- Generated by IcoMoon.io -->
<!DOCTYPE svg PUBLIC "-//W3C//DTD SVG 1.1//EN" "http://www.w3.org/Graphics/SVG/1.1/DTD/svg11.dtd">
<svg version="1.1" xmlns="http://www.w3.org/2000/svg" xmlns:xlink="http://www.w3.org/1999/xlink" width="512" height="512" viewBox="0 0 512 512">
<g>
</g>
	<path d="M506 438.857q0 15.143-10.572 25.714l-30.572 30.857q-11.143 10.572-26 10.572-15.143 0-25.714-10.572l-103.714-104q-10.857-10.286-10.857-25.714 0-15.143 12.286-27.428l-73.143-73.143-36 36q-4 4-9.714 4t-9.714-4q0.571 0.572 3.571 3.428t3.571 3.714 2.857 3.286 2.857 3.857 1.714 3.857 1.571 4.714 0.429 5.143q0 10.857-8 19.428-0.857 0.857-4.714 5.143t-5.429 5.857-5.286 4.714-6.286 4.428-6.286 2.572-7.428 1.286q-11.428 0-19.428-8l-116.572-116.572q-8-8-8-19.428 0-3.714 1.286-7.428t2.572-6.286 4.428-6.286 4.715-5.286 5.857-5.428 5.143-4.714q8.572-8 19.428-8 2.857 0 5.143 0.429t4.715 1.571 3.857 1.714 3.857 2.857 3.285 2.857 3.715 3.571 3.428 3.571q-4-4-4-9.714t4-9.714l99.429-99.428q4-4 9.714-4t9.714 4q-0.571-0.572-3.571-3.428t-3.571-3.715-2.857-3.285-2.857-3.857-1.714-3.857-1.571-4.715-0.429-5.143q0-10.857 8-19.428 0.857-0.857 4.714-5.143t5.428-5.857 5.286-4.715 6.286-4.428 6.286-2.572 7.428-1.286q11.428 0 19.428 8l116.572 116.571q8 8 8 19.428 0 3.714-1.286 7.428t-2.572 6.286-4.428 6.286-4.714 5.286-5.857 5.428-5.143 4.714q-8.572 8-19.428 8-2.857 0-5.143-0.429t-4.714-1.571-3.857-1.714-3.857-2.857-3.286-2.857-3.714-3.571-3.428-3.571q4 4 4 9.714t-4 9.714l-36 36 73.143 73.143q12.286-12.286 27.428-12.286 14.857 0 26 10.572l103.714 103.714q10.572 11.143 10.572 26z" fill="#000000" />
</svg>
