<?xml version="1.0" encoding="utf-8"?>
<!-- Generated by IcoMoon.io -->
<!DOCTYPE svg PUBLIC "-//W3C//DTD SVG 1.1//EN" "http://www.w3.org/Graphics/SVG/1.1/DTD/svg11.dtd">
<svg version="1.1" xmlns="http://www.w3.org/2000/svg" xmlns:xlink="http://www.w3.org/1999/xlink" width="439" height="512" viewBox="0 0 439 512">
<g>
</g>
	<path d="M402 236q0-12.572-2-32.428t-5.143-27.572q-3.428-8.572-4.857-12.572t-2.572-10.428-1.143-13.857q0-6.571 1.428-19.572t1.428-19.285q0-10.572-2.857-15.715-1.143-0.285-3.714-0.285-5.428 0-16.572 1.285t-16.857 1.285q-17.143 0-50.286-6.857t-50-6.857q-12.286 0-27 3.285t-24.286 6.715-25.572 9.715q-39.143 15.428-57.715 29.428-27.428 20.857-45.572 54.143t-25.143 67.429-7 71q0 11.428 3.572 34.286t3.572 34.572q0 6.572-3.143 19t-3.143 18.714 3.428 10.428 9.715 4.143q6.857 0 20.715-3.143t21-3.143q16.285 0 48.428 4.428t48.428 4.428q51.714 0 81.143-10.286 36.857-12.857 67.286-43.572t47.428-70.143 17-78.572zM438.572 235.429q0 47.143-20 93.571t-56 82.286-80.286 51.572q-35.428 12.572-93.143 12.572-16.285 0-48.571-4.143t-48.285-4.143q-6.857 0-20.715 4.143t-21 4.143q-20.857 0-35.285-15.857t-14.428-36.714q0-6.857 3.143-19.428t3.143-19.143q0-11.428-3.571-34.428t-3.571-34.714q0-31.714 5.143-62.143t15.572-59.857 28.715-55.428 42.857-44.572q22.285-16.857 66.285-34.285 55.428-22.285 90.286-22.285 17.143 0 50.143 6.857t49.572 6.857q5.428 0 16.286-1.428t16.572-1.428q23.143 0 33.714 14.428t10.572 38.428q0 6.572-1.428 19.428t-1.428 19.428q0 2.857 0.286 5.286t0.857 4.857 1.143 3.857 1.857 4.572 1.857 4.857q4.572 11.429 7.143 33.857t2.572 39z" fill="#000000" />
</svg>
