<?xml version="1.0" encoding="utf-8"?>
<!-- Generated by IcoMoon.io -->
<!DOCTYPE svg PUBLIC "-//W3C//DTD SVG 1.1//EN" "http://www.w3.org/Graphics/SVG/1.1/DTD/svg11.dtd">
<svg version="1.1" xmlns="http://www.w3.org/2000/svg" xmlns:xlink="http://www.w3.org/1999/xlink" width="293" height="512" viewBox="0 0 293 512">
<g>
</g>
	<path d="M210.286 164.571q0 3.714-2.714 6.429t-6.428 2.714-6.428-2.714-2.714-6.428q0-13.143-15.428-20.286t-30.286-7.143q-3.714 0-6.428-2.714t-2.714-6.429 2.714-6.428 6.428-2.715q14.286 0 28.428 4.572t24.857 15.428 10.714 25.715zM256 164.571q0-20.571-9.857-38.285t-25.715-29-35.143-17.715-39-6.428-39 6.428-35.143 17.715-25.715 29-9.857 38.285q0 28.857 19.428 51.429 2.857 3.143 8.715 9.428t8.715 9.428q36.572 43.714 40.285 85.143h65.143q3.714-41.428 40.286-85.143 2.857-3.143 8.714-9.429t8.714-9.428q19.428-22.572 19.428-51.428zM292.572 164.571q0 44.285-29.428 76.571-12.857 14-21.286 24.857t-17 27.286-9.714 30.714q13.428 8 13.428 23.428 0 10.572-7.143 18.286 7.143 7.714 7.143 18.286 0 14.857-12.857 23.143 3.714 6.572 3.714 13.428 0 13.143-9 20.286t-22.143 7.143q-5.714 12.572-17.143 20t-24.857 7.428-24.857-7.428-17.143-20q-13.143 0-22.143-7.143t-9-20.286q0-6.857 3.715-13.428-12.857-8.286-12.857-23.143 0-10.572 7.143-18.286-7.143-7.714-7.143-18.286 0-15.428 13.428-23.428-1.143-14.286-9.715-30.714t-17-27.286-21.285-24.857q-29.428-32.285-29.428-76.571 0-28.286 12.714-52.715t33.428-40.572 46.857-25.428 53.285-9.285 53.286 9.285 46.857 25.428 33.429 40.572 12.714 52.715z" fill="#000000" />
</svg>
