<?xml version="1.0" encoding="utf-8"?>
<!-- Generated by IcoMoon.io -->
<!DOCTYPE svg PUBLIC "-//W3C//DTD SVG 1.1//EN" "http://www.w3.org/Graphics/SVG/1.1/DTD/svg11.dtd">
<svg version="1.1" xmlns="http://www.w3.org/2000/svg" xmlns:xlink="http://www.w3.org/1999/xlink" width="439" height="512" viewBox="0 0 439 512">
<g>
</g>
	<path d="M99.715 178.571v283.143h-94.285v-283.143h94.285zM105.715 91.143q0.285 20.857-14.428 34.857t-38.715 14h-0.572q-23.428 0-37.715-14t-14.286-34.857q0-21.143 14.714-35t38.428-13.857 38 13.857 14.572 35zM438.857 299.428v162.286h-94v-151.429q0-30-11.572-47t-36.143-17q-18 0-30.143 9.857t-18.143 24.428q-3.143 8.572-3.143 23.143v158h-94q0.571-114 0.571-184.857t-0.286-84.572l-0.286-13.714h94v41.143h-0.571q5.714-9.143 11.714-16t16.143-14.857 24.857-12.428 32.714-4.428q48.857 0 78.572 32.428t29.714 95z" fill="#000000" />
</svg>
