<?xml version="1.0" encoding="utf-8"?>
<!-- Generated by IcoMoon.io -->
<!DOCTYPE svg PUBLIC "-//W3C//DTD SVG 1.1//EN" "http://www.w3.org/Graphics/SVG/1.1/DTD/svg11.dtd">
<svg version="1.1" xmlns="http://www.w3.org/2000/svg" xmlns:xlink="http://www.w3.org/1999/xlink" width="512" height="512" viewBox="0 0 512 512">
<g>
</g>
	<path d="M108.857 462.857q0 22.857-15.572 36t-38.715 13.143q-30.285 0-49.143-18.857l16.285-25.143q14 12.857 30.285 12.857 8.285 0 14.428-4.143t6.143-12.143q0-18.286-30-16l-7.428-16q2.285-2.857 9.285-12.428t12.143-15.428 10.572-11v-0.286q-4.572 0-13.857 0.286t-13.857 0.286v15.143h-30.285v-43.428h95.143v25.143l-27.143 32.857q14.572 3.428 23.143 14t8.572 25.143zM109.428 283.714v45.428h-103.428q-1.715-10.286-1.715-15.428 0-14.572 6.715-26.572t16.143-19.428 18.857-13.572 16.143-12.428 6.715-12.857q0-7.143-4.143-11t-11.285-3.857q-13.143 0-23.143 16.572l-24.285-16.857q6.857-14.571 20.428-22.715t30.143-8.143q20.857 0 35.143 11.857t14.285 32.143q0 14.286-9.715 26.143t-21.428 18.428-21.572 14.428-10.143 15h36.285v-17.143h30zM512 374.857v54.857q0 3.714-2.714 6.428t-6.428 2.714h-347.428q-3.714 0-6.428-2.714t-2.714-6.428v-54.857q0-4 2.571-6.572t6.571-2.572h347.428q3.714 0 6.428 2.714t2.714 6.428zM109.715 118v28.286h-95.715v-28.285h30.572q0-11.715 0.143-34.857t0.143-34.572v-3.428h-0.572q-2.285 4.857-14.285 15.428l-20.285-21.715 38.857-36.285h30.285v115.428h30.857zM512 228.571v54.857q0 3.714-2.714 6.428t-6.428 2.714h-347.428q-3.714 0-6.428-2.714t-2.714-6.428v-54.857q0-4 2.571-6.571t6.571-2.571h347.428q3.714 0 6.428 2.714t2.714 6.429zM512 82.285v54.857q0 3.714-2.714 6.428t-6.428 2.714h-347.428q-3.714 0-6.428-2.714t-2.714-6.428v-54.857q0-3.715 2.714-6.428t6.428-2.715h347.428q3.714 0 6.428 2.715t2.714 6.428z" fill="#000000" />
</svg>
