<?xml version="1.0" encoding="utf-8"?>
<!-- Generated by IcoMoon.io -->
<!DOCTYPE svg PUBLIC "-//W3C//DTD SVG 1.1//EN" "http://www.w3.org/Graphics/SVG/1.1/DTD/svg11.dtd">
<svg version="1.1" xmlns="http://www.w3.org/2000/svg" xmlns:xlink="http://www.w3.org/1999/xlink" width="512" height="512" viewBox="0 0 512 512">
<g>
</g>
	<path d="M73.143 374.857v54.857q0 3.714-2.715 6.428t-6.428 2.714h-54.857q-3.715 0-6.428-2.714t-2.715-6.428v-54.857q0-3.714 2.715-6.428t6.428-2.714h54.857q3.715 0 6.428 2.714t2.715 6.428zM73.143 265.143v54.857q0 3.714-2.715 6.428t-6.428 2.714h-54.857q-3.715 0-6.428-2.714t-2.715-6.428v-54.857q0-3.714 2.715-6.428t6.428-2.714h54.857q3.715 0 6.428 2.714t2.715 6.428zM73.143 155.429v54.857q0 3.714-2.715 6.428t-6.428 2.714h-54.857q-3.715 0-6.428-2.714t-2.715-6.428v-54.857q0-3.714 2.715-6.429t6.428-2.714h54.857q3.715 0 6.428 2.714t2.715 6.428zM512 374.857v54.857q0 3.714-2.714 6.428t-6.428 2.714h-384q-3.715 0-6.428-2.714t-2.715-6.428v-54.857q0-3.714 2.715-6.428t6.428-2.714h384q3.714 0 6.428 2.714t2.714 6.428zM73.143 45.715v54.857q0 3.715-2.715 6.428t-6.428 2.715h-54.857q-3.715 0-6.428-2.715t-2.715-6.428v-54.857q0-3.715 2.715-6.428t6.428-2.715h54.857q3.715 0 6.428 2.715t2.715 6.428zM512 265.143v54.857q0 3.714-2.714 6.428t-6.428 2.714h-384q-3.715 0-6.428-2.714t-2.715-6.428v-54.857q0-3.714 2.715-6.428t6.428-2.714h384q3.714 0 6.428 2.714t2.714 6.428zM512 155.429v54.857q0 3.714-2.714 6.428t-6.428 2.714h-384q-3.715 0-6.428-2.714t-2.715-6.428v-54.857q0-3.714 2.715-6.429t6.428-2.714h384q3.714 0 6.428 2.714t2.714 6.428zM512 45.715v54.857q0 3.715-2.714 6.428t-6.428 2.715h-384q-3.715 0-6.428-2.715t-2.715-6.428v-54.857q0-3.715 2.715-6.428t6.428-2.715h384q3.714 0 6.428 2.715t2.714 6.428z" fill="#000000" />
</svg>
