<?xml version="1.0" encoding="utf-8"?>
<!-- Generated by IcoMoon.io -->
<!DOCTYPE svg PUBLIC "-//W3C//DTD SVG 1.1//EN" "http://www.w3.org/Graphics/SVG/1.1/DTD/svg11.dtd">
<svg version="1.1" xmlns="http://www.w3.org/2000/svg" xmlns:xlink="http://www.w3.org/1999/xlink" width="512" height="512" viewBox="0 0 512 512">
<g>
</g>
	<path d="M109.715 402.286q0 22.857-16 38.857t-38.857 16-38.857-16-16-38.857 16-38.857 38.857-16 38.857 16 16 38.857zM109.715 256q0 22.857-16 38.857t-38.857 16-38.857-16-16-38.857 16-38.857 38.857-16 38.857 16 16 38.857zM512 374.857v54.857q0 3.714-2.714 6.428t-6.428 2.714h-347.428q-3.714 0-6.428-2.714t-2.714-6.428v-54.857q0-3.714 2.714-6.428t6.428-2.714h347.428q3.714 0 6.428 2.714t2.714 6.428zM109.715 109.715q0 22.857-16 38.857t-38.857 16-38.857-16-16-38.857 16-38.857 38.857-16 38.857 16 16 38.857zM512 228.571v54.857q0 3.714-2.714 6.428t-6.428 2.714h-347.428q-3.714 0-6.428-2.714t-2.714-6.428v-54.857q0-3.714 2.714-6.429t6.428-2.714h347.428q3.714 0 6.428 2.714t2.714 6.428zM512 82.285v54.857q0 3.714-2.714 6.428t-6.428 2.714h-347.428q-3.714 0-6.428-2.714t-2.714-6.428v-54.857q0-3.715 2.714-6.428t6.428-2.715h347.428q3.714 0 6.428 2.715t2.714 6.428z" fill="#000000" />
</svg>
