<?xml version="1.0" encoding="utf-8"?>
<!-- Generated by IcoMoon.io -->
<!DOCTYPE svg PUBLIC "-//W3C//DTD SVG 1.1//EN" "http://www.w3.org/Graphics/SVG/1.1/DTD/svg11.dtd">
<svg version="1.1" xmlns="http://www.w3.org/2000/svg" xmlns:xlink="http://www.w3.org/1999/xlink" width="329" height="512" viewBox="0 0 329 512">
<g>
</g>
	<path d="M91.428 219.429h146.286v-54.857q0-30.286-21.428-51.715t-51.714-21.428-51.715 21.428-21.428 51.715v54.857zM329.143 246.857v164.571q0 11.428-8 19.428t-19.428 8h-274.286q-11.428 0-19.428-8t-8-19.428v-164.571q0-11.429 8-19.429t19.428-8h9.143v-54.857q0-52.572 37.715-90.285t90.285-37.715 90.285 37.715 37.714 90.285v54.857h9.143q11.428 0 19.428 8t8 19.428z" fill="#000000" />
</svg>
