<?xml version="1.0" encoding="utf-8"?>
<!-- Generated by IcoMoon.io -->
<!DOCTYPE svg PUBLIC "-//W3C//DTD SVG 1.1//EN" "http://www.w3.org/Graphics/SVG/1.1/DTD/svg11.dtd">
<svg version="1.1" xmlns="http://www.w3.org/2000/svg" xmlns:xlink="http://www.w3.org/1999/xlink" width="476" height="512" viewBox="0 0 476 512">
<g>
</g>
	<path d="M340 166l83.714-83.715-30.572-30.572-83.714 83.714zM467.714 82.285q0 7.715-5.143 12.857l-367.428 367.428q-5.143 5.143-12.857 5.143t-12.857-5.143l-56.572-56.572q-5.143-5.143-5.143-12.857t5.143-12.857l367.428-367.428q5.143-5.143 12.857-5.143t12.857 5.143l56.572 56.572q5.143 5.143 5.143 12.857zM81.715 28l28 8.572-28 8.572-8.572 28-8.572-28-28-8.572 28-8.572 8.572-28zM181.714 74.285l56 17.143-56 17.143-17.143 56-17.143-56-56-17.143 56-17.143 17.143-56zM447.428 210.857l28 8.571-28 8.572-8.572 28-8.572-28-28-8.572 28-8.572 8.572-28zM264.572 28l28 8.572-28 8.572-8.572 28-8.572-28-28-8.572 28-8.572 8.572-28z" fill="#000000" />
</svg>
