<?xml version="1.0" encoding="utf-8"?>
<!-- Generated by IcoMoon.io -->
<!DOCTYPE svg PUBLIC "-//W3C//DTD SVG 1.1//EN" "http://www.w3.org/Graphics/SVG/1.1/DTD/svg11.dtd">
<svg version="1.1" xmlns="http://www.w3.org/2000/svg" xmlns:xlink="http://www.w3.org/1999/xlink" width="293" height="512" viewBox="0 0 293 512">
<g>
</g>
	<path d="M292.572 201.143v118.857q0 11.428-8 19.428t-19.428 8-19.428-8-8-19.428v-100.572h-18.286v260.572q0 13.143-9.428 22.572t-22.572 9.428-22.572-9.428-9.428-22.572v-132.572h-18.286v132.572q0 13.143-9.428 22.572t-22.572 9.428-22.572-9.428-9.428-22.572v-260.572h-18.285v100.572q0 11.428-8 19.428t-19.428 8-19.428-8-8-19.428v-118.857q0-22.857 16-38.857t38.857-16h182.857q22.857 0 38.857 16t16 38.857zM210.286 73.143q0 26.572-18.714 45.285t-45.286 18.715-45.285-18.715-18.715-45.285 18.715-45.285 45.285-18.715 45.286 18.715 18.714 45.285z" fill="#000000" />
</svg>
