<?xml version="1.0" encoding="utf-8"?>
<!-- Generated by IcoMoon.io -->
<!DOCTYPE svg PUBLIC "-//W3C//DTD SVG 1.1//EN" "http://www.w3.org/Graphics/SVG/1.1/DTD/svg11.dtd">
<svg version="1.1" xmlns="http://www.w3.org/2000/svg" xmlns:xlink="http://www.w3.org/1999/xlink" width="512" height="512" viewBox="0 0 512 512">
<g>
</g>
	<path d="M365.714 320v-54.857q0-4-2.572-6.572t-6.572-2.572h-64v-64q0-4-2.572-6.572t-6.572-2.571h-54.857q-4 0-6.571 2.571t-2.571 6.572v64h-64q-4 0-6.571 2.572t-2.571 6.572v54.857q0 4 2.571 6.572t6.572 2.572h64v64q0 4 2.571 6.572t6.571 2.572h54.857q4 0 6.572-2.572t2.572-6.572v-64h64q4 0 6.572-2.572t2.572-6.572zM182.857 109.715h146.286v-36.572h-146.286v36.572zM73.143 109.715v365.714h-9.143q-26.285 0-45.143-18.857t-18.857-45.143v-237.714q0-26.286 18.857-45.143t45.143-18.857h9.143zM411.428 109.715v365.714h-310.857v-365.714h45.714v-45.715q0-11.428 8-19.428t19.428-8h164.572q11.428 0 19.428 8t8 19.428v45.715h45.714zM512 173.714v237.714q0 26.286-18.857 45.143t-45.143 18.857h-9.143v-365.714h9.143q26.286 0 45.143 18.857t18.857 45.143z" fill="#000000" />
</svg>
