<?xml version="1.0" encoding="utf-8"?>
<!-- Generated by IcoMoon.io -->
<!DOCTYPE svg PUBLIC "-//W3C//DTD SVG 1.1//EN" "http://www.w3.org/Graphics/SVG/1.1/DTD/svg11.dtd">
<svg version="1.1" xmlns="http://www.w3.org/2000/svg" xmlns:xlink="http://www.w3.org/1999/xlink" width="329" height="512" viewBox="0 0 329 512">
<g>
</g>
	<path d="M329.143 201.143v36.571q0 63.143-42.143 109.857t-104.143 53.572v37.714h73.143q7.428 0 12.857 5.428t5.428 12.857-5.428 12.857-12.857 5.428h-182.857q-7.428 0-12.857-5.428t-5.428-12.857 5.428-12.857 12.857-5.428h73.143v-37.714q-62-6.857-104.143-53.572t-42.143-109.857v-36.571q0-7.428 5.428-12.857t12.857-5.429 12.857 5.428 5.428 12.857v36.571q0 52.857 37.572 90.428t90.428 37.572 90.428-37.572 37.572-90.428v-36.572q0-7.428 5.428-12.857t12.857-5.429 12.857 5.428 5.428 12.857zM256 91.428v146.286q0 37.714-26.857 64.572t-64.571 26.857-64.572-26.857-26.857-64.572v-146.286q0-37.715 26.857-64.572t64.572-26.857 64.572 26.857 26.857 64.572z" fill="#000000" />
</svg>
