<?xml version="1.0" encoding="utf-8"?>
<!-- Generated by IcoMoon.io -->
<!DOCTYPE svg PUBLIC "-//W3C//DTD SVG 1.1//EN" "http://www.w3.org/Graphics/SVG/1.1/DTD/svg11.dtd">
<svg version="1.1" xmlns="http://www.w3.org/2000/svg" xmlns:xlink="http://www.w3.org/1999/xlink" width="403" height="512" viewBox="0 0 403 512">
<g>
</g>
	<path d="M77.428 270l-28.857 28.857q-12-29.428-12-61.143v-36.571q0-7.428 5.428-12.857t12.857-5.429 12.857 5.428 5.428 12.857v36.571q0 15.143 4.285 32.286zM395.714 98l-103.143 103.143v36.571q0 37.714-26.857 64.572t-64.572 26.857q-15.714 0-31.143-5.428l-27.429 27.428q27.714 14.572 58.572 14.572 52.857 0 90.428-37.572t37.572-90.428v-36.572q0-7.428 5.428-12.857t12.857-5.429 12.857 5.428 5.428 12.857v36.571q0 63.143-42.143 109.857t-104.143 53.572v37.714h73.143q7.428 0 12.857 5.428t5.428 12.857-5.428 12.857-12.857 5.428h-182.857q-7.428 0-12.857-5.428t-5.428-12.857 5.428-12.857 12.857-5.428h73.143v-37.714q-35.714-3.714-67.143-23.143l-72.572 72.572q-2.857 2.857-6.572 2.857t-6.572-2.857l-23.428-23.428q-2.857-2.857-2.857-6.572t2.857-6.572l352.572-352.572q2.857-2.857 6.572-2.857t6.572 2.857l23.428 23.428q2.857 2.857 2.857 6.572t-2.857 6.572zM287.143 60.285l-177.429 177.428v-146.286q0-37.715 26.857-64.572t64.572-26.857q29.143 0 52.714 16.857t33.286 43.428z" fill="#000000" />
</svg>
