<?xml version="1.0" encoding="utf-8"?>
<!-- Generated by IcoMoon.io -->
<!DOCTYPE svg PUBLIC "-//W3C//DTD SVG 1.1//EN" "http://www.w3.org/Graphics/SVG/1.1/DTD/svg11.dtd">
<svg version="1.1" xmlns="http://www.w3.org/2000/svg" xmlns:xlink="http://www.w3.org/1999/xlink" width="220" height="512" viewBox="0 0 220 512">
<g>
</g>
	<path d="M132.571 402.286q0-9.428-6.715-16.143t-16.143-6.714-16.143 6.714-6.715 16.143 6.715 16.143 16.143 6.714 16.143-6.714 6.715-16.143zM192 356.572v-201.143q0-3.714-2.714-6.429t-6.428-2.714h-146.286q-3.715 0-6.428 2.714t-2.715 6.428v201.143q0 3.714 2.715 6.428t6.428 2.714h146.286q3.714 0 6.428-2.714t2.714-6.428zM137.143 114.285q0-4.572-4.571-4.572h-45.715q-4.572 0-4.572 4.572t4.572 4.572h45.715q4.572 0 4.572-4.572zM219.429 109.715v292.572q0 14.857-10.857 25.714t-25.714 10.857h-146.286q-14.857 0-25.715-10.857t-10.857-25.714v-292.572q0-14.857 10.857-25.715t25.715-10.857h146.286q14.857 0 25.714 10.857t10.857 25.715z" fill="#000000" />
</svg>
