<?xml version="1.0" encoding="utf-8"?>
<!-- Generated by IcoMoon.io -->
<!DOCTYPE svg PUBLIC "-//W3C//DTD SVG 1.1//EN" "http://www.w3.org/Graphics/SVG/1.1/DTD/svg11.dtd">
<svg version="1.1" xmlns="http://www.w3.org/2000/svg" xmlns:xlink="http://www.w3.org/1999/xlink" width="439" height="512" viewBox="0 0 439 512">
<g>
</g>
	<path d="M360.572 372.286q-15.428 2.572-31.428 2.572-52 0-96.286-25.714t-70-70-25.714-96.286q0-54.857 29.714-102-57.428 17.143-93.857 65.428t-36.428 109.714q0 37.143 14.572 71t39 58.286 58.286 39 71 14.572q41.143 0 78.143-17.572t63-49zM418.572 348q-26.857 58-81 92.714t-118.143 34.714q-44.571 0-85.143-17.428t-70-46.857-46.857-70-17.428-85.143q0-43.714 16.428-83.572t44.572-69 67.285-47 82.857-19.572q12.571-0.572 17.429 11.143 5.143 11.715-4.286 20.572-24.572 22.285-37.572 51.857t-13 62.428q0 42.286 20.857 78t56.571 56.572 78 20.857q33.714 0 65.143-14.572 11.714-5.143 20.572 3.714 4 4 5 9.714t-1.286 10.857z" fill="#000000" />
</svg>
