<?xml version="1.0" encoding="utf-8"?>
<!-- Generated by IcoMoon.io -->
<!DOCTYPE svg PUBLIC "-//W3C//DTD SVG 1.1//EN" "http://www.w3.org/Graphics/SVG/1.1/DTD/svg11.dtd">
<svg version="1.1" xmlns="http://www.w3.org/2000/svg" xmlns:xlink="http://www.w3.org/1999/xlink" width="439" height="512" viewBox="0 0 439 512">
<g>
</g>
	<path d="M438.857 64v320q0 14.286-9.714 25.428t-24.572 17.286-29.572 9.143-27.572 3-27.572-3-29.572-9.143-24.572-17.286-9.714-25.428 9.714-25.428 24.572-17.286 29.572-9.143 27.572-3q30 0 54.857 11.143v-153.429l-219.429 67.715v202.571q0 14.286-9.714 25.428t-24.571 17.286-29.572 9.143-27.572 3-27.572-3-29.572-9.143-24.572-17.286-9.714-25.428 9.714-25.428 24.572-17.286 29.572-9.143 27.572-3q30 0 54.857 11.143v-276.286q0-8.857 5.428-16.143t14-10.143l237.714-73.143q3.428-1.143 8-1.143 11.428 0 19.428 8t8 19.428z" fill="#000000" />
</svg>
