<?xml version="1.0" encoding="utf-8"?>
<!-- Generated by IcoMoon.io -->
<!DOCTYPE svg PUBLIC "-//W3C//DTD SVG 1.1//EN" "http://www.w3.org/Graphics/SVG/1.1/DTD/svg11.dtd">
<svg version="1.1" xmlns="http://www.w3.org/2000/svg" xmlns:xlink="http://www.w3.org/1999/xlink" width="439" height="512" viewBox="0 0 439 512">
<g>
</g>
	<path d="M334.572 232.286l-120.572 120.572q-5.428 5.428-12.857 5.428t-12.857-5.428l-84-84q-5.428-5.428-5.428-12.857t5.428-12.857l29.143-29.143q5.429-5.428 12.857-5.428t12.857 5.428l42 42 78.571-78.572q5.428-5.428 12.857-5.428t12.857 5.428l29.143 29.143q5.428 5.429 5.428 12.857t-5.428 12.857zM374.857 256q0-42.286-20.857-78t-56.572-56.572-78-20.857-78 20.857-56.572 56.572-20.857 78 20.857 78 56.572 56.572 78 20.857 78-20.857 56.572-56.572 20.857-78zM438.857 256q0 59.714-29.428 110.143t-79.857 79.857-110.143 29.428-110.143-29.428-79.857-79.857-29.428-110.143 29.428-110.143 79.857-79.857 110.143-29.428 110.143 29.428 79.857 79.857 29.428 110.143z" fill="#000000" />
</svg>
