<?xml version="1.0" encoding="utf-8"?>
<!-- Generated by IcoMoon.io -->
<!DOCTYPE svg PUBLIC "-//W3C//DTD SVG 1.1//EN" "http://www.w3.org/Graphics/SVG/1.1/DTD/svg11.dtd">
<svg version="1.1" xmlns="http://www.w3.org/2000/svg" xmlns:xlink="http://www.w3.org/1999/xlink" width="403" height="512" viewBox="0 0 403 512">
<g>
</g>
	<path d="M401.143 395.714q0 33.428-22.572 56t-56 22.572q-38.572 0-67.143-28.572l-222-221.714q-32.285-32.857-32.285-77.428 0-45.428 31.428-77.143t76.857-31.715q45.143 0 78 32.285l172.857 173.143q2.857 2.857 2.857 6.286 0 4.571-8.714 13.285t-13.286 8.714q-3.714 0-6.572-2.857l-173.143-173.429q-22.571-22-51.715-22-30.285 0-51.143 21.428t-20.857 51.715q0 30 21.715 51.714l221.714 222q18 18 41.428 18 18.286 0 30.286-12t12-30.286q0-23.428-18-41.428l-166-166q-7.428-6.857-17.143-6.857-8.286 0-13.714 5.429t-5.429 13.714q0 9.143 7.143 16.857l117.143 117.143q2.857 2.857 2.857 6.286 0 4.572-8.857 13.428t-13.428 8.857q-3.429 0-6.286-2.857l-117.143-117.143q-18-17.429-18-42.571 0-23.428 16.285-39.714t39.715-16.286q25.143 0 42.571 18l166 166q28.572 28 28.572 67.143z" fill="#000000" />
</svg>
