<?xml version="1.0" encoding="utf-8"?>
<!-- Generated by IcoMoon.io -->
<!DOCTYPE svg PUBLIC "-//W3C//DTD SVG 1.1//EN" "http://www.w3.org/Graphics/SVG/1.1/DTD/svg11.dtd">
<svg version="1.1" xmlns="http://www.w3.org/2000/svg" xmlns:xlink="http://www.w3.org/1999/xlink" width="512" height="512" viewBox="0 0 512 512">
<g>
</g>
	<path d="M219.429 475.428h256v-182.857h-118.857q-11.428 0-19.428-8t-8-19.428v-118.857h-109.714v329.143zM292.572 64v-18.285q0-3.715-2.714-6.428t-6.428-2.715h-201.143q-3.715 0-6.428 2.715t-2.715 6.428v18.285q0 3.715 2.715 6.428t6.428 2.715h201.143q3.714 0 6.428-2.715t2.714-6.428zM365.714 256h85.428l-85.428-85.428v85.428zM512 292.572v192q0 11.428-8 19.428t-19.428 8h-274.286q-11.428 0-19.428-8t-8-19.428v-45.714h-155.429q-11.428 0-19.428-8t-8-19.428v-384q0-11.428 8-19.428t19.428-8h310.857q11.428 0 19.428 8t8 19.428v93.715q6 3.715 10.286 8l116.572 116.572q8 8 13.714 21.714t5.715 25.143z" fill="#000000" />
</svg>
