<?xml version="1.0" encoding="utf-8"?>
<!-- Generated by IcoMoon.io -->
<!DOCTYPE svg PUBLIC "-//W3C//DTD SVG 1.1//EN" "http://www.w3.org/Graphics/SVG/1.1/DTD/svg11.dtd">
<svg version="1.1" xmlns="http://www.w3.org/2000/svg" xmlns:xlink="http://www.w3.org/1999/xlink" width="403" height="512" viewBox="0 0 403 512">
<g>
</g>
	<path d="M402.286 354.286q0 7.714-2.857 20.143t-6 19.572q-6 14.286-34.857 30.286-26.857 14.572-53.143 14.572-7.714 0-15-1t-16.428-3.572-13.572-4.143-15.857-5.857-14-5.143q-28-10-50-23.714-36.571-22.572-75.572-61.572t-61.572-75.572q-13.715-22-23.715-50-0.857-2.571-5.143-14t-5.857-15.857-4.143-13.571-3.571-16.428-1-15q0-26.285 14.572-53.143 16-28.857 30.285-34.857 7.143-3.143 19.572-6t20.143-2.857q4 0 6 0.857 5.143 1.715 15.143 21.715 3.143 5.428 8.572 15.428t10 18.143 8.857 15.285q0.857 1.143 5 7.143t6.143 10.143 2 8.143q0 5.714-8.143 14.286t-17.715 15.714-17.715 15.143-8.143 13.143q0 2.571 1.428 6.428t2.428 5.857 4 6.857 3.285 5.428q21.715 39.143 49.715 67.143t67.143 49.714q0.571 0.286 5.428 3.286t6.857 4 5.857 2.428 6.428 1.428q5.143 0 13.143-8.143t15.143-17.714 15.714-17.714 14.286-8.143q4 0 8.143 2t10.143 6.143 7.143 5q7.143 4.286 15.286 8.857t18.143 10 15.428 8.572q20 10 21.714 15.143 0.857 2 0.857 6z" fill="#000000" />
</svg>
