<?xml version="1.0" encoding="utf-8"?>
<!-- Generated by IcoMoon.io -->
<!DOCTYPE svg PUBLIC "-//W3C//DTD SVG 1.1//EN" "http://www.w3.org/Graphics/SVG/1.1/DTD/svg11.dtd">
<svg version="1.1" xmlns="http://www.w3.org/2000/svg" xmlns:xlink="http://www.w3.org/1999/xlink" width="439" height="512" viewBox="0 0 439 512">
<g>
</g>
	<path d="M365.714 340.857q0-3.143-0.572-4.572-0.857-2.286-11-8.428t-25.286-14.143l-15.143-8.286q-1.428-0.857-5.428-3.714t-7.143-4.286-6-1.428q-5.143 0-13.428 9.286t-16.286 18.714-12.572 9.428q-2 0-4.714-1t-4.428-1.857-4.857-2.714-4-2.428q-28.285-15.714-48.715-36.143t-36.143-48.714q-0.571-0.857-2.429-4t-2.714-4.857-1.857-4.429-1-4.714q0-3.714 5.857-9.572t12.857-11 12.857-11.286 5.857-10.428q0-2.857-1.429-6t-4.286-7.143-3.714-5.429q-0.857-1.714-4.286-8.143t-7.143-13-7.571-13.572-7.143-11.572-4.714-5.143-4.571-0.572q-13.715 0-28.857 6.285-13.143 6-22.857 27t-9.715 37.285q0 4.572 0.715 9.714t1.428 8.714 2.572 9.428 2.857 8.428 3.572 9.428 3.143 8.572q17.143 46.857 61.857 91.572t91.572 61.857q1.714 0.572 8.572 3.143t9.428 3.572 8.428 2.857 9.428 2.572 8.714 1.428 9.714 0.714q16.286 0 37.286-9.714t27-22.857q6.286-15.143 6.286-28.857zM438.857 118.857v274.286q0 34-24.143 58.143t-58.143 24.143h-274.286q-34 0-58.143-24.143t-24.143-58.143v-274.286q0-34 24.143-58.143t58.143-24.143h274.286q34 0 58.143 24.143t24.143 58.143z" fill="#000000" />
</svg>
