<?xml version="1.0" encoding="utf-8"?>
<!-- Generated by IcoMoon.io -->
<!DOCTYPE svg PUBLIC "-//W3C//DTD SVG 1.1//EN" "http://www.w3.org/Graphics/SVG/1.1/DTD/svg11.dtd">
<svg version="1.1" xmlns="http://www.w3.org/2000/svg" xmlns:xlink="http://www.w3.org/1999/xlink" width="549" height="512" viewBox="0 0 549 512">
<g>
</g>
	<path d="M182.857 164.571q0 22.857-16 38.857t-38.857 16-38.857-16-16-38.857 16-38.857 38.857-16 38.857 16 16 38.857zM475.428 274.286v128h-402.286v-54.857l91.428-91.428 45.714 45.714 146.286-146.286zM502.857 73.143h-457.143q-3.715 0-6.428 2.715t-2.715 6.428v347.428q0 3.714 2.715 6.428t6.428 2.714h457.143q3.714 0 6.428-2.714t2.714-6.428v-347.428q0-3.715-2.714-6.428t-6.428-2.715zM548.572 82.285v347.428q0 18.857-13.428 32.286t-32.286 13.428h-457.143q-18.857 0-32.285-13.428t-13.428-32.286v-347.428q0-18.857 13.428-32.285t32.285-13.428h457.143q18.857 0 32.286 13.428t13.428 32.285z" fill="#000000" />
</svg>
