<?xml version="1.0" encoding="utf-8"?>
<!-- Generated by IcoMoon.io -->
<!DOCTYPE svg PUBLIC "-//W3C//DTD SVG 1.1//EN" "http://www.w3.org/Graphics/SVG/1.1/DTD/svg11.dtd">
<svg version="1.1" xmlns="http://www.w3.org/2000/svg" xmlns:xlink="http://www.w3.org/1999/xlink" width="439" height="512" viewBox="0 0 439 512">
<g>
</g>
	<path d="M438.857 256q0 59.714-29.428 110.143t-79.857 79.857-110.143 29.428q-31.715 0-62.285-9.143 16.857-26.572 22.286-46.857 2.571-9.714 15.428-60.286 5.714 11.143 20.857 19.286t32.571 8.143q34.572 0 61.714-19.572t42-53.857 14.857-77.143q0-32.571-17-61.143t-49.286-46.572-72.857-18q-30 0-56 8.285t-44.143 22-31.143 31.572-19.143 37-6.143 38.286q0 29.714 11.428 52.286t33.428 31.714q8.572 3.428 10.857-5.714 0.572-2 2.286-8.857t2.286-8.572q1.714-6.572-3.143-12.286-14.572-17.428-14.572-43.143 0-43.143 29.857-74.143t78.143-31q43.143 0 67.285 23.428t24.143 60.857q0 48.571-19.572 82.571t-50.143 34q-17.429 0-28-12.428t-6.571-29.857q2.286-10 7.572-26.714t8.572-29.428 3.286-21.572q0-14.286-7.714-23.714t-22-9.428q-17.714 0-30 16.286t-12.286 40.572q0 20.857 7.143 34.857l-28.285 119.428q-4.857 20-3.714 50.572-58.857-26-95.143-80.286t-36.285-120.857q0-59.715 29.428-110.143t79.857-79.857 110.143-29.428 110.143 29.428 79.857 79.857 29.428 110.143z" fill="#000000" />
</svg>
