<?xml version="1.0" encoding="utf-8"?>
<!-- Generated by IcoMoon.io -->
<!DOCTYPE svg PUBLIC "-//W3C//DTD SVG 1.1//EN" "http://www.w3.org/Graphics/SVG/1.1/DTD/svg11.dtd">
<svg version="1.1" xmlns="http://www.w3.org/2000/svg" xmlns:xlink="http://www.w3.org/1999/xlink" width="403" height="512" viewBox="0 0 403 512">
<g>
</g>
	<path d="M393.143 45.715q12.572 14.857 3.428 42.285t-30.857 49.143l-46 46 45.714 198.857q1.428 5.428-3.428 9.428l-36.572 27.428q-2 1.714-5.428 1.714-1.143 0-2-0.286-4.286-0.857-6-4.572l-79.714-145.143-74 74 15.143 55.428q1.429 4.857-2.286 8.857l-27.429 27.428q-2.571 2.572-6.572 2.572h-0.571q-4.286-0.572-6.857-3.714l-54-72-72-54q-3.143-2-3.715-6.572-0.285-3.714 2.571-7.143l27.428-27.714q2.572-2.572 6.572-2.572 1.715 0 2.285 0.286l55.428 15.143 74-74-145.143-79.715q-4-2.285-4.857-6.857-0.572-4.572 2.572-7.715l36.572-36.572q4-3.715 8.572-2.285l190 45.428 45.714-45.715q21.714-21.715 49.143-30.857t42.286 3.428z" fill="#000000" />
</svg>
