<?xml version="1.0" encoding="utf-8"?>
<!-- Generated by IcoMoon.io -->
<!DOCTYPE svg PUBLIC "-//W3C//DTD SVG 1.1//EN" "http://www.w3.org/Graphics/SVG/1.1/DTD/svg11.dtd">
<svg version="1.1" xmlns="http://www.w3.org/2000/svg" xmlns:xlink="http://www.w3.org/1999/xlink" width="439" height="512" viewBox="0 0 439 512">
<g>
</g>
	<path d="M338.286 256q0 10.572-9.143 15.714l-155.429 91.428q-4.286 2.572-9.143 2.572-4.572 0-9.143-2.286-9.143-5.428-9.143-16v-182.857q0-10.571 9.143-16 9.429-5.143 18.285 0.286l155.429 91.429q9.143 5.143 9.143 15.714zM374.857 256q0-42.286-20.857-78t-56.572-56.572-78-20.857-78 20.857-56.572 56.572-20.857 78 20.857 78 56.572 56.572 78 20.857 78-20.857 56.572-56.572 20.857-78zM438.857 256q0 59.714-29.428 110.143t-79.857 79.857-110.143 29.428-110.143-29.428-79.857-79.857-29.428-110.143 29.428-110.143 79.857-79.857 110.143-29.428 110.143 29.428 79.857 79.857 29.428 110.143z" fill="#000000" />
</svg>
