<?xml version="1.0" encoding="utf-8"?>
<!-- Generated by IcoMoon.io -->
<!DOCTYPE svg PUBLIC "-//W3C//DTD SVG 1.1//EN" "http://www.w3.org/Graphics/SVG/1.1/DTD/svg11.dtd">
<svg version="1.1" xmlns="http://www.w3.org/2000/svg" xmlns:xlink="http://www.w3.org/1999/xlink" width="439" height="512" viewBox="0 0 439 512">
<g>
</g>
	<path d="M219.429 36.572q59.715 0 110.143 29.428t79.857 79.857 29.428 110.143-29.428 110.143-79.857 79.857-110.143 29.428-110.143-29.428-79.857-79.857-29.428-110.143 29.428-110.143 79.857-79.857 110.143-29.428zM329.143 271.714q9.143-5.143 9.143-15.714t-9.143-15.714l-155.429-91.428q-8.857-5.428-18.285-0.286-9.143 5.428-9.143 16v182.857q0 10.572 9.143 16 4.572 2.286 9.143 2.286 4.857 0 9.143-2.572z" fill="#000000" />
</svg>
