<?xml version="1.0" encoding="utf-8"?>
<!-- Generated by IcoMoon.io -->
<!DOCTYPE svg PUBLIC "-//W3C//DTD SVG 1.1//EN" "http://www.w3.org/Graphics/SVG/1.1/DTD/svg11.dtd">
<svg version="1.1" xmlns="http://www.w3.org/2000/svg" xmlns:xlink="http://www.w3.org/1999/xlink" width="439" height="512" viewBox="0 0 439 512">
<g>
</g>
	<path d="M365.714 274.286v-36.572q0-7.428-5.428-12.857t-12.857-5.429h-91.428v-91.428q0-7.428-5.428-12.857t-12.857-5.428h-36.571q-7.428 0-12.857 5.428t-5.429 12.857v91.428h-91.428q-7.428 0-12.857 5.428t-5.428 12.857v36.571q0 7.428 5.428 12.857t12.857 5.428h91.428v91.428q0 7.428 5.428 12.857t12.857 5.428h36.571q7.428 0 12.857-5.428t5.429-12.857v-91.428h91.428q7.428 0 12.857-5.428t5.428-12.857zM438.857 118.857v274.286q0 34-24.143 58.143t-58.143 24.143h-274.286q-34 0-58.143-24.143t-24.143-58.143v-274.286q0-34 24.143-58.143t58.143-24.143h274.286q34 0 58.143 24.143t24.143 58.143z" fill="#000000" />
</svg>
