<?xml version="1.0" encoding="utf-8"?>
<!-- Generated by IcoMoon.io -->
<!DOCTYPE svg PUBLIC "-//W3C//DTD SVG 1.1//EN" "http://www.w3.org/Graphics/SVG/1.1/DTD/svg11.dtd">
<svg version="1.1" xmlns="http://www.w3.org/2000/svg" xmlns:xlink="http://www.w3.org/1999/xlink" width="476" height="512" viewBox="0 0 476 512">
<g>
</g>
	<path d="M109.715 438.857h256v-73.143h-256v73.143zM109.715 256h256v-109.714h-45.714q-11.428 0-19.428-8t-8-19.428v-45.715h-182.857v182.857zM438.857 274.286q0-7.428-5.428-12.857t-12.857-5.428-12.857 5.428-5.428 12.857 5.428 12.857 12.857 5.428 12.857-5.428 5.428-12.857zM475.428 274.286v118.857q0 3.714-2.714 6.428t-6.428 2.714h-64v45.714q0 11.428-8 19.428t-19.428 8h-274.286q-11.428 0-19.428-8t-8-19.428v-45.714h-64q-3.715 0-6.428-2.714t-2.715-6.428v-118.857q0-22.572 16.143-38.714t38.715-16.143h18.285v-155.429q0-11.428 8-19.428t19.428-8h192q11.428 0 25.143 5.715t21.714 13.715l43.428 43.428q8 8 13.714 21.715t5.714 25.143v73.143h18.286q22.572 0 38.714 16.143t16.143 38.714z" fill="#000000" />
</svg>
