<?xml version="1.0" encoding="utf-8"?>
<!-- Generated by IcoMoon.io -->
<!DOCTYPE svg PUBLIC "-//W3C//DTD SVG 1.1//EN" "http://www.w3.org/Graphics/SVG/1.1/DTD/svg11.dtd">
<svg version="1.1" xmlns="http://www.w3.org/2000/svg" xmlns:xlink="http://www.w3.org/1999/xlink" width="329" height="512" viewBox="0 0 329 512">
<g>
</g>
	<path d="M137.143 246.857v-128q0-4-2.571-6.572t-6.572-2.572-6.572 2.572-2.572 6.572v128q0 4 2.572 6.571t6.572 2.571 6.572-2.571 2.571-6.572zM329.143 347.428q0 7.428-5.428 12.857t-12.857 5.428h-122.572l-14.572 138q-0.571 3.428-3 5.857t-5.857 2.428h-0.286q-7.714 0-9.143-7.714l-21.714-138.572h-115.428q-7.428 0-12.857-5.428t-5.428-12.857q0-35.143 22.428-63.286t50.715-28.143v-146.286q-14.857 0-25.715-10.857t-10.857-25.715 10.857-25.715 25.715-10.857h182.857q14.857 0 25.714 10.857t10.857 25.715-10.857 25.715-25.714 10.857v146.286q28.286 0 50.714 28.143t22.428 63.286z" fill="#000000" />
</svg>
