<?xml version="1.0" encoding="utf-8"?>
<!-- Generated by IcoMoon.io -->
<!DOCTYPE svg PUBLIC "-//W3C//DTD SVG 1.1//EN" "http://www.w3.org/Graphics/SVG/1.1/DTD/svg11.dtd">
<svg version="1.1" xmlns="http://www.w3.org/2000/svg" xmlns:xlink="http://www.w3.org/1999/xlink" width="476" height="512" viewBox="0 0 476 512">
<g>
</g>
	<path d="M475.428 313.714q0 23.143-12.714 38.572t-35.286 15.428q-11.714 0-22.143-5t-16.857-10.857-16.143-10.857-20.286-5q-31.428 0-31.428 35.428 0 11.143 4.572 32.857t4.286 32.857v1.428q-6.286 0-9.428 0.286-9.714 0.857-27.857 3.286t-33 3.857-28 1.428q-17.428 0-29.428-7.572t-12-23.857q0-10.572 5-20.286t10.857-16.143 10.857-16.857 5-22.143q0-22.572-15.428-35.286t-38.572-12.714q-24 0-40.857 13t-16.857 36.428q0 12.286 4.285 23.714t9.572 18.428 9.571 15.143 4.286 14.428q0 12.857-13.143 25.428-10.572 10-33.428 10-27.143 0-70-6.857-2.572-0.572-7.857-1.143t-7.857-1.143l-3.715-0.572q-0.285 0-0.857-0.286-0.572 0-0.572-0.286v-292.572q0.572 0.286 5 1t9.714 1.429 6.143 1q42.857 6.857 70 6.857 22.857 0 33.428-10 13.143-12.572 13.143-25.428 0-6.285-4.286-14.428t-9.572-15.143-9.572-18.428-4.285-23.715q0-23.428 16.857-36.428t41.143-13q22.857 0 38.286 12.714t15.428 35.285q0 11.715-5 22.143t-10.857 16.857-10.857 16.143-5 20.285q0 16.285 12 23.857t29.428 7.572q18.286 0 51.428-4.286t46.572-4.857v0.571q-0.286 0.571-1 5t-1.428 9.714-1 6.143q-6.857 42.857-6.857 70 0 22.857 10 33.429 12.572 13.143 25.428 13.143 6.286 0 14.428-4.286t15.143-9.572 18.428-9.572 23.714-4.286q23.428 0 36.428 16.857t13 40.857z" fill="#000000" />
</svg>
