<?xml version="1.0" encoding="utf-8"?>
<!-- Generated by IcoMoon.io -->
<!DOCTYPE svg PUBLIC "-//W3C//DTD SVG 1.1//EN" "http://www.w3.org/Graphics/SVG/1.1/DTD/svg11.dtd">
<svg version="1.1" xmlns="http://www.w3.org/2000/svg" xmlns:xlink="http://www.w3.org/1999/xlink" width="403" height="512" viewBox="0 0 403 512">
<g>
</g>
	<path d="M109.715 329.143v36.572h-36.572v-36.572h36.572zM109.715 109.715v36.572h-36.572v-36.572h36.572zM329.143 109.715v36.572h-36.572v-36.572h36.572zM36.572 402h109.715v-109.428h-109.715v109.428zM36.572 182.857h109.715v-109.715h-109.715v109.715zM256 182.857h109.714v-109.715h-109.714v109.715zM182.857 256v182.857h-182.857v-182.857h182.857zM329.143 402.286v36.572h-36.572v-36.572h36.572zM402.286 402.286v36.572h-36.572v-36.572h36.572zM402.286 256v109.714h-109.714v-36.572h-36.572v109.714h-36.572v-182.857h109.714v36.572h36.572v-36.572h36.572zM182.857 36.572v182.857h-182.857v-182.857h182.857zM402.286 36.572v182.857h-182.857v-182.857h182.857z" fill="#000000" />
</svg>
