<?xml version="1.0" encoding="utf-8"?>
<!-- Generated by IcoMoon.io -->
<!DOCTYPE svg PUBLIC "-//W3C//DTD SVG 1.1//EN" "http://www.w3.org/Graphics/SVG/1.1/DTD/svg11.dtd">
<svg version="1.1" xmlns="http://www.w3.org/2000/svg" xmlns:xlink="http://www.w3.org/1999/xlink" width="293" height="512" viewBox="0 0 293 512">
<g>
</g>
	<path d="M201.143 358.857v68.572q0 4.572-3.429 8t-8 3.428h-68.572q-4.572 0-8-3.428t-3.428-8v-68.572q0-4.572 3.428-8t8-3.428h68.572q4.572 0 8 3.428t3.429 8zM291.428 187.429q0 15.429-4.428 28.857t-10 21.857-15.714 17-16.428 12.429-17.428 10.143q-11.714 6.572-19.572 18.572t-7.857 19.143q0 4.857-3.429 9.286t-8 4.428h-68.572q-4.285 0-7.285-5.286t-3-10.714v-12.857q0-23.714 18.571-44.714t40.857-31q16.857-7.714 24-16t7.143-21.714q0-12-13.286-21.143t-30.714-9.143q-18.572 0-30.857 8.286-10 7.143-30.572 32.857-3.715 4.571-8.857 4.571-3.428 0-7.143-2.286l-46.857-35.714q-3.715-2.857-4.428-7.143t1.572-8q45.715-76 132.571-76 22.857 0 46 8.857t41.714 23.715 30.286 36.428 11.714 45.285z" fill="#000000" />
</svg>
