<?xml version="1.0" encoding="utf-8"?>
<!-- Generated by IcoMoon.io -->
<!DOCTYPE svg PUBLIC "-//W3C//DTD SVG 1.1//EN" "http://www.w3.org/Graphics/SVG/1.1/DTD/svg11.dtd">
<svg version="1.1" xmlns="http://www.w3.org/2000/svg" xmlns:xlink="http://www.w3.org/1999/xlink" width="476" height="512" viewBox="0 0 476 512">
<g>
</g>
	<path d="M219.429 91.428v201.143q0 29.714-11.571 56.714t-31.286 46.714-46.714 31.286-56.715 11.572h-18.285q-7.428 0-12.857-5.428t-5.428-12.857v-36.572q0-7.428 5.428-12.857t12.857-5.428h18.285q30.285 0 51.715-21.428t21.428-51.714v-9.143q0-11.428-8-19.428t-19.428-8h-64q-22.857 0-38.857-16t-16-38.857v-109.715q0-22.857 16-38.857t38.857-16h109.715q22.857 0 38.857 16t16 38.857zM475.428 91.428v201.143q0 29.714-11.572 56.714t-31.286 46.714-46.714 31.286-56.714 11.572h-18.286q-7.428 0-12.857-5.428t-5.428-12.857v-36.572q0-7.428 5.428-12.857t12.857-5.428h18.286q30.286 0 51.714-21.428t21.428-51.714v-9.143q0-11.428-8-19.428t-19.428-8h-64q-22.857 0-38.857-16t-16-38.857v-109.715q0-22.857 16-38.857t38.857-16h109.714q22.857 0 38.857 16t16 38.857z" fill="#000000" />
</svg>
