<?xml version="1.0" encoding="utf-8"?>
<!-- Generated by IcoMoon.io -->
<!DOCTYPE svg PUBLIC "-//W3C//DTD SVG 1.1//EN" "http://www.w3.org/Graphics/SVG/1.1/DTD/svg11.dtd">
<svg version="1.1" xmlns="http://www.w3.org/2000/svg" xmlns:xlink="http://www.w3.org/1999/xlink" width="476" height="512" viewBox="0 0 476 512">
<g>
</g>
	<path d="M219.429 274.286v109.714q0 22.857-16 38.857t-38.857 16h-109.715q-22.857 0-38.857-16t-16-38.857v-201.143q0-29.715 11.572-56.715t31.285-46.715 46.715-31.285 56.714-11.572h18.286q7.428 0 12.857 5.428t5.429 12.857v36.572q0 7.428-5.428 12.857t-12.857 5.428h-18.285q-30.285 0-51.715 21.428t-21.428 51.714v9.143q0 11.429 8 19.429t19.428 8h64q22.857 0 38.857 16t16 38.857zM475.428 274.286v109.714q0 22.857-16 38.857t-38.857 16h-109.714q-22.857 0-38.857-16t-16-38.857v-201.143q0-29.715 11.572-56.715t31.286-46.715 46.714-31.285 56.714-11.572h18.286q7.428 0 12.857 5.428t5.428 12.857v36.572q0 7.428-5.428 12.857t-12.857 5.428h-18.286q-30.286 0-51.714 21.428t-21.428 51.714v9.143q0 11.429 8 19.429t19.428 8h64q22.857 0 38.857 16t16 38.857z" fill="#000000" />
</svg>
