<?xml version="1.0" encoding="utf-8"?>
<!-- Generated by IcoMoon.io -->
<!DOCTYPE svg PUBLIC "-//W3C//DTD SVG 1.1//EN" "http://www.w3.org/Graphics/SVG/1.1/DTD/svg11.dtd">
<svg version="1.1" xmlns="http://www.w3.org/2000/svg" xmlns:xlink="http://www.w3.org/1999/xlink" width="512" height="512" viewBox="0 0 512 512">
<g>
</g>
	<path d="M190.286 137.429q-17.143 26.285-39.143 78-6.286-12.857-10.571-20.715t-11.572-18.143-14.572-16.143-18-10-23.285-4.143h-64q-4 0-6.572-2.571t-2.571-6.572v-54.857q0-4 2.571-6.572t6.572-2.572h64q71.429 0 117.143 64.286zM512 365.714q0 4-2.572 6.572l-91.428 91.428q-2.572 2.572-6.572 2.572-3.714 0-6.428-2.714t-2.714-6.428v-54.857q-9.143 0-24.286 0.143t-23.143 0.286-20.857-0.286-20.286-1.428-18.286-3-18-5.286-16.572-8.143-16.857-11.428-15.714-15.286-16-19.857q16.857-26.572 38.857-78 6.286 12.857 10.572 20.714t11.572 18.143 14.572 16.143 18 10 23.286 4.143h73.143v-54.857q0-4 2.572-6.572t6.572-2.572q3.428 0 6.857 2.857l91.143 91.143q2.572 2.572 2.572 6.572zM512 109.715q0 4-2.572 6.572l-91.428 91.428q-2.572 2.571-6.572 2.571-3.714 0-6.428-2.714t-2.714-6.429v-54.857h-73.143q-13.714 0-24.857 4.286t-19.714 12.857-14.572 17.572-12.857 22.143q-9.143 17.715-22.286 48.857-8.286 18.857-14.143 31.714t-15.429 30-18.286 28.572-21.143 23.714-25.715 19.572-30.428 12-36.572 4.714h-64q-4 0-6.572-2.572t-2.571-6.572v-54.857q0-4 2.571-6.572t6.572-2.572h64q13.715 0 24.857-4.286t19.715-12.857 14.572-17.572 12.857-22.143q9.143-17.714 22.286-48.857 8.286-18.857 14.143-31.715t15.429-30 18.286-28.572 21.143-23.715 25.715-19.572 30.428-12 36.572-4.715h73.143v-54.857q0-4 2.572-6.572t6.572-2.572q3.428 0 6.857 2.857l91.143 91.143q2.572 2.572 2.572 6.572z" fill="#000000" />
</svg>
