<?xml version="1.0" encoding="utf-8"?>
<!-- Generated by IcoMoon.io -->
<!DOCTYPE svg PUBLIC "-//W3C//DTD SVG 1.1//EN" "http://www.w3.org/Graphics/SVG/1.1/DTD/svg11.dtd">
<svg version="1.1" xmlns="http://www.w3.org/2000/svg" xmlns:xlink="http://www.w3.org/1999/xlink" width="439" height="512" viewBox="0 0 439 512">
<g>
</g>
	<path d="M431.714 301.714q0 1.428-0.286 2-18.286 76.572-76.572 124.143t-136.571 47.572q-41.715 0-80.715-15.714t-69.572-44.857l-36.857 36.857q-5.428 5.428-12.857 5.428t-12.857-5.428-5.428-12.857v-128q0-7.428 5.428-12.857t12.857-5.428h128q7.428 0 12.857 5.428t5.429 12.857-5.428 12.857l-39.143 39.143q20.285 18.857 46 29.143t53.429 10.286q38.286 0 71.428-18.572t53.143-51.143q3.143-4.857 15.143-33.428 2.286-6.572 8.572-6.572h54.857q3.714 0 6.428 2.714t2.714 6.428zM438.857 73.143v128q0 7.429-5.428 12.857t-12.857 5.428h-128q-7.428 0-12.857-5.428t-5.428-12.857 5.428-12.857l39.428-39.428q-42.286-39.143-99.714-39.143-38.286 0-71.428 18.571t-53.143 51.143q-3.143 4.857-15.143 33.429-2.285 6.572-8.572 6.572h-56.857q-3.715 0-6.428-2.714t-2.715-6.428v-2q18.572-76.572 77.143-124.143t137.143-47.572q41.714 0 81.143 15.857t70 44.715l37.143-36.857q5.428-5.428 12.857-5.428t12.857 5.428 5.428 12.857z" fill="#000000" />
</svg>
