<?xml version="1.0" encoding="utf-8"?>
<!-- Generated by IcoMoon.io -->
<!DOCTYPE svg PUBLIC "-//W3C//DTD SVG 1.1//EN" "http://www.w3.org/Graphics/SVG/1.1/DTD/svg11.dtd">
<svg version="1.1" xmlns="http://www.w3.org/2000/svg" xmlns:xlink="http://www.w3.org/1999/xlink" width="439" height="512" viewBox="0 0 439 512">
<g>
</g>
	<path d="M328.286 320.572q0-7.428-5.428-12.857l-51.714-51.714 51.714-51.714q5.428-5.428 5.428-12.857 0-7.714-5.428-13.143l-25.714-25.714q-5.428-5.428-13.143-5.428-7.428 0-12.857 5.428l-51.714 51.714-51.714-51.714q-5.428-5.428-12.857-5.428-7.714 0-13.143 5.428l-25.715 25.714q-5.428 5.428-5.428 13.143 0 7.429 5.428 12.857l51.715 51.714-51.715 51.714q-5.428 5.428-5.428 12.857 0 7.714 5.428 13.143l25.715 25.714q5.428 5.428 13.143 5.428 7.429 0 12.857-5.428l51.714-51.714 51.714 51.714q5.428 5.428 12.857 5.428 7.714 0 13.143-5.428l25.714-25.714q5.428-5.428 5.428-13.143zM438.857 256q0 59.714-29.428 110.143t-79.857 79.857-110.143 29.428-110.143-29.428-79.857-79.857-29.428-110.143 29.428-110.143 79.857-79.857 110.143-29.428 110.143 29.428 79.857 79.857 29.428 110.143z" fill="#000000" />
</svg>
