<?xml version="1.0" encoding="utf-8"?>
<!-- Generated by IcoMoon.io -->
<!DOCTYPE svg PUBLIC "-//W3C//DTD SVG 1.1//EN" "http://www.w3.org/Graphics/SVG/1.1/DTD/svg11.dtd">
<svg version="1.1" xmlns="http://www.w3.org/2000/svg" xmlns:xlink="http://www.w3.org/1999/xlink" width="439" height="512" viewBox="0 0 439 512">
<g>
</g>
	<path d="M313.428 308.286l-41.714 41.714q-2.857 2.857-6.572 2.857t-6.572-2.857l-39.143-39.143-39.143 39.143q-2.857 2.857-6.572 2.857t-6.572-2.857l-41.715-41.714q-2.857-2.857-2.857-6.572t2.857-6.572l39.143-39.143-39.143-39.143q-2.857-2.857-2.857-6.572t2.857-6.572l41.715-41.714q2.857-2.857 6.572-2.857t6.572 2.857l39.143 39.143 39.143-39.143q2.857-2.857 6.572-2.857t6.572 2.857l41.714 41.714q2.857 2.857 2.857 6.572t-2.857 6.572l-39.143 39.143 39.143 39.143q2.857 2.857 2.857 6.572t-2.857 6.572zM374.857 256q0-42.286-20.857-78t-56.572-56.572-78-20.857-78 20.857-56.572 56.572-20.857 78 20.857 78 56.572 56.572 78 20.857 78-20.857 56.572-56.572 20.857-78zM438.857 256q0 59.714-29.428 110.143t-79.857 79.857-110.143 29.428-110.143-29.428-79.857-79.857-29.428-110.143 29.428-110.143 79.857-79.857 110.143-29.428 110.143 29.428 79.857 79.857 29.428 110.143z" fill="#000000" />
</svg>
