<?xml version="1.0" encoding="utf-8"?>
<!-- Generated by IcoMoon.io -->
<!DOCTYPE svg PUBLIC "-//W3C//DTD SVG 1.1//EN" "http://www.w3.org/Graphics/SVG/1.1/DTD/svg11.dtd">
<svg version="1.1" xmlns="http://www.w3.org/2000/svg" xmlns:xlink="http://www.w3.org/1999/xlink" width="476" height="512" viewBox="0 0 476 512">
<g>
</g>
	<path d="M475.428 338.286v9.143q0 37.714-26.857 64.572t-64.572 26.857h-36.572q-37.714 0-64.572-26.857t-26.857-64.572v-137.143h-64q-0.571 29.143-4.143 54.429t-8.714 44.572-13.857 36.143-16.285 28.428-19.286 22.143-19.857 16.714-21.143 12.572-19.715 9.143-18.715 7.286q-1.143 0.572-9.143 3.714-2.285 0.572-3.428 0.572-6.285 0-8.572-5.714l-20.285-50.857q-1.428-3.714 0-7.143t4.857-4.857q2-0.857 5.715-2.143t5.143-1.857q8.857-3.428 13.285-5.286t12.715-5.714 13-7.428 12-9.286 11.572-12.143 9.857-15.286 8.715-19.572 6.428-23.857 4.857-29.428 1.857-35.143h-73.143q-4 0-6.572-2.571t-2.572-6.572v-45.714q0-4 2.572-6.572t6.572-2.571h347.428q4 0 6.572 2.571t2.572 6.572v45.714q0 4-2.572 6.572t-6.572 2.571h-64v146.286q0 7.428 5.428 12.857t12.857 5.428h36.572q7.428 0 12.857-5.428t5.428-12.857v-18.286q0-4 2.572-6.572t6.572-2.572h54.857q4 0 6.572 2.572t2.572 6.572zM365.714 45.715v45.715q0 4-2.572 6.572t-6.572 2.572h-274.286q-4 0-6.572-2.572t-2.572-6.572v-45.715q0-4 2.572-6.572t6.572-2.572h274.286q4 0 6.572 2.572t2.572 6.572z" fill="#000000" />
</svg>
