<?xml version="1.0" encoding="utf-8"?>
<!-- Generated by IcoMoon.io -->
<!DOCTYPE svg PUBLIC "-//W3C//DTD SVG 1.1//EN" "http://www.w3.org/Graphics/SVG/1.1/DTD/svg11.dtd">
<svg version="1.1" xmlns="http://www.w3.org/2000/svg" xmlns:xlink="http://www.w3.org/1999/xlink" width="549" height="512" viewBox="0 0 549 512">
<g>
</g>
	<path d="M230 392.286q-34.857 19.143-74.572 19.143-40.285 0-74.572-19.143 28-17.428 47.715-42.572t26.857-54.572q7.143 29.428 26.857 54.572t47.715 42.572zM129.429 102.857v98.285q0 51.143-25.572 93.143t-67 62q-36.857-43.428-36.857-100.286 0-57.143 37-100.572t92.428-52.572zM273.714 155.714q-36.572 43.428-36.572 100.286 0 57.428 36.572 100.286-41.428-20-67-62.286t-25.572-93.714v-97.428q56 9.428 92.572 52.857zM468 392.286q-34.857 19.143-74.572 19.143-40.286 0-74.572-19.143 28-17.428 47.714-42.572t26.857-54.572q7.143 29.428 26.857 54.572t47.714 42.572zM367.428 102.857v98.285q0 51.143-26 93.143t-67.714 62v0q38-44 38-100.286 0-55.714-38-100.286 36.857-43.143 93.714-52.857zM548.572 256q0 57.428-36.857 100.286-41.428-20-67-62.286t-25.572-93.714v-97.428q55.428 9.143 92.428 52.572t37 100.571z" fill="#000000" />
</svg>
