<?xml version="1.0" encoding="utf-8"?>
<!-- Generated by IcoMoon.io -->
<!DOCTYPE svg PUBLIC "-//W3C//DTD SVG 1.1//EN" "http://www.w3.org/Graphics/SVG/1.1/DTD/svg11.dtd">
<svg version="1.1" xmlns="http://www.w3.org/2000/svg" xmlns:xlink="http://www.w3.org/1999/xlink" width="439" height="512" viewBox="0 0 439 512">
<g>
</g>
	<path d="M438.857 384v36.572q0 7.428-5.428 12.857t-12.857 5.428h-402.286q-7.428 0-12.857-5.428t-5.428-12.857v-36.572q0-7.428 5.428-12.857t12.857-5.428h402.286q7.428 0 12.857 5.428t5.428 12.857zM438.857 237.714v36.572q0 7.428-5.428 12.857t-12.857 5.428h-402.286q-7.428 0-12.857-5.428t-5.428-12.857v-36.572q0-7.428 5.428-12.857t12.857-5.429h402.286q7.428 0 12.857 5.428t5.428 12.857zM438.857 91.428v36.572q0 7.428-5.428 12.857t-12.857 5.429h-402.286q-7.428 0-12.857-5.428t-5.428-12.857v-36.572q0-7.428 5.428-12.857t12.857-5.428h402.286q7.428 0 12.857 5.428t5.428 12.857z" fill="#000000" />
</svg>
