<?xml version="1.0" encoding="utf-8"?>
<!-- Generated by IcoMoon.io -->
<!DOCTYPE svg PUBLIC "-//W3C//DTD SVG 1.1//EN" "http://www.w3.org/Graphics/SVG/1.1/DTD/svg11.dtd">
<svg version="1.1" xmlns="http://www.w3.org/2000/svg" xmlns:xlink="http://www.w3.org/1999/xlink" width="439" height="512" viewBox="0 0 439 512">
<g>
</g>
	<path d="M438.857 73.143v128q0 7.429-5.428 12.857t-12.857 5.428h-128q-12 0-16.857-11.428-4.857-11.143 4-19.714l39.428-39.428q-42.286-39.143-99.714-39.143-29.714 0-56.714 11.572t-46.715 31.285-31.285 46.714-11.572 56.714 11.572 56.714 31.285 46.714 46.715 31.286 56.714 11.572q34 0 64.286-14.857t51.143-42q2-2.857 6.572-3.428 4 0 7.143 2.572l39.143 39.428q2.572 2.286 2.714 5.857t-2.143 6.428q-31.143 37.714-75.428 58.428t-93.428 20.714q-44.572 0-85.143-17.428t-70-46.857-46.857-70-17.428-85.143 17.428-85.143 46.857-70 70-46.857 85.143-17.428q42 0 81.286 15.857t69.857 44.715l37.143-36.857q8.286-8.857 20-4 11.143 4.857 11.143 16.857z" fill="#000000" />
</svg>
