<?xml version="1.0" encoding="utf-8"?>
<!-- Generated by IcoMoon.io -->
<!DOCTYPE svg PUBLIC "-//W3C//DTD SVG 1.1//EN" "http://www.w3.org/Graphics/SVG/1.1/DTD/svg11.dtd">
<svg version="1.1" xmlns="http://www.w3.org/2000/svg" xmlns:xlink="http://www.w3.org/1999/xlink" width="512" height="512" viewBox="0 0 512 512">
<g>
</g>
	<path d="M512 320q0 47.428-36.286 128.857-0.857 2-3 6.857t-3.857 8.572-3.714 6.286q-3.428 4.857-8 4.857-4.286 0-6.714-2.857t-2.428-7.143q0-2.572 0.714-7.572t0.714-6.714q1.428-19.428 1.428-35.143 0-28.857-5-51.714t-13.857-39.572-22.857-28.857-30.143-19.857-38-12.143-44-6.143-50.143-1.714h-64v73.143q0 7.428-5.429 12.857t-12.857 5.428-12.857-5.428l-146.286-146.286q-5.428-5.428-5.428-12.857t5.428-12.857l146.286-146.286q5.428-5.428 12.857-5.428t12.857 5.428 5.428 12.857v73.143h64q203.714 0 250 115.143 15.143 38.285 15.143 95.143z" fill="#000000" />
</svg>
