<?xml version="1.0" encoding="utf-8"?>
<!-- Generated by IcoMoon.io -->
<!DOCTYPE svg PUBLIC "-//W3C//DTD SVG 1.1//EN" "http://www.w3.org/Graphics/SVG/1.1/DTD/svg11.dtd">
<svg version="1.1" xmlns="http://www.w3.org/2000/svg" xmlns:xlink="http://www.w3.org/1999/xlink" width="512" height="512" viewBox="0 0 512 512">
<g>
</g>
	<path d="M182.857 309.143v20q0 12-11.143 16.857-3.714 1.428-7.143 1.428-7.714 0-12.857-5.428l-146.286-146.286q-5.428-5.428-5.428-12.857t5.428-12.857l146.286-146.286q8.286-8.857 20-4 11.143 4.857 11.143 16.857v19.715l-113.428 113.715q-5.428 5.428-5.428 12.857t5.428 12.857zM512 320q0 16.572-4.857 38.143t-11 39.428-13.714 35.714-11.572 25.857l-5.714 11.428q-2.286 4.857-8 4.857-1.714 0-2.572-0.286-7.143-2.286-6.572-9.714 12.286-114.286-30.286-161.429-18.286-20.286-48.714-31.572t-76.428-15v71.714q0 12-11.143 16.857-3.714 1.428-7.143 1.428-7.714 0-12.857-5.428l-146.286-146.286q-5.428-5.428-5.428-12.857t5.428-12.857l146.286-146.286q8.286-8.857 20-4 11.143 4.857 11.143 16.857v74.857q117.428 8 171.143 63.143 48.286 49.429 48.286 145.429z" fill="#000000" />
</svg>
