<?xml version="1.0" encoding="utf-8"?>
<!-- Generated by IcoMoon.io -->
<!DOCTYPE svg PUBLIC "-//W3C//DTD SVG 1.1//EN" "http://www.w3.org/Graphics/SVG/1.1/DTD/svg11.dtd">
<svg version="1.1" xmlns="http://www.w3.org/2000/svg" xmlns:xlink="http://www.w3.org/1999/xlink" width="220" height="512" viewBox="0 0 220 512">
<g>
</g>
	<path d="M201.143 91.428q0 7.428-5.429 12.857t-12.857 5.428h-36.571v292.572h36.572q7.428 0 12.857 5.428t5.429 12.857-5.428 12.857l-73.143 73.143q-5.428 5.428-12.857 5.428t-12.857-5.428l-73.143-73.143q-5.428-5.428-5.428-12.857t5.428-12.857 12.857-5.428h36.572v-292.572h-36.572q-7.428 0-12.857-5.428t-5.428-12.857 5.428-12.857l73.143-73.143q5.428-5.428 12.857-5.428t12.857 5.428l73.143 73.143q5.428 5.428 5.428 12.857z" fill="#000000" />
</svg>
