<?xml version="1.0" encoding="utf-8"?>
<!-- Generated by IcoMoon.io -->
<!DOCTYPE svg PUBLIC "-//W3C//DTD SVG 1.1//EN" "http://www.w3.org/Graphics/SVG/1.1/DTD/svg11.dtd">
<svg version="1.1" xmlns="http://www.w3.org/2000/svg" xmlns:xlink="http://www.w3.org/1999/xlink" width="439" height="512" viewBox="0 0 439 512">
<g>
</g>
	<path d="M219.429 274.286v128q0 7.428-5.429 12.857t-12.857 5.428-12.857-5.428l-41.143-41.143-94.857 94.857q-2.857 2.857-6.572 2.857t-6.572-2.857l-32.572-32.572q-2.857-2.857-2.857-6.572t2.857-6.572l94.857-94.857-41.143-41.143q-5.428-5.428-5.428-12.857t5.428-12.857 12.857-5.428h128q7.428 0 12.857 5.428t5.429 12.857zM435.143 82.285q0 3.715-2.857 6.572l-94.857 94.857 41.143 41.143q5.428 5.429 5.428 12.857t-5.428 12.857-12.857 5.429h-128q-7.428 0-12.857-5.428t-5.429-12.857v-128q0-7.428 5.428-12.857t12.857-5.428 12.857 5.428l41.143 41.143 94.857-94.857q2.857-2.857 6.572-2.857t6.572 2.857l32.572 32.572q2.857 2.857 2.857 6.572z" fill="#000000" />
</svg>
