<?xml version="1.0" encoding="utf-8"?>
<!-- Generated by IcoMoon.io -->
<!DOCTYPE svg PUBLIC "-//W3C//DTD SVG 1.1//EN" "http://www.w3.org/Graphics/SVG/1.1/DTD/svg11.dtd">
<svg version="1.1" xmlns="http://www.w3.org/2000/svg" xmlns:xlink="http://www.w3.org/1999/xlink" width="549" height="512" viewBox="0 0 549 512">
<g>
</g>
	<path d="M365.714 429.714q0 3.714-2.714 6.428t-6.428 2.714h-274.286q-2.285 0-3.857-0.572t-2.572-2-1.572-2.286-0.857-3.286-0.285-3.286v-171.429h-54.857q-7.428 0-12.857-5.428t-5.428-12.857q0-6.857 4.285-11.714l91.428-109.715q5.428-6.285 14-6.285t14 6.285l91.429 109.715q4.286 4.857 4.286 11.714 0 7.429-5.428 12.857t-12.857 5.428h-54.857v109.714h164.572q4.572 0 7.143 3.143l45.714 54.857q2 3.143 2 6zM548.572 310.857q0 6.857-4.285 11.714l-91.428 109.714q-5.714 6.572-14 6.572t-14-6.572l-91.428-109.714q-4.286-4.857-4.286-11.714 0-7.428 5.428-12.857t12.857-5.428h54.857v-109.714h-164.571q-4.571 0-7.143-3.429l-45.714-54.857q-2-2.572-2-5.715 0-3.715 2.714-6.428t6.428-2.715h274.286q2.286 0 3.857 0.572t2.572 2 1.572 2.285 0.857 3.285 0.286 3.285v171.429h54.857q7.428 0 12.857 5.428t5.428 12.857z" fill="#000000" />
</svg>
