<?xml version="1.0" encoding="utf-8"?>
<!-- Generated by IcoMoon.io -->
<!DOCTYPE svg PUBLIC "-//W3C//DTD SVG 1.1//EN" "http://www.w3.org/Graphics/SVG/1.1/DTD/svg11.dtd">
<svg version="1.1" xmlns="http://www.w3.org/2000/svg" xmlns:xlink="http://www.w3.org/1999/xlink" width="549" height="512" viewBox="0 0 549 512">
<g>
</g>
	<path d="M317.428 284.572v-1.143l-6.857-91.428q-0.286-3.714-3.143-6.428t-6.572-2.714h-53.143q-3.714 0-6.571 2.714t-3.143 6.428l-6.857 91.428v1.143q-0.286 3.428 2.286 5.714t6 2.286h69.714q3.428 0 6-2.286t2.286-5.714zM534.285 418q0 20.857-13.143 20.857h-201.143q3.714 0 6.286-2.714t2.286-6.428l-5.714-73.143q-0.286-3.714-3.143-6.428t-6.572-2.714h-77.714q-3.714 0-6.572 2.714t-3.143 6.428l-5.714 73.143q-0.286 3.714 2.286 6.428t6.286 2.714h-201.143q-13.143 0-13.143-20.857 0-15.428 7.428-33.143l119.143-298.286q2.286-5.428 7.428-9.428t10.857-4h96.857q-3.714 0-6.572 2.715t-3.143 6.428l-4.286 54.857q-0.286 4 2.286 6.572t6.286 2.571h47.429q3.714 0 6.286-2.571t2.286-6.572l-4.286-54.857q-0.286-3.715-3.143-6.428t-6.572-2.715h96.857q5.714 0 10.857 4t7.428 9.428l119.143 298.286q7.428 17.714 7.428 33.143z" fill="#000000" />
</svg>
