<?xml version="1.0" encoding="utf-8"?>
<!-- Generated by IcoMoon.io -->
<!DOCTYPE svg PUBLIC "-//W3C//DTD SVG 1.1//EN" "http://www.w3.org/Graphics/SVG/1.1/DTD/svg11.dtd">
<svg version="1.1" xmlns="http://www.w3.org/2000/svg" xmlns:xlink="http://www.w3.org/1999/xlink" width="439" height="512" viewBox="0 0 439 512">
<g>
</g>
	<path d="M146.286 365.714q0-15.143-10.714-25.857t-25.857-10.714-25.857 10.714-10.715 25.857 10.715 25.857 25.857 10.714 25.857-10.714 10.714-25.857zM246.571 392.572q-3.714-66.286-50.571-113.143t-113.143-50.572q-4-0.286-6.857 2.571t-2.857 6.571v36.572q0 3.714 2.428 6.286t6.143 2.857q44 3.143 75.428 34.572t34.571 75.428q0.286 3.714 2.857 6.143t6.286 2.428h36.571q3.714 0 6.572-2.857t2.571-6.857zM356.286 392.857q-1.428-44-16-85t-39.857-74.286-58.572-58.572-74.286-39.857-85-16q-4-0.285-6.572 2.572-2.857 2.857-2.857 6.572v36.572q0 3.714 2.572 6.286t6.285 2.857q58.285 2 108 31.857t79.572 79.572 31.857 108q0.286 3.714 2.857 6.286t6.286 2.572h36.572q3.714 0 6.572-2.857 3.143-2.572 2.572-6.572zM438.857 118.857v274.286q0 34-24.143 58.143t-58.143 24.143h-274.286q-34 0-58.143-24.143t-24.143-58.143v-274.286q0-34 24.143-58.143t58.143-24.143h274.286q34 0 58.143 24.143t24.143 58.143z" fill="#000000" />
</svg>
