<?xml version="1.0" encoding="utf-8"?>
<!-- Generated by IcoMoon.io -->
<!DOCTYPE svg PUBLIC "-//W3C//DTD SVG 1.1//EN" "http://www.w3.org/Graphics/SVG/1.1/DTD/svg11.dtd">
<svg version="1.1" xmlns="http://www.w3.org/2000/svg" xmlns:xlink="http://www.w3.org/1999/xlink" width="403" height="512" viewBox="0 0 403 512">
<g>
</g>
	<path d="M109.715 384q0 22.857-16 38.857t-38.857 16-38.857-16-16-38.857 16-38.857 38.857-16 38.857 16 16 38.857zM256 419.143q0.572 8-4.857 13.714-5.143 6-13.429 6h-38.572q-7.143 0-12.286-4.714t-5.714-11.857q-6.286-65.428-52.714-111.857t-111.857-52.714q-7.143-0.572-11.857-5.714t-4.715-12.286v-38.572q0-8.286 6-13.428 4.857-4.857 12.286-4.857h1.428q45.715 3.714 87.428 23t74 51.857q32.572 32.286 51.857 74t23 87.428zM402.286 419.714q0.572 7.714-5.143 13.428-5.143 5.714-13.143 5.714h-40.857q-7.428 0-12.714-5t-5.572-12.143q-3.428-61.428-28.857-116.714t-66.143-96-96-66.143-116.715-29.143q-7.143-0.285-12.143-5.572t-5-12.428v-40.857q0-8 5.715-13.143 5.143-5.143 12.572-5.143h0.857q74.857 3.715 143.286 34.285t121.572 84q53.428 53.143 84 121.572t34.286 143.286z" fill="#000000" />
</svg>
