<?xml version="1.0" encoding="utf-8"?>
<!-- Generated by IcoMoon.io -->
<!DOCTYPE svg PUBLIC "-//W3C//DTD SVG 1.1//EN" "http://www.w3.org/Graphics/SVG/1.1/DTD/svg11.dtd">
<svg version="1.1" xmlns="http://www.w3.org/2000/svg" xmlns:xlink="http://www.w3.org/1999/xlink" width="257" height="512" viewBox="0 0 257 512">
<g>
</g>
	<path d="M256.572 134.286v29.143q0 4-2.571 6.571t-6.571 2.571h-48q-6.572 41.143-36.857 66.857t-78.857 31.428q47.714 50.857 131.143 153.143 4 4.572 1.143 9.714-2.286 5.143-8.286 5.143h-55.714q-4.572 0-7.143-3.428-87.428-104.857-142.286-163.143-2.571-2.572-2.571-6.286v-36.286q0-3.714 2.715-6.428t6.428-2.714h32q37.715 0 60.715-12.286t29.285-35.714h-122q-4 0-6.572-2.571t-2.571-6.571v-29.143q0-4 2.571-6.572t6.572-2.572h118q-16.285-32.285-76.572-32.285h-41.428q-3.715 0-6.428-2.715t-2.715-6.428v-38q0-4 2.571-6.572t6.572-2.572h237.714q4 0 6.572 2.572t2.572 6.572v29.143q0 4-2.571 6.572t-6.571 2.572h-66.572q13.428 17.428 18.286 41.143h48.857q4 0 6.571 2.572t2.572 6.572z" fill="#000000" />
</svg>
