<?xml version="1.0" encoding="utf-8"?>
<!-- Generated by IcoMoon.io -->
<!DOCTYPE svg PUBLIC "-//W3C//DTD SVG 1.1//EN" "http://www.w3.org/Graphics/SVG/1.1/DTD/svg11.dtd">
<svg version="1.1" xmlns="http://www.w3.org/2000/svg" xmlns:xlink="http://www.w3.org/1999/xlink" width="439" height="512" viewBox="0 0 439 512">
<g>
</g>
	<path d="M109.715 438.857h219.429v-109.714h-219.429v109.714zM365.714 438.857h36.572v-256q0-4-2.857-11t-5.714-9.857l-80.286-80.285q-2.857-2.857-9.714-5.715t-11.143-2.857v118.857q0 11.429-8 19.429t-19.428 8h-164.571q-11.428 0-19.428-8t-8-19.428v-118.857h-36.572v365.715h36.572v-118.857q0-11.428 8-19.428t19.428-8h237.715q11.428 0 19.428 8t8 19.428v118.857zM256 173.714v-91.428q0-3.715-2.714-6.428t-6.428-2.715h-54.857q-3.714 0-6.429 2.715t-2.714 6.428v91.428q0 3.714 2.714 6.428t6.428 2.714h54.857q3.714 0 6.429-2.714t2.714-6.428zM438.857 182.857v265.143q0 11.428-8 19.428t-19.428 8h-384q-11.428 0-19.428-8t-8-19.428v-384q0-11.428 8-19.428t19.428-8h265.143q11.428 0 25.143 5.715t21.714 13.715l80 80q8 8 13.714 21.714t5.714 25.143z" fill="#000000" />
</svg>
