<?xml version="1.0" encoding="utf-8"?>
<!-- Generated by IcoMoon.io -->
<!DOCTYPE svg PUBLIC "-//W3C//DTD SVG 1.1//EN" "http://www.w3.org/Graphics/SVG/1.1/DTD/svg11.dtd">
<svg version="1.1" xmlns="http://www.w3.org/2000/svg" xmlns:xlink="http://www.w3.org/1999/xlink" width="439" height="512" viewBox="0 0 439 512">
<g>
</g>
	<path d="M342 292.572h-31.143q-7.428 0-12.857-5.428t-5.428-12.857v-36.572q0-7.428 5.428-12.857t12.857-5.429h31.143q-9.143-30.857-32.143-53.857t-53.857-32.143v31.143q0 7.429-5.429 12.857t-12.857 5.428h-36.571q-7.428 0-12.857-5.428t-5.429-12.857v-31.143q-30.857 9.143-53.857 32.143t-32.143 53.857h31.143q7.429 0 12.857 5.428t5.428 12.857v36.571q0 7.428-5.428 12.857t-12.857 5.428h-31.143q9.143 30.857 32.143 53.857t53.857 32.143v-31.143q0-7.428 5.428-12.857t12.857-5.428h36.571q7.428 0 12.857 5.428t5.429 12.857v31.143q30.857-9.143 53.857-32.143t32.143-53.857zM438.857 237.714v36.572q0 7.428-5.428 12.857t-12.857 5.428h-40.857q-10.572 46-44.143 79.572t-79.572 44.143v40.857q0 7.428-5.428 12.857t-12.857 5.428h-36.571q-7.428 0-12.857-5.428t-5.429-12.857v-40.857q-46-10.572-79.572-44.143t-44.143-79.572h-40.857q-7.428 0-12.857-5.428t-5.428-12.857v-36.572q0-7.428 5.428-12.857t12.857-5.429h40.857q10.572-46 44.143-79.572t79.572-44.143v-40.857q0-7.428 5.428-12.857t12.857-5.428h36.571q7.428 0 12.857 5.428t5.429 12.857v40.857q46 10.572 79.572 44.143t44.143 79.572h40.857q7.428 0 12.857 5.428t5.428 12.857z" fill="#000000" />
</svg>
