<?xml version="1.0" encoding="utf-8"?>
<!-- Generated by IcoMoon.io -->
<!DOCTYPE svg PUBLIC "-//W3C//DTD SVG 1.1//EN" "http://www.w3.org/Graphics/SVG/1.1/DTD/svg11.dtd">
<svg version="1.1" xmlns="http://www.w3.org/2000/svg" xmlns:xlink="http://www.w3.org/1999/xlink" width="476" height="512" viewBox="0 0 476 512">
<g>
</g>
	<path d="M402.286 282.572v74q0 34-24.143 58.143t-58.143 24.143h-237.714q-34 0-58.143-24.143t-24.143-58.143v-237.714q0-34 24.143-58.143t58.143-24.143h72.857q3.714 0 6.429 2.715t2.714 6.428q0 7.715-7.428 9.143-22 7.428-38 17.143-2.857 1.143-4.572 1.143h-32q-18.857 0-32.285 13.428t-13.428 32.285v237.714q0 18.857 13.428 32.286t32.285 13.428h237.714q18.857 0 32.286-13.428t13.428-32.286v-61.143q0-5.428 5.143-8.286 8-3.714 15.428-10.572 4.572-4.572 10-2.286 6 2.572 6 8.286zM470 140.857l-109.714 109.715q-5.143 5.428-12.857 5.428-3.428 0-7.143-1.429-11.143-4.857-11.143-16.857v-54.857h-45.714q-92.286 0-125.143 37.429-34 39.143-21.143 135.143 0.857 6.572-5.714 9.714-2.286 0.572-3.428 0.572-4.572 0-7.428-3.714-2.857-4-6-8.857t-11.285-19.572-14.143-28.428-11-32.572-5-34.857q0-14 1-26t4-25.715 8-25.143 13.428-23.285 19.572-21.143 27-17.572 35.572-13.857 45.572-8.715 56.143-3.143h45.714v-54.857q0-12 11.143-16.857 3.714-1.429 7.143-1.429 7.428 0 12.857 5.428l109.714 109.715q5.428 5.428 5.428 12.857t-5.428 12.857z" fill="#000000" />
</svg>
