<?xml version="1.0" encoding="utf-8"?>
<!-- Generated by IcoMoon.io -->
<!DOCTYPE svg PUBLIC "-//W3C//DTD SVG 1.1//EN" "http://www.w3.org/Graphics/SVG/1.1/DTD/svg11.dtd">
<svg version="1.1" xmlns="http://www.w3.org/2000/svg" xmlns:xlink="http://www.w3.org/1999/xlink" width="512" height="512" viewBox="0 0 512 512">
<g>
</g>
	<path d="M512 182.857q0 7.429-5.428 12.857l-146.286 146.286q-5.428 5.428-12.857 5.428t-12.857-5.428-5.428-12.857v-73.143h-64q-28 0-50.143 1.715t-44 6.143-38 12.143-30.143 19.857-22.857 28.857-13.857 39.572-5 51.714q0 15.714 1.428 35.143 0 1.714 0.715 6.714t0.715 7.572q0 4.286-2.428 7.143t-6.715 2.857q-4.572 0-8-4.857-2-2.572-3.715-6.286t-3.857-8.572-3-6.857q-36.285-81.428-36.285-128.857 0-56.857 15.143-95.143 46.285-115.143 250-115.143h64v-73.143q0-7.428 5.428-12.857t12.857-5.428 12.857 5.428l146.286 146.286q5.429 5.428 5.429 12.857z" fill="#000000" />
</svg>
