<?xml version="1.0" encoding="utf-8"?>
<!-- Generated by IcoMoon.io -->
<!DOCTYPE svg PUBLIC "-//W3C//DTD SVG 1.1//EN" "http://www.w3.org/Graphics/SVG/1.1/DTD/svg11.dtd">
<svg version="1.1" xmlns="http://www.w3.org/2000/svg" xmlns:xlink="http://www.w3.org/1999/xlink" width="439" height="512" viewBox="0 0 439 512">
<g>
</g>
	<path d="M287.143 314.572l100.572-100.572q5.428-5.428 5.428-12.857t-5.428-12.857l-100.572-100.572q-8.572-8.857-19.714-4-11.428 4.857-11.428 16.857v45.715q-34 0-61.714 5.572t-46.428 14.572-32.572 22.572-21.857 27.286-12.715 31.143-6.143 31.857-1.428 31.572q0 51.714 47.715 115.428 2.857 3.428 7.143 3.428 2 0 3.714-0.857 6.286-2.572 5.429-9.428-12.572-101.143 17.714-135.143 13.143-14.857 37.143-21.572t64-6.714v45.714q0 12 11.428 16.857 3.428 1.428 6.857 1.428 7.428 0 12.857-5.428zM438.857 118.857v274.286q0 34-24.143 58.143t-58.143 24.143h-274.286q-34 0-58.143-24.143t-24.143-58.143v-274.286q0-34 24.143-58.143t58.143-24.143h274.286q34 0 58.143 24.143t24.143 58.143z" fill="#000000" />
</svg>
