<?xml version="1.0" encoding="utf-8"?>
<!-- Generated by IcoMoon.io -->
<!DOCTYPE svg PUBLIC "-//W3C//DTD SVG 1.1//EN" "http://www.w3.org/Graphics/SVG/1.1/DTD/svg11.dtd">
<svg version="1.1" xmlns="http://www.w3.org/2000/svg" xmlns:xlink="http://www.w3.org/1999/xlink" width="366" height="512" viewBox="0 0 366 512">
<g>
</g>
	<path d="M310.857 274.286v-182.857h-128v324.857q34-18 60.857-39.143 67.143-52.572 67.143-102.857zM365.714 54.857v219.429q0 24.572-9.572 48.714t-23.714 42.857-33.714 36.428-36.143 29.428-34.572 22.143-25.572 14.143-12.143 5.714q-3.429 1.714-7.429 1.714t-7.428-1.714q-4.572-2-12.143-5.714t-25.571-14.143-34.572-22.143-36.143-29.428-33.715-36.428-23.715-42.857-9.572-48.714v-219.429q0-7.428 5.428-12.857t12.857-5.428h329.143q7.428 0 12.857 5.428t5.428 12.857z" fill="#000000" />
</svg>
