<?xml version="1.0" encoding="utf-8"?>
<!-- Generated by IcoMoon.io -->
<!DOCTYPE svg PUBLIC "-//W3C//DTD SVG 1.1//EN" "http://www.w3.org/Graphics/SVG/1.1/DTD/svg11.dtd">
<svg version="1.1" xmlns="http://www.w3.org/2000/svg" xmlns:xlink="http://www.w3.org/1999/xlink" width="476" height="512" viewBox="0 0 476 512">
<g>
</g>
	<path d="M182.857 438.857q0 15.143-10.714 25.857t-25.857 10.714-25.857-10.714-10.715-25.857 10.715-25.857 25.857-10.714 25.857 10.714 10.714 25.857zM438.857 438.857q0 15.143-10.714 25.857t-25.857 10.714-25.857-10.714-10.714-25.857 10.714-25.857 25.857-10.714 25.857 10.714 10.714 25.857zM475.428 128v146.286q0 6.857-4.572 12.143t-11.714 6.143l-298.286 34.857q0.286 2 1.286 6.143t1.714 7.572 0.714 6.286q0 4.572-6.857 18.286h262.857q7.428 0 12.857 5.428t5.428 12.857-5.428 12.857-12.857 5.428h-292.572q-7.428 0-12.857-5.428t-5.428-12.857q0-4 3.143-11.286t8.428-17 5.857-10.857l-50.572-235.143h-58.285q-7.428 0-12.857-5.428t-5.428-12.857 5.428-12.857 12.857-5.428h73.143q4.572 0 8.143 1.857t5.715 4.428 3.715 7 2.143 7.572 1.572 8.428 1.285 7.285h343.143q7.428 0 12.857 5.428t5.428 12.857z" fill="#000000" />
</svg>
