<?xml version="1.0" encoding="utf-8"?>
<!-- Generated by IcoMoon.io -->
<!DOCTYPE svg PUBLIC "-//W3C//DTD SVG 1.1//EN" "http://www.w3.org/Graphics/SVG/1.1/DTD/svg11.dtd">
<svg version="1.1" xmlns="http://www.w3.org/2000/svg" xmlns:xlink="http://www.w3.org/1999/xlink" width="476" height="512" viewBox="0 0 476 512">
<g>
</g>
	<path d="M182.857 411.428q0 1.143 0.286 5.714t0.143 7.572-0.857 6.714-2.857 5.572-5.857 1.857h-91.428q-34 0-58.143-24.143t-24.143-58.143v-201.143q0-34 24.143-58.143t58.143-24.143h91.428q3.714 0 6.429 2.715t2.714 6.428q0 1.143 0.286 5.715t0.143 7.572-0.857 6.715-2.857 5.572-5.857 1.857h-91.428q-18.857 0-32.285 13.428t-13.428 32.285v201.143q0 18.857 13.428 32.286t32.285 13.428h89.142t3.286 0.286 3.286 0.857 2.286 1.572 2 2.572 0.571 3.857zM448 256q0 7.428-5.428 12.857l-155.428 155.428q-5.428 5.428-12.857 5.428t-12.857-5.428-5.428-12.857v-82.286h-128q-7.428 0-12.857-5.428t-5.428-12.857v-109.714q0-7.428 5.428-12.857t12.857-5.429h128v-82.285q0-7.428 5.428-12.857t12.857-5.428 12.857 5.428l155.428 155.428q5.428 5.428 5.428 12.857z" fill="#000000" />
</svg>
