<?xml version="1.0" encoding="utf-8"?>
<!-- Generated by IcoMoon.io -->
<!DOCTYPE svg PUBLIC "-//W3C//DTD SVG 1.1//EN" "http://www.w3.org/Graphics/SVG/1.1/DTD/svg11.dtd">
<svg version="1.1" xmlns="http://www.w3.org/2000/svg" xmlns:xlink="http://www.w3.org/1999/xlink" width="439" height="512" viewBox="0 0 439 512">
<g>
</g>
	<path d="M335.143 303.714q0-14.286-5.572-26.143t-13.857-19.572-20.857-14-23.572-9.714-25-6.572l-29.714-6.857q-8.572-2-12.572-3t-10-3.286-8.572-4.571-4.714-6-2.143-8.572q0-22 41.143-22 12.286 0 22 3.429t15.428 8.143 10.857 9.572 11.428 8.286 13.714 3.429q13.428 0 21.572-9.143t8.143-22q0-15.714-16-28.428t-40.572-19.285-52-6.572q-19.428 0-37.714 4.428t-34.143 13.428-25.428 24.857-9.572 36.715q0 17.428 5.428 30.428t16 21.572 22.857 13.857 29.429 9.286l41.714 10.286q25.714 6.286 32 10.286 9.143 5.714 9.143 17.143 0 11.143-11.428 18.428t-30 7.286q-14.572 0-26.143-4.572t-18.571-11-13-12.857-13.143-11-15.429-4.572q-14.285 0-21.572 8.572t-7.285 21.428q0 26.286 34.857 45t83.143 18.714q20.857 0 40-5.286t35-15.286 25.286-26.714 9.428-37.572zM438.857 365.714q0 45.428-32.143 77.572t-77.572 32.143q-37.143 0-66.857-22.857-22 4.572-42.857 4.572-40.857 0-78.143-15.857t-64.285-42.857-42.857-64.286-15.857-78.143q0-20.857 4.572-42.857-22.857-29.715-22.857-66.857 0-45.428 32.143-77.572t77.572-32.143q37.143 0 66.857 22.857 22-4.572 42.857-4.572 40.857 0 78.143 15.857t64.286 42.857 42.857 64.285 15.857 78.143q0 20.857-4.572 42.857 22.857 29.714 22.857 66.857z" fill="#000000" />
</svg>
