<?xml version="1.0" encoding="utf-8"?>
<!-- Generated by IcoMoon.io -->
<!DOCTYPE svg PUBLIC "-//W3C//DTD SVG 1.1//EN" "http://www.w3.org/Graphics/SVG/1.1/DTD/svg11.dtd">
<svg version="1.1" xmlns="http://www.w3.org/2000/svg" xmlns:xlink="http://www.w3.org/1999/xlink" width="439" height="512" viewBox="0 0 439 512">
<g>
</g>
	<path d="M324 307.143q-10.572 34.572-39.428 55.714t-65.143 21.143-65.143-21.143-39.428-55.714q-2.285-7.143 1.143-13.857t10.857-9q7.143-2.286 13.857 1.143t9 10.857q7.143 22.857 26.428 37t43.286 14.143 43.286-14.143 26.428-37q2.286-7.428 9.143-10.857t14-1.143 10.572 9 1.143 13.857zM182.857 182.857q0 15.143-10.714 25.857t-25.857 10.714-25.857-10.714-10.715-25.857 10.715-25.857 25.857-10.714 25.857 10.714 10.714 25.857zM329.143 182.857q0 15.143-10.714 25.857t-25.857 10.714-25.857-10.714-10.714-25.857 10.714-25.857 25.857-10.714 25.857 10.714 10.714 25.857zM402.286 256q0-37.143-14.572-71t-39-58.285-58.286-39-71-14.572-71 14.572-58.285 39-39 58.285-14.572 71 14.572 71 39 58.286 58.285 39 71 14.572 71-14.572 58.286-39 39-58.286 14.572-71zM438.857 256q0 59.714-29.428 110.143t-79.857 79.857-110.143 29.428-110.143-29.428-79.857-79.857-29.428-110.143 29.428-110.143 79.857-79.857 110.143-29.428 110.143 29.428 79.857 79.857 29.428 110.143z" fill="#000000" />
</svg>
