<?xml version="1.0" encoding="utf-8"?>
<!-- Generated by IcoMoon.io -->
<!DOCTYPE svg PUBLIC "-//W3C//DTD SVG 1.1//EN" "http://www.w3.org/Graphics/SVG/1.1/DTD/svg11.dtd">
<svg version="1.1" xmlns="http://www.w3.org/2000/svg" xmlns:xlink="http://www.w3.org/1999/xlink" width="512" height="512" viewBox="0 0 512 512">
<g>
</g>
	<path d="M210.286 411.428q0 3.428-2.857 6.857l-91.143 91.143q-2.857 2.572-6.572 2.572-3.428 0-6.572-2.572l-91.428-91.428q-4.285-4.572-2-10 2.285-5.714 8.572-5.714h54.857v-393.143q0-4 2.572-6.572t6.572-2.571h54.857q4 0 6.571 2.571t2.571 6.572v393.143h54.857q4 0 6.572 2.572t2.571 6.572zM512 448v54.857q0 4-2.572 6.572t-6.572 2.572h-237.714q-4 0-6.572-2.572t-2.571-6.572v-54.857q0-4 2.571-6.572t6.572-2.572h237.714q4 0 6.572 2.572t2.572 6.572zM457.143 301.714v54.857q0 4-2.572 6.572t-6.572 2.572h-182.857q-4 0-6.572-2.572t-2.571-6.572v-54.857q0-4 2.571-6.572t6.572-2.572h182.857q4 0 6.572 2.572t2.572 6.572zM402.286 155.429v54.857q0 4-2.572 6.572t-6.572 2.571h-128q-4 0-6.572-2.571t-2.571-6.572v-54.857q0-4 2.571-6.571t6.572-2.571h128q4 0 6.572 2.571t2.572 6.572zM347.428 9.143v54.857q0 4-2.572 6.572t-6.572 2.572h-73.143q-4 0-6.572-2.572t-2.571-6.572v-54.857q0-4 2.571-6.572t6.572-2.571h73.143q4 0 6.572 2.571t2.572 6.572z" fill="#000000" />
</svg>
