<?xml version="1.0" encoding="utf-8"?>
<!-- Generated by IcoMoon.io -->
<!DOCTYPE svg PUBLIC "-//W3C//DTD SVG 1.1//EN" "http://www.w3.org/Graphics/SVG/1.1/DTD/svg11.dtd">
<svg version="1.1" xmlns="http://www.w3.org/2000/svg" xmlns:xlink="http://www.w3.org/1999/xlink" width="439" height="512" viewBox="0 0 439 512">
<g>
</g>
	<path d="M384.572 375.143q0-18-12.572-33.143t-29.428-15.143q-14.857 0-23.714 10.572t-8.857 26.857 10.428 27.143 29.857 10.857q14.286 0 24.286-7.714t10-19.428zM210.286 411.428q0 3.428-2.857 6.857l-91.143 91.143q-2.857 2.572-6.572 2.572-3.428 0-6.572-2.572l-91.428-91.428q-4.285-4.572-2-10 2.285-5.714 8.572-5.714h54.857v-393.143q0-4 2.572-6.572t6.572-2.571h54.857q4 0 6.571 2.571t2.571 6.572v393.143h54.857q4 0 6.572 2.572t2.571 6.572zM424.572 391.714q0 17.714-3.714 34.714t-11.714 32.572-19.428 27.286-28.143 18.714-36.428 7q-17.714 0-30.857-4.572-6.857-2.286-12-4.286l11.143-32.286q4.286 2 8.857 3.143 10.572 3.714 21.428 3.714 24 0 38.428-16.714t19-41.572h-0.572q-6 6.572-17.572 10.572t-24.143 4q-30.286 0-49.428-20.428t-19.143-49.286q0-30 20.572-50.857t51.714-20.857q35.143 0 58.572 27t23.428 72.143zM416 186.857v32.571h-134v-32.572h47.714v-123.428q0-2 0.143-5.428t0.143-4.857v-4.572h-0.572l-2 3.428q-2.286 3.715-7.428 8.857l-17.714 16.572-23.428-24.572 54.857-52.857h35.143v186.857h47.143z" fill="#000000" />
</svg>
