<?xml version="1.0" encoding="utf-8"?>
<!-- Generated by IcoMoon.io -->
<!DOCTYPE svg PUBLIC "-//W3C//DTD SVG 1.1//EN" "http://www.w3.org/Graphics/SVG/1.1/DTD/svg11.dtd">
<svg version="1.1" xmlns="http://www.w3.org/2000/svg" xmlns:xlink="http://www.w3.org/1999/xlink" width="476" height="512" viewBox="0 0 476 512">
<g>
</g>
	<path d="M340.286 409.143h50.572l-20.572-62.286-3.428-13.428q-0.572-4.572-0.572-5.714h-1.143l-0.857 5.714q0 0.286-1 5.143t-2.143 8.286zM210.286 411.428q0 3.428-2.857 6.857l-91.143 91.143q-2.857 2.572-6.572 2.572-3.428 0-6.572-2.572l-91.428-91.428q-4.285-4.572-2-10 2.285-5.714 8.572-5.714h54.857v-393.143q0-4 2.572-6.572t6.572-2.571h54.857q4 0 6.571 2.571t2.571 6.572v393.143h54.857q4 0 6.572 2.572t2.571 6.572zM474.572 481.714v30.286h-82.286v-30.286h21.428l-13.428-41.143h-69.428l-13.428 41.143h21.428v30.285h-82v-30.286h20l65.714-189.143h46.286l65.714 189.143h20zM449.143 152.857v66.571h-166.857v-25.714l105.428-151.143q3.428-5.143 6-7.715l3.143-2.572v-0.857q-0.572 0-1.857 0.143t-2.143 0.143q-3.428 0.857-8.572 0.857h-66.286v32.857h-34.286v-65.428h162v25.428l-105.428 151.429q-1.714 2.286-6 7.429l-3.143 2.857v0.857l4-0.857q2.572-0.286 8.572-0.286h70.857v-34h34.572z" fill="#000000" />
</svg>
