<?xml version="1.0" encoding="utf-8"?>
<!-- Generated by IcoMoon.io -->
<!DOCTYPE svg PUBLIC "-//W3C//DTD SVG 1.1//EN" "http://www.w3.org/Graphics/SVG/1.1/DTD/svg11.dtd">
<svg version="1.1" xmlns="http://www.w3.org/2000/svg" xmlns:xlink="http://www.w3.org/1999/xlink" width="448" height="512" viewBox="0 0 448 512">
<g>
</g>
	<path d="M141.714 384q0 17.143-12.143 29.143t-29 12q-17.143 0-29.143-12t-12-29.143 12-29.143 29.143-12q16.857 0 29 12t12.143 29.143zM265.143 438.857q0 15.143-10.714 25.857t-25.857 10.714-25.857-10.714-10.714-25.857 10.714-25.857 25.857-10.714 25.857 10.714 10.714 25.857zM91.428 256q0 18.857-13.428 32.286t-32.285 13.428-32.285-13.428-13.428-32.286 13.428-32.286 32.285-13.428 32.285 13.428 13.428 32.286zM388.572 384q0 13.143-9.428 22.572t-22.572 9.428-22.572-9.428-9.428-22.572 9.428-22.572 22.572-9.428 22.572 9.428 9.428 22.572zM150.857 128q0 20.857-14.714 35.572t-35.572 14.714-35.572-14.714-14.715-35.572 14.715-35.572 35.572-14.715 35.572 14.715 14.714 35.572zM283.428 73.143q0 22.857-16 38.857t-38.857 16-38.857-16-16-38.857 16-38.857 38.857-16 38.857 16 16 38.857zM438.857 256q0 11.428-8 19.428t-19.428 8-19.428-8-8-19.428 8-19.428 19.428-8 19.428 8 8 19.428zM379.428 128q0 9.428-6.714 16.143t-16.143 6.714-16.143-6.714-6.714-16.143 6.714-16.143 16.143-6.715 16.143 6.715 6.714 16.143z" fill="#000000" />
</svg>
