<?xml version="1.0" encoding="utf-8"?>
<!-- Generated by IcoMoon.io -->
<!DOCTYPE svg PUBLIC "-//W3C//DTD SVG 1.1//EN" "http://www.w3.org/Graphics/SVG/1.1/DTD/svg11.dtd">
<svg version="1.1" xmlns="http://www.w3.org/2000/svg" xmlns:xlink="http://www.w3.org/1999/xlink" width="403" height="512" viewBox="0 0 403 512">
<g>
</g>
	<path d="M265.143 400.286v43.143l-202 0.286v-43.143zM334 301.428v200.286l-0.286 10v0.286l-333.714-0.286v-210.286h34.572v176.572h265.143v-176.572h34.286zM68.857 326.572l201.143 18.572-3.714 42.857-201.429-18.572zM88.285 236.286l195.143 52.286-11.143 41.714-195.143-52.286zM134.857 136.571l174 102.857-22 37.143-174-102.857zM237.714 42l113.714 167.143-35.428 24.285-114-166.857zM367.143 0l34.572 199.143-42.572 7.429-34.572-199.143z" fill="#000000" />
</svg>
