<?xml version="1.0" encoding="utf-8"?>
<!-- Generated by IcoMoon.io -->
<!DOCTYPE svg PUBLIC "-//W3C//DTD SVG 1.1//EN" "http://www.w3.org/Graphics/SVG/1.1/DTD/svg11.dtd">
<svg version="1.1" xmlns="http://www.w3.org/2000/svg" xmlns:xlink="http://www.w3.org/1999/xlink" width="476" height="512" viewBox="0 0 476 512">
<g>
</g>
	<path d="M338.857 273.428l73.428-71.428-120.572-17.714-8.572-17.143-45.428-92v275.143l16.857 8.857 90.857 48-17.143-101.428-3.428-18.857zM468 198.571l-103.714 101.143 24.572 142.857q1.428 9.428-1.714 14.714t-9.714 5.286q-4.857 0-11.428-3.428l-128.286-67.428-128.286 67.428q-6.572 3.428-11.428 3.428-6.572 0-9.715-5.286t-1.715-14.714l24.572-142.857-104-101.143q-9.143-9.143-6.572-17t15.428-9.857l143.429-20.857 64.286-130q5.714-11.714 14-11.714 8 0 14 11.714l64.286 130 143.429 20.857q12.857 2 15.428 9.857t-6.857 17z" fill="#000000" />
</svg>
