<?xml version="1.0" encoding="utf-8"?>
<!-- Generated by IcoMoon.io -->
<!DOCTYPE svg PUBLIC "-//W3C//DTD SVG 1.1//EN" "http://www.w3.org/Graphics/SVG/1.1/DTD/svg11.dtd">
<svg version="1.1" xmlns="http://www.w3.org/2000/svg" xmlns:xlink="http://www.w3.org/1999/xlink" width="512" height="512" viewBox="0 0 512 512">
<g>
</g>
	<path d="M502.857 256q4 0 6.572 2.572t2.571 6.572v18.286q0 4-2.572 6.572t-6.572 2.572h-493.714q-4 0-6.572-2.572t-2.571-6.572v-18.286q0-4 2.571-6.572t6.572-2.572h493.714zM138 237.714q-8-10-14.572-22.857-13.715-27.715-13.715-53.715 0-51.715 38.286-88.285 38-36.285 112.286-36.285 14.286 0 47.714 5.428 18.857 3.428 50.572 13.715 2.857 10.857 6 33.715 4 35.143 4 52.285 0 5.143-1.428 12.857l-3.428 0.857-24-1.714-4-0.571q-14.286-42.572-29.428-58.572-25.143-26-60-26-32.572 0-52 16.857-19.143 16.572-19.143 41.715 0 20.857 18.857 40t79.714 36.857q19.714 5.714 49.428 18.857 16.572 8 27.143 14.857h-212.286zM282.857 310.857h117.428q2 11.143 2 26.286 0 31.714-11.714 60.572-6.572 15.714-20.286 29.714-10.572 10-31.143 23.143-22.857 13.714-43.714 18.857-22.857 6-58 6-32.572 0-55.714-6.572l-40-11.428q-16.285-4.572-20.572-8-2.285-2.286-2.285-6.286v-3.714q0-30.857-0.572-44.572-0.285-8.572 0-19.428l0.572-10.572v-12.572l29.143-0.572q4.286 9.714 8.572 20.286t6.428 16 3.571 7.714q10 16.286 22.857 26.857 12.286 10.286 30 16.286 16.857 6.286 37.714 6.286 18.286 0 39.714-7.714 22-7.428 34.857-24.572 13.428-17.428 13.428-36.857 0-24-23.143-44.857-9.714-8.286-39.143-20.286z" fill="#000000" />
</svg>
