<?xml version="1.0" encoding="utf-8"?>
<!-- Generated by IcoMoon.io -->
<!DOCTYPE svg PUBLIC "-//W3C//DTD SVG 1.1//EN" "http://www.w3.org/Graphics/SVG/1.1/DTD/svg11.dtd">
<svg version="1.1" xmlns="http://www.w3.org/2000/svg" xmlns:xlink="http://www.w3.org/1999/xlink" width="512" height="512" viewBox="0 0 512 512">
<g>
</g>
	<path d="M420.572 256q0-33.428-13-63.857t-35.143-52.571-52.572-35.143-63.857-13-63.857 13-52.572 35.143-35.143 52.572-13 63.857 13 63.857 35.143 52.572 52.572 35.143 63.857 13 63.857-13 52.572-35.143 35.143-52.572 13-63.857zM499.428 335.143q-1.143 4.286-5.714 5.714l-83.428 27.428v87.428q0 4.572-3.714 7.428-4.286 2.857-8.286 1.143l-83.428-26.857-51.428 70.857q-2.857 3.715-7.428 3.715t-7.428-3.714l-51.428-70.857-83.428 26.857q-4 1.714-8.285-1.143-3.715-2.857-3.715-7.428v-87.428l-83.428-27.428q-4.572-1.428-5.715-5.714-1.428-4.857 1.143-8.286l51.428-70.857-51.428-70.857q-2.572-3.714-1.143-8.286 1.143-4.286 5.715-5.714l83.428-27.429v-87.428q0-4.572 3.715-7.428 4.285-2.857 8.285-1.143l83.428 26.857 51.428-70.857q2.571-3.429 7.428-3.429t7.428 3.429l51.428 70.857 83.428-26.857q4-1.715 8.286 1.143 3.714 2.857 3.714 7.428v87.428l83.428 27.428q4.572 1.429 5.714 5.714 1.428 4.572-1.143 8.286l-51.428 70.857 51.428 70.857q2.572 3.428 1.143 8.286z" fill="#000000" />
</svg>
