<?xml version="1.0" encoding="utf-8"?>
<!-- Generated by IcoMoon.io -->
<!DOCTYPE svg PUBLIC "-//W3C//DTD SVG 1.1//EN" "http://www.w3.org/Graphics/SVG/1.1/DTD/svg11.dtd">
<svg version="1.1" xmlns="http://www.w3.org/2000/svg" xmlns:xlink="http://www.w3.org/1999/xlink" width="439" height="512" viewBox="0 0 439 512">
<g>
</g>
	<path d="M256.286 391.143v47.714h-70.857l-45.429-72-6.857-12q-2.286-2.572-3.143-6h-0.857l-2.572 6q-2.857 5.714-7.143 12.572l-44.285 71.428h-73.715v-47.714h36.572l56.285-83.143-52.857-77.714h-39.143v-48h78.857l39.715 65.143q0.572 1.143 6.572 12 2.285 2.572 3.143 6h0.857q0.857-2.572 3.143-6l7.143-12 40-65.143h73.428v48h-35.714l-52.572 76.285 58.286 84.572h31.143zM438.286 197.143v58.857h-146.857l-0.857-7.714q-1.143-8-1.143-13.143 0-18.285 7.428-33.429t18.572-24.714 24-18.572 24-15.572 18.572-15.428 7.428-18.285q0-10.857-8.428-17.857t-20.143-7q-14.572 0-27.714 11.143-4 3.143-10.286 10.857l-30-26.285q7.428-10.572 18-18.857 23.714-18.572 53.714-18.572 31.428 0 50.857 17t19.428 45.285q0 16-7 29.428t-17.714 21.857-23.286 16.714-23.428 14.428-18.714 14.714-8.714 18h66.286v-22.857h36z" fill="#000000" />
</svg>
