<?xml version="1.0" encoding="utf-8"?>
<!-- Generated by IcoMoon.io -->
<!DOCTYPE svg PUBLIC "-//W3C//DTD SVG 1.1//EN" "http://www.w3.org/Graphics/SVG/1.1/DTD/svg11.dtd">
<svg version="1.1" xmlns="http://www.w3.org/2000/svg" xmlns:xlink="http://www.w3.org/1999/xlink" width="329" height="512" viewBox="0 0 329 512">
<g>
</g>
	<path d="M182.857 402.286q0-7.428-5.429-12.857t-12.857-5.428-12.857 5.428-5.428 12.857 5.428 12.857 12.857 5.428 12.857-5.428 5.428-12.857zM292.572 356.572v-274.286q0-3.715-2.714-6.428t-6.428-2.715h-237.714q-3.715 0-6.428 2.715t-2.715 6.428v274.286q0 3.714 2.715 6.428t6.428 2.714h237.714q3.714 0 6.428-2.714t2.714-6.428zM329.143 82.285v310.857q0 18.857-13.428 32.286t-32.286 13.428h-237.714q-18.857 0-32.285-13.428t-13.428-32.286v-310.857q0-18.857 13.428-32.285t32.285-13.428h237.714q18.857 0 32.286 13.428t13.428 32.285z" fill="#000000" />
</svg>
