<?xml version="1.0" encoding="utf-8"?>
<!-- Generated by IcoMoon.io -->
<!DOCTYPE svg PUBLIC "-//W3C//DTD SVG 1.1//EN" "http://www.w3.org/Graphics/SVG/1.1/DTD/svg11.dtd">
<svg version="1.1" xmlns="http://www.w3.org/2000/svg" xmlns:xlink="http://www.w3.org/1999/xlink" width="476" height="512" viewBox="0 0 476 512">
<g>
</g>
	<path d="M146.286 393.143v-54.857q0-4-2.571-6.572t-6.571-2.572h-91.428q-4 0-6.572 2.572t-2.572 6.572v54.857q0 4 2.572 6.572t6.572 2.572h91.428q4 0 6.572-2.572t2.571-6.572zM146.286 283.428v-54.857q0-4-2.571-6.571t-6.571-2.571h-91.428q-4 0-6.572 2.571t-2.572 6.572v54.857q0 4 2.572 6.572t6.572 2.572h91.428q4 0 6.572-2.572t2.571-6.572zM292.572 393.143v-54.857q0-4-2.572-6.572t-6.572-2.572h-91.428q-4 0-6.572 2.572t-2.571 6.572v54.857q0 4 2.571 6.572t6.572 2.572h91.428q4 0 6.572-2.572t2.572-6.572zM146.286 173.714v-54.857q0-4-2.571-6.572t-6.571-2.572h-91.428q-4 0-6.572 2.572t-2.572 6.572v54.857q0 4 2.572 6.572t6.572 2.571h91.428q4 0 6.572-2.571t2.571-6.572zM292.572 283.428v-54.857q0-4-2.572-6.571t-6.572-2.571h-91.428q-4 0-6.572 2.571t-2.571 6.572v54.857q0 4 2.571 6.572t6.572 2.572h91.428q4 0 6.572-2.572t2.572-6.572zM438.857 393.143v-54.857q0-4-2.572-6.572t-6.572-2.572h-91.428q-4 0-6.572 2.572t-2.572 6.572v54.857q0 4 2.572 6.572t6.572 2.572h91.428q4 0 6.572-2.572t2.572-6.572zM292.572 173.714v-54.857q0-4-2.572-6.572t-6.572-2.572h-91.428q-4 0-6.572 2.572t-2.571 6.572v54.857q0 4 2.571 6.572t6.572 2.571h91.428q4 0 6.572-2.571t2.572-6.572zM438.857 283.428v-54.857q0-4-2.572-6.571t-6.572-2.571h-91.428q-4 0-6.572 2.571t-2.572 6.572v54.857q0 4 2.572 6.572t6.572 2.572h91.428q4 0 6.572-2.572t2.572-6.572zM438.857 173.714v-54.857q0-4-2.572-6.572t-6.572-2.572h-91.428q-4 0-6.572 2.572t-2.572 6.572v54.857q0 4 2.572 6.572t6.572 2.571h91.428q4 0 6.572-2.571t2.572-6.572zM475.428 82.285v310.857q0 18.857-13.428 32.286t-32.286 13.428h-384q-18.857 0-32.285-13.428t-13.428-32.286v-310.857q0-18.857 13.428-32.285t32.285-13.428h384q18.857 0 32.286 13.428t13.428 32.285z" fill="#000000" />
</svg>
