<?xml version="1.0" encoding="utf-8"?>
<!-- Generated by IcoMoon.io -->
<!DOCTYPE svg PUBLIC "-//W3C//DTD SVG 1.1//EN" "http://www.w3.org/Graphics/SVG/1.1/DTD/svg11.dtd">
<svg version="1.1" xmlns="http://www.w3.org/2000/svg" xmlns:xlink="http://www.w3.org/1999/xlink" width="439" height="512" viewBox="0 0 439 512">
<g>
</g>
	<path d="M128 128q0-15.143-10.715-25.857t-25.857-10.715-25.857 10.715-10.715 25.857 10.715 25.857 25.857 10.714 25.857-10.714 10.715-25.857zM432.857 292.572q0 15.143-10.572 25.714l-140.286 140.571q-11.143 10.572-26 10.572-15.143 0-25.714-10.572l-204.286-204.571q-10.857-10.571-18.428-28.857t-7.572-33.428v-118.857q0-14.857 10.857-25.715t25.715-10.857h118.857q15.143 0 33.428 7.572t29.143 18.428l204.285 204q10.572 11.143 10.572 26z" fill="#000000" />
</svg>
