<?xml version="1.0" encoding="utf-8"?>
<!-- Generated by IcoMoon.io -->
<!DOCTYPE svg PUBLIC "-//W3C//DTD SVG 1.1//EN" "http://www.w3.org/Graphics/SVG/1.1/DTD/svg11.dtd">
<svg version="1.1" xmlns="http://www.w3.org/2000/svg" xmlns:xlink="http://www.w3.org/1999/xlink" width="476" height="512" viewBox="0 0 476 512">
<g>
</g>
	<path d="M167.143 280.857l-133.143 133.143q-2.857 2.857-6.572 2.857t-6.572-2.857l-14.286-14.286q-2.857-2.857-2.857-6.572t2.857-6.572l112.285-112.286-112.285-112.286q-2.857-2.857-2.857-6.572t2.857-6.572l14.285-14.286q2.857-2.857 6.572-2.857t6.572 2.857l133.143 133.143q2.857 2.857 2.857 6.572t-2.857 6.572zM475.428 411.428v18.286q0 4-2.572 6.572t-6.572 2.572h-274.286q-4 0-6.572-2.572t-2.571-6.572v-18.286q0-4 2.571-6.572t6.572-2.572h274.286q4 0 6.572 2.572t2.572 6.572z" fill="#000000" />
</svg>
