<?xml version="1.0" encoding="utf-8"?>
<!-- Generated by IcoMoon.io -->
<!DOCTYPE svg PUBLIC "-//W3C//DTD SVG 1.1//EN" "http://www.w3.org/Graphics/SVG/1.1/DTD/svg11.dtd">
<svg version="1.1" xmlns="http://www.w3.org/2000/svg" xmlns:xlink="http://www.w3.org/1999/xlink" width="476" height="512" viewBox="0 0 476 512">
<g>
</g>
	<path d="M219.429 292.572v109.714q0 14.857-10.857 25.714t-25.714 10.857h-146.286q-14.857 0-25.715-10.857t-10.857-25.714v-109.714q0-14.857 10.857-25.714t25.715-10.857h146.286q14.857 0 25.714 10.857t10.857 25.714zM219.429 73.143v109.715q0 14.857-10.857 25.714t-25.714 10.857h-146.286q-14.857 0-25.715-10.857t-10.857-25.714v-109.715q0-14.857 10.857-25.715t25.715-10.857h146.286q14.857 0 25.714 10.857t10.857 25.715zM475.428 292.572v109.714q0 14.857-10.857 25.714t-25.714 10.857h-146.286q-14.857 0-25.714-10.857t-10.857-25.714v-109.714q0-14.857 10.857-25.714t25.714-10.857h146.286q14.857 0 25.714 10.857t10.857 25.714zM475.428 73.143v109.715q0 14.857-10.857 25.714t-25.714 10.857h-146.286q-14.857 0-25.714-10.857t-10.857-25.714v-109.715q0-14.857 10.857-25.715t25.714-10.857h146.286q14.857 0 25.714 10.857t10.857 25.715z" fill="#000000" />
</svg>
