<?xml version="1.0" encoding="utf-8"?>
<!-- Generated by IcoMoon.io -->
<!DOCTYPE svg PUBLIC "-//W3C//DTD SVG 1.1//EN" "http://www.w3.org/Graphics/SVG/1.1/DTD/svg11.dtd">
<svg version="1.1" xmlns="http://www.w3.org/2000/svg" xmlns:xlink="http://www.w3.org/1999/xlink" width="439" height="512" viewBox="0 0 439 512">
<g>
</g>
	<path d="M73.143 384q0-7.428-5.428-12.857t-12.857-5.428-12.857 5.428-5.428 12.857 5.428 12.857 12.857 5.428 12.857-5.428 5.428-12.857zM402.286 219.429q0-14.571-11.143-25.571t-25.428-11h-100.572q0-16.572 13.714-45.572t13.714-45.857q0-28-9.143-41.428t-36.572-13.428q-7.428 7.428-10.857 24.285t-8.714 35.857-17 31.285q-6.286 6.572-22 26-1.143 1.429-6.571 8.572t-9 11.714-9.857 12.143-11.429 12.571-11 10.143-11.428 7.714-10.143 2.571h-9.143v182.857h9.143q3.715 0 9 0.857t9.429 1.857 10.857 3.143 10 3.286 10.143 3.572 8.286 3q60.286 20.857 97.714 20.857h34.572q54.857 0 54.857-47.714 0-7.428-1.428-16 8.572-4.572 13.572-15t5-21-5.143-19.714q15.143-14.286 15.143-34 0-7.143-2.857-15.857t-7.143-13.572q9.143-0.286 15.286-13.428t6.143-23.143zM438.857 219.143q0 25.429-14 46.571 2.572 9.428 2.572 19.714 0 22-10.857 41.143 0.857 6 0.857 12.286 0 28.857-17.143 50.857 0.286 39.714-24.286 62.714t-64.857 23h-36.857q-27.428 0-54.143-6.428t-61.857-18.714q-33.143-11.428-39.428-11.428h-82.285q-15.143 0-25.857-10.714t-10.714-25.857v-182.857q0-15.143 10.714-25.857t25.857-10.714h78.285q10.285-6.857 39.143-44.286 16.572-21.428 30.572-36.572 6.857-7.143 10.143-24.428t8.714-36.143 17.715-30.857q11.143-10.572 25.714-10.572 24 0 43.143 9.286t29.143 29 10 53.143q0 26.572-13.714 54.857h50.286q29.714 0 51.428 21.714t21.714 51.143z" fill="#000000" />
</svg>
