<?xml version="1.0" encoding="utf-8"?>
<!-- Generated by IcoMoon.io -->
<!DOCTYPE svg PUBLIC "-//W3C//DTD SVG 1.1//EN" "http://www.w3.org/Graphics/SVG/1.1/DTD/svg11.dtd">
<svg version="1.1" xmlns="http://www.w3.org/2000/svg" xmlns:xlink="http://www.w3.org/1999/xlink" width="439" height="512" viewBox="0 0 439 512">
<g>
</g>
	<path d="M73.143 128q0-7.428-5.428-12.857t-12.857-5.428-12.857 5.428-5.428 12.857 5.428 12.857 12.857 5.429 12.857-5.428 5.428-12.857zM402.286 292.572q0-10-6.143-23.143t-15.286-13.428q4.286-4.857 7.143-13.572t2.857-15.857q0-19.715-15.143-34 5.143-9.143 5.143-19.715t-5-21-13.572-15q1.428-8.572 1.428-16 0-24.285-14-36t-38.857-11.715h-36.572q-37.428 0-97.714 20.857-1.429 0.572-8.286 3t-10.143 3.572-10 3.285-10.857 3.143-9.428 1.857-9 0.857h-9.143v182.857h9.143q4.572 0 10.143 2.572t11.428 7.714 11 10.143 11.428 12.572 9.857 12.143 9 11.714 6.571 8.572q15.714 19.428 22 26 11.714 12.286 17 31.286t8.714 35.857 10.857 24.286q27.429 0 36.571-13.428t9.143-41.428q0-16.857-13.714-45.857t-13.714-45.572h100.572q14.286 0 25.428-11t11.143-25.572zM438.857 292.857q0 29.428-21.714 51.143t-51.428 21.714h-50.286q13.714 28.286 13.714 54.857 0 33.714-10 53.143-10 19.714-29.143 29t-43.143 9.285q-14.571 0-25.715-10.572-9.714-9.428-15.428-23.428t-7.286-25.857-5-24.143-8.857-18.286q-13.714-14.286-30.571-36.286-28.857-37.428-39.143-44.286h-78.285q-15.143 0-25.857-10.714t-10.714-25.857v-182.857q0-15.143 10.714-25.857t25.857-10.715h82.285q6.285 0 39.429-11.428 36.572-12.572 63.714-18.857t57.143-6.285h32q40 0 64.714 22.572t24.428 61.715v1.428q17.143 22 17.143 50.857 0 6.286-0.857 12.286 10.857 19.143 10.857 41.143 0 10.286-2.572 19.715 14 21.143 14 46.572z" fill="#000000" />
</svg>
