<?xml version="1.0" encoding="utf-8"?>
<!-- Generated by IcoMoon.io -->
<!DOCTYPE svg PUBLIC "-//W3C//DTD SVG 1.1//EN" "http://www.w3.org/Graphics/SVG/1.1/DTD/svg11.dtd">
<svg version="1.1" xmlns="http://www.w3.org/2000/svg" xmlns:xlink="http://www.w3.org/1999/xlink" width="476" height="512" viewBox="0 0 476 512">
<g>
</g>
	<path d="M73.143 384q0-7.428-5.428-12.857t-12.857-5.428q-7.715 0-13 5.428t-5.285 12.857q0 7.714 5.285 13t13 5.286q7.428 0 12.857-5.286t5.428-13zM118.857 237.714v182.857q0 7.428-5.428 12.857t-12.857 5.428h-82.285q-7.428 0-12.857-5.428t-5.428-12.857v-182.857q0-7.429 5.428-12.857t12.857-5.428h82.285q7.428 0 12.857 5.428t5.428 12.857zM457.143 237.714q0 24.572-15.714 42.572 4.286 12.572 4.286 21.714 0.857 21.714-12.286 39.143 4.857 16 0 33.428-4.286 16.286-15.428 26.857 2.572 32-14 51.714-18.286 21.714-56.286 22.286h-36.857q-18.857 0-41.143-4.428t-34.714-8.286-34.428-11.286q-35.143-12.286-45.143-12.572-7.429-0.286-12.857-5.572t-5.428-12.714v-183.143q0-7.143 5.143-12.429t12.286-5.857q6.857-0.571 21.715-16.857t28.857-34.572q19.429-24.857 28.857-34.286 5.143-5.143 8.857-13.715t5-13.857 3.857-17.285q2-11.143 3.571-17.428t5.571-14.857 9.714-14.285q5.428-5.428 12.857-5.428 13.143 0 23.572 3t17.143 7.428 11.428 11.572 6.857 12.857 3.428 14.285 1.428 12.857 0.143 11.143q0 10.857-2.714 21.714t-5.428 17.143-7.857 16q-0.857 1.714-2.857 5.143t-3.143 6.286-2.286 6.857h79.143q22.286 0 38.572 16.285t16.286 38.572z" fill="#000000" />
</svg>
