<?xml version="1.0" encoding="utf-8"?>
<!-- Generated by IcoMoon.io -->
<!DOCTYPE svg PUBLIC "-//W3C//DTD SVG 1.1//EN" "http://www.w3.org/Graphics/SVG/1.1/DTD/svg11.dtd">
<svg version="1.1" xmlns="http://www.w3.org/2000/svg" xmlns:xlink="http://www.w3.org/1999/xlink" width="476" height="512" viewBox="0 0 476 512">
<g>
</g>
	<path d="M73.143 164.571q0 7.429-5.428 12.857t-12.857 5.428q-7.715 0-13-5.428t-5.285-12.857q0-7.714 5.285-13t13-5.286q7.428 0 12.857 5.286t5.428 13zM118.857 310.857v-182.857q0-7.428-5.428-12.857t-12.857-5.428h-82.285q-7.428 0-12.857 5.428t-5.428 12.857v182.857q0 7.428 5.428 12.857t12.857 5.428h82.285q7.428 0 12.857-5.428t5.428-12.857zM441.428 268.286q15.714 17.428 15.714 42.572-0.286 22.286-16.428 38.572t-38.428 16.286h-79.143q1.143 4 2.286 6.857t3.143 6.286 2.857 5.143q5.143 10.572 7.714 16.286t5.428 16.714 2.857 21.857q0 6.857-0.143 11.143t-1.428 12.857-3.428 14.286-6.857 12.857-11.428 11.572-17.143 7.428-23.572 3q-7.428 0-12.857-5.428-5.714-5.714-9.714-14.286t-5.572-14.857-3.571-17.428q-2.571-12-3.857-17.286t-5-13.857-8.857-13.714q-9.429-9.428-28.857-34.286-14-18.286-28.857-34.572t-21.715-16.857q-7.143-0.572-12.286-5.857t-5.143-12.428v-183.143q0-7.428 5.429-12.715t12.857-5.572q10-0.285 45.143-12.572 22-7.428 34.428-11.285t34.714-8.285 41.143-4.428h36.857q38 0.572 56.286 22.285 16.572 19.715 14 51.715 11.143 10.572 15.428 26.857 4.857 17.429 0 33.429 13.143 17.428 12.286 39.143 0 9.143-4.286 21.715z" fill="#000000" />
</svg>
