<?xml version="1.0" encoding="utf-8"?>
<!-- Generated by IcoMoon.io -->
<!DOCTYPE svg PUBLIC "-//W3C//DTD SVG 1.1//EN" "http://www.w3.org/Graphics/SVG/1.1/DTD/svg11.dtd">
<svg version="1.1" xmlns="http://www.w3.org/2000/svg" xmlns:xlink="http://www.w3.org/1999/xlink" width="512" height="512" viewBox="0 0 512 512">
<g>
</g>
	<path d="M292.572 129.143l90.286 90.285-163.429 163.428-90.285-90.286zM232.286 408.857l176.571-176.571q5.428-5.429 5.428-12.857t-5.428-12.857l-103.428-103.428q-5.143-5.143-12.857-5.143t-12.857 5.143l-176.571 176.572q-5.428 5.428-5.428 12.857t5.428 12.857l103.429 103.428q5.143 5.143 12.857 5.143t12.857-5.143zM486.286 226.857l-259.143 259.428q-10.572 10.572-25.857 10.572t-25.857-10.572l-36-36q16-16 16-38.857t-16-38.857-38.857-16-38.857 16l-35.715-36q-10.572-10.572-10.572-25.857t10.572-25.857l259.143-258.857q10.572-10.572 25.857-10.572t25.857 10.572l35.714 35.715q-16 16-16 38.857t16 38.857 38.857 16 38.857-16l36 35.714q10.572 10.572 10.572 25.857t-10.572 25.857z" fill="#000000" />
</svg>
