<?xml version="1.0" encoding="utf-8"?>
<!-- Generated by IcoMoon.io -->
<!DOCTYPE svg PUBLIC "-//W3C//DTD SVG 1.1//EN" "http://www.w3.org/Graphics/SVG/1.1/DTD/svg11.dtd">
<svg version="1.1" xmlns="http://www.w3.org/2000/svg" xmlns:xlink="http://www.w3.org/1999/xlink" width="439" height="512" viewBox="0 0 439 512">
<g>
</g>
	<path d="M201.143 384v-292.572q0-4-2.571-6.572t-6.572-2.572h-137.143q-4 0-6.572 2.572t-2.572 6.572v292.572q0 4 2.572 6.572t6.572 2.572h137.143q4 0 6.572-2.572t2.571-6.572zM393.143 274.286v-182.857q0-4-2.572-6.572t-6.572-2.572h-137.143q-4 0-6.571 2.572t-2.571 6.572v182.857q0 4 2.571 6.572t6.572 2.572h137.143q4 0 6.572-2.572t2.572-6.572zM438.857 54.857v402.286q0 7.428-5.428 12.857t-12.857 5.428h-402.286q-7.428 0-12.857-5.428t-5.428-12.857v-402.286q0-7.428 5.428-12.857t12.857-5.428h402.286q7.428 0 12.857 5.428t5.428 12.857z" fill="#000000" />
</svg>
