<?xml version="1.0" encoding="utf-8"?>
<!-- Generated by IcoMoon.io -->
<!DOCTYPE svg PUBLIC "-//W3C//DTD SVG 1.1//EN" "http://www.w3.org/Graphics/SVG/1.1/DTD/svg11.dtd">
<svg version="1.1" xmlns="http://www.w3.org/2000/svg" xmlns:xlink="http://www.w3.org/1999/xlink" width="512" height="512" viewBox="0 0 512 512">
<g>
</g>
	<path d="M182.857 402.286q0-14.857-10.857-25.714t-25.714-10.857-25.715 10.857-10.857 25.714 10.857 25.714 25.715 10.857 25.714-10.857 10.857-25.714zM73.143 256h109.715v-73.143h-45.143q-3.714 0-6.286 2.571l-55.715 55.714q-2.572 2.571-2.572 6.286v8.572zM438.857 402.286q0-14.857-10.857-25.714t-25.714-10.857-25.714 10.857-10.857 25.714 10.857 25.714 25.714 10.857 25.714-10.857 10.857-25.714zM512 91.428v292.572q0 4.286-1.143 7.572t-3.857 5.286-4.714 3.286-6.714 1.714-6.428 0.572-7.286 0-6.428-0.143q0 30.286-21.428 51.714t-51.714 21.428-51.714-21.428-21.428-51.714h-109.714q0 30.286-21.428 51.714t-51.714 21.428-51.715-21.428-21.428-51.714h-18.285q-0.857 0-6.428 0.143t-7.285 0-6.428-0.572-6.715-1.714-4.715-3.286-3.857-5.286-1.143-7.572q0-7.428 5.428-12.857t12.857-5.428v-91.428q0-2.286-0.143-10t0-10.857 0.715-9.857 1.857-10.572 4-8.714 6.428-8.572l56.572-56.572q5.428-5.428 14.428-9.143t16.715-3.714h45.715v-54.857q0-7.428 5.428-12.857t12.857-5.428h292.572q7.428 0 12.857 5.428t5.428 12.857z" fill="#000000" />
</svg>
