<?xml version="1.0" encoding="utf-8"?>
<!-- Generated by IcoMoon.io -->
<!DOCTYPE svg PUBLIC "-//W3C//DTD SVG 1.1//EN" "http://www.w3.org/Graphics/SVG/1.1/DTD/svg11.dtd">
<svg version="1.1" xmlns="http://www.w3.org/2000/svg" xmlns:xlink="http://www.w3.org/1999/xlink" width="439" height="512" viewBox="0 0 439 512">
<g>
</g>
	<path d="M320.857 402.572v-51.714q-25.143 16-49.714 16-14.572 0-25.143-6.572-8.286-4.857-11.143-12.857-3.143-8.572-3.143-36.857v-84.286h78.285v-51.714h-78.286v-83.143h-46.857q-3.143 25.715-11.429 42t-22.286 28.285q-13.714 11.428-33.143 18v46.572h36.285v115.428q0 22.286 4.857 34.572 4.857 12 16.857 22.286 12.286 10.572 29.714 16.286 17.714 5.714 40 5.714 19.143 0 36.857-4 16.286-3.714 38.286-14zM438.857 118.857v274.286q0 34-24.143 58.143t-58.143 24.143h-274.286q-34 0-58.143-24.143t-24.143-58.143v-274.286q0-34 24.143-58.143t58.143-24.143h274.286q34 0 58.143 24.143t24.143 58.143z" fill="#000000" />
</svg>
