<?xml version="1.0" encoding="utf-8"?>
<!-- Generated by IcoMoon.io -->
<!DOCTYPE svg PUBLIC "-//W3C//DTD SVG 1.1//EN" "http://www.w3.org/Graphics/SVG/1.1/DTD/svg11.dtd">
<svg version="1.1" xmlns="http://www.w3.org/2000/svg" xmlns:xlink="http://www.w3.org/1999/xlink" width="293" height="512" viewBox="0 0 293 512">
<g>
</g>
	<path d="M111.428 36.572h62.572v110.857h104v68.857h-104v112.571q0 38.857 4 49.143 3.714 10.572 14.857 17.143 14.286 8.857 33.429 8.857 33.428 0 66.286-21.714v69.143q-29.143 13.714-50.857 18.572-22 5.428-49.429 5.428-30 0-53.143-7.714-22.285-7.143-39.428-21.428-16.572-14.572-22.572-30-6.285-15.428-6.285-46v-154h-48.572v-62q26-8.572 44.285-24 18.285-15.715 29.428-37.715t15.428-56z" fill="#000000" />
</svg>
