<?xml version="1.0" encoding="utf-8"?>
<!-- Generated by IcoMoon.io -->
<!DOCTYPE svg PUBLIC "-//W3C//DTD SVG 1.1//EN" "http://www.w3.org/Graphics/SVG/1.1/DTD/svg11.dtd">
<svg version="1.1" xmlns="http://www.w3.org/2000/svg" xmlns:xlink="http://www.w3.org/1999/xlink" width="439" height="512" viewBox="0 0 439 512">
<g>
</g>
	<path d="M13.714 63.715q-10.572-0.572-12.857-1.143l-0.857-25.143q3.715-0.285 11.428-0.285 17.143 0 32 1.143 37.715 2 47.428 2 24.572 0 48-0.857 33.143-1.143 41.714-1.428 16 0 24.572-0.572l-0.286 4 0.571 18.285v2.572q-17.143 2.572-35.429 2.572-17.143 0-22.572 7.143-3.714 4-3.714 37.715 0 3.715 0.143 9.285t0.143 7.285l0.286 65.428 4 80q1.714 35.428 14.572 57.714 10 16.857 27.428 26.286 25.143 13.428 50.572 13.428 29.714 0 54.572-8 16-5.143 28.286-14.572 13.714-10.286 18.572-18.286 10.286-16 15.143-32.572 6-20.857 6-65.428 0-22.572-1-36.572t-3.143-35-3.857-45.572l-1.143-16.857q-1.428-19.143-6.857-25.143-9.714-10-22-9.715l-28.572 0.572-4-0.857 0.572-24.572h24l58.572 2.857q21.714 0.857 56-2.857l5.143 0.572q1.714 10.857 1.714 14.572 0 2-1.143 8.857-12.857 3.428-24 3.715-20.857 3.143-22.572 4.857-4.286 4.285-4.286 11.715 0 2 0.428 7.715t0.428 8.857q2.286 5.428 6.286 113.143 1.714 55.714-4.286 86.857-4.286 21.714-11.714 34.857-10.857 18.572-32 35.143-21.428 16.286-52 25.428-31.143 9.428-72.857 9.428-47.715 0-81.143-13.143-34-13.428-51.143-34.857-17.428-21.714-23.715-55.714-4.572-22.857-4.572-67.714v-95.143q0-53.715-4.857-60.857-7.143-10.285-42-11.143zM438.857 466.286v-18.286q0-4-2.572-6.572t-6.572-2.572h-420.572q-4 0-6.572 2.572t-2.571 6.572v18.286q0 4 2.571 6.572t6.572 2.572h420.572q4 0 6.572-2.572t2.572-6.572z" fill="#000000" />
</svg>
