<?xml version="1.0" encoding="utf-8"?>
<!-- Generated by IcoMoon.io -->
<!DOCTYPE svg PUBLIC "-//W3C//DTD SVG 1.1//EN" "http://www.w3.org/Graphics/SVG/1.1/DTD/svg11.dtd">
<svg version="1.1" xmlns="http://www.w3.org/2000/svg" xmlns:xlink="http://www.w3.org/1999/xlink" width="439" height="512" viewBox="0 0 439 512">
<g>
</g>
	<path d="M438.857 256q0 44.572-17.428 85.143t-46.857 70-70 46.857-85.143 17.428q-49.143 0-93.428-20.714t-75.428-58.428q-2-2.857-1.857-6.428t2.428-5.857l39.143-39.428q2.857-2.572 7.143-2.572 4.572 0.572 6.572 3.428 20.857 27.143 51.143 42t64.286 14.857q29.714 0 56.714-11.572t46.714-31.286 31.286-46.714 11.572-56.714-11.572-56.714-31.286-46.714-46.714-31.285-56.714-11.572q-28 0-53.714 10.143t-45.715 29l39.143 39.428q8.857 8.572 4 19.714-4.857 11.428-16.857 11.428h-128q-7.428 0-12.857-5.428t-5.428-12.857v-128q0-12 11.428-16.857 11.143-4.857 19.715 4l37.143 36.857q30.572-28.857 69.857-44.715t81.286-15.857q44.572 0 85.143 17.428t70 46.857 46.857 70 17.428 85.143z" fill="#000000" />
</svg>
