<?xml version="1.0" encoding="utf-8"?>
<!-- Generated by IcoMoon.io -->
<!DOCTYPE svg PUBLIC "-//W3C//DTD SVG 1.1//EN" "http://www.w3.org/Graphics/SVG/1.1/DTD/svg11.dtd">
<svg version="1.1" xmlns="http://www.w3.org/2000/svg" xmlns:xlink="http://www.w3.org/1999/xlink" width="476" height="512" viewBox="0 0 476 512">
<g>
</g>
	<path d="M475.428 164.571v73.143q0 7.428-5.428 12.857t-12.857 5.429h-18.286q-7.428 0-12.857-5.428t-5.428-12.857v-73.143q0-30.286-21.428-51.715t-51.714-21.428-51.714 21.428-21.428 51.715v54.857h27.428q11.428 0 19.428 8t8 19.429v164.571q0 11.428-8 19.428t-19.428 8h-274.286q-11.428 0-19.428-8t-8-19.428v-164.571q0-11.429 8-19.429t19.428-8h192v-54.857q0-52.857 37.572-90.428t90.428-37.572 90.428 37.572 37.572 90.428z" fill="#000000" />
</svg>
