<?xml version="1.0" encoding="utf-8"?>
<!-- Generated by IcoMoon.io -->
<!DOCTYPE svg PUBLIC "-//W3C//DTD SVG 1.1//EN" "http://www.w3.org/Graphics/SVG/1.1/DTD/svg11.dtd">
<svg version="1.1" xmlns="http://www.w3.org/2000/svg" xmlns:xlink="http://www.w3.org/1999/xlink" width="329" height="512" viewBox="0 0 329 512">
<g>
</g>
	<path d="M301.714 219.429q11.428 0 19.428 8t8 19.429v164.571q0 11.428-8 19.428t-19.428 8h-274.286q-11.428 0-19.428-8t-8-19.428v-164.571q0-11.429 8-19.429t19.428-8h9.143v-91.428q0-52.857 37.572-90.428t90.428-37.572 90.429 37.572 37.572 90.428q0 7.428-5.428 12.857t-12.857 5.428h-18.286q-7.428 0-12.857-5.428t-5.429-12.857q0-30.285-21.428-51.715t-51.714-21.428-51.715 21.428-21.428 51.715v91.429h210.285z" fill="#000000" />
</svg>
