<?xml version="1.0" encoding="utf-8"?>
<!-- Generated by IcoMoon.io -->
<!DOCTYPE svg PUBLIC "-//W3C//DTD SVG 1.1//EN" "http://www.w3.org/Graphics/SVG/1.1/DTD/svg11.dtd">
<svg version="1.1" xmlns="http://www.w3.org/2000/svg" xmlns:xlink="http://www.w3.org/1999/xlink" width="439" height="512" viewBox="0 0 439 512">
<g>
</g>
	<path d="M319.428 250.286q-2.286 5.714-8.572 5.714h-54.857v100.572q0 4-2.571 6.572t-6.572 2.572h-54.857q-4 0-6.571-2.572t-2.571-6.572v-100.572h-54.857q-4 0-6.572-2.571t-2.572-6.571q0-3.429 2.857-6.857l91.143-91.143q3.143-2.571 6.571-2.571t6.572 2.571l91.428 91.428q4.286 4.572 2 10zM219.429 100.572q-42.285 0-78 20.857t-56.572 56.572-20.857 78 20.857 78 56.572 56.572 78 20.857 78-20.857 56.572-56.572 20.857-78-20.857-78-56.572-56.572-78-20.857zM438.857 256q0 59.714-29.428 110.143t-79.857 79.857-110.143 29.428-110.143-29.428-79.857-79.857-29.428-110.143 29.428-110.143 79.857-79.857 110.143-29.428 110.143 29.428 79.857 79.857 29.428 110.143z" fill="#000000" />
</svg>
