<?xml version="1.0" encoding="utf-8"?>
<!-- Generated by IcoMoon.io -->
<!DOCTYPE svg PUBLIC "-//W3C//DTD SVG 1.1//EN" "http://www.w3.org/Graphics/SVG/1.1/DTD/svg11.dtd">
<svg version="1.1" xmlns="http://www.w3.org/2000/svg" xmlns:xlink="http://www.w3.org/1999/xlink" width="476" height="512" viewBox="0 0 476 512">
<g>
</g>
	<path d="M365.714 420.572q0-7.428-5.428-12.857t-12.857-5.428-12.857 5.428-5.428 12.857 5.428 12.857 12.857 5.428 12.857-5.428 5.428-12.857zM438.857 420.572q0-7.428-5.428-12.857t-12.857-5.428-12.857 5.428-5.428 12.857 5.428 12.857 12.857 5.428 12.857-5.428 5.428-12.857zM475.428 356.572v91.428q0 11.428-8 19.428t-19.428 8h-420.572q-11.428 0-19.428-8t-8-19.428v-91.428q0-11.428 8-19.428t19.428-8h122q6 16 20.143 26.286t31.571 10.286h73.143q17.428 0 31.572-10.286t20.143-26.286h122q11.428 0 19.428 8t8 19.428zM382.572 171.429q-4.857 11.429-16.857 11.429h-73.143v128q0 7.428-5.428 12.857t-12.857 5.428h-73.143q-7.429 0-12.857-5.428t-5.428-12.857v-128h-73.143q-12 0-16.857-11.428-4.857-11.143 4-19.714l128-128q5.143-5.428 12.857-5.428t12.857 5.428l128 128q8.857 8.572 4 19.714z" fill="#000000" />
</svg>
