<?xml version="1.0" encoding="utf-8"?>
<!-- Generated by IcoMoon.io -->
<!DOCTYPE svg PUBLIC "-//W3C//DTD SVG 1.1//EN" "http://www.w3.org/Graphics/SVG/1.1/DTD/svg11.dtd">
<svg version="1.1" xmlns="http://www.w3.org/2000/svg" xmlns:xlink="http://www.w3.org/1999/xlink" width="403" height="512" viewBox="0 0 403 512">
<g>
</g>
	<path d="M402.286 401.428q0 34.286-20.857 54.143t-55.428 19.857h-249.714q-34.572 0-55.428-19.857t-20.857-54.143q0-15.143 1-29.572t4-31.143 7.572-31 12.285-27.857 17.715-23.143 24.428-15.286 31.857-5.714q2.572 0 12 6.143t21.285 13.715 30.857 13.714 38.143 6.143 38.143-6.143 30.857-13.714 21.286-13.714 12-6.143q17.428 0 31.857 5.714t24.428 15.285 17.714 23.143 12.286 27.857 7.572 31 4 31.143 1 29.572zM310.857 146.286q0 45.428-32.143 77.572t-77.572 32.143-77.572-32.143-32.143-77.571 32.143-77.572 77.572-32.143 77.572 32.143 32.143 77.572z" fill="#000000" />
</svg>
