<?xml version="1.0" encoding="utf-8"?>
<!-- Generated by IcoMoon.io -->
<!DOCTYPE svg PUBLIC "-//W3C//DTD SVG 1.1//EN" "http://www.w3.org/Graphics/SVG/1.1/DTD/svg11.dtd">
<svg version="1.1" xmlns="http://www.w3.org/2000/svg" xmlns:xlink="http://www.w3.org/1999/xlink" width="403" height="512" viewBox="0 0 403 512">
<g>
</g>
	<path d="M109.715 384q0 7.428-5.428 12.857t-12.857 5.428-12.857-5.428-5.428-12.857 5.428-12.857 12.857-5.428 12.857 5.428 5.428 12.857zM402.286 401.428q0 34.572-20.857 54.286t-55.428 19.714h-249.714q-34.572 0-55.428-19.714t-20.857-54.286q0-19.428 1.571-37.428t6.857-39.428 13.572-37.857 23.143-29.428 34.285-17.286q-6.285 14.857-6.285 34.286v58q-16.572 5.714-26.572 20t-10 31.714q0 22.857 16 38.857t38.857 16 38.857-16 16-38.857q0-17.428-10.143-31.714t-26.428-20v-58q0-17.714 7.143-26.572 37.715 29.714 84.285 29.714t84.285-29.714q7.143 8.857 7.143 26.572v18.286q-30.286 0-51.714 21.428t-21.428 51.714v25.428q-9.143 8.286-9.143 20.286 0 11.428 8 19.428t19.429 8 19.428-8 8-19.428q0-12-9.143-20.286v-25.428q0-14.857 10.857-25.714t25.714-10.857 25.714 10.857 10.857 25.714v25.428q-9.143 8.286-9.143 20.286 0 11.428 8 19.428t19.428 8 19.428-8 8-19.428q0-12-9.143-20.286v-25.428q0-19.428-9.857-36.428t-26.714-26.714q0-2.857 0.143-12.143t0-13.714-0.714-11.857-2-13.428-3.714-11.428q19.428 4.286 34.286 17.286t23.143 29.428 13.572 37.857 6.857 39.428 1.572 37.428zM310.857 146.286q0 45.428-32.143 77.572t-77.572 32.143-77.572-32.143-32.143-77.571 32.143-77.572 77.572-32.143 77.572 32.143 32.143 77.572z" fill="#000000" />
</svg>
