<?xml version="1.0" encoding="utf-8"?>
<!-- Generated by IcoMoon.io -->
<!DOCTYPE svg PUBLIC "-//W3C//DTD SVG 1.1//EN" "http://www.w3.org/Graphics/SVG/1.1/DTD/svg11.dtd">
<svg version="1.1" xmlns="http://www.w3.org/2000/svg" xmlns:xlink="http://www.w3.org/1999/xlink" width="549" height="512" viewBox="0 0 549 512">
<g>
</g>
	<path d="M547.715 148.571q6.572 18.285-42.857 84-6.857 9.143-18.572 24.285-22.286 28.572-25.714 37.428-4.857 11.714 4 23.143 4.857 6 23.143 23.428h0.286l1.143 1.143q40.285 37.428 54.572 63.143 0.857 1.428 1.857 3.572t2 7.572-0.143 9.714-7.143 7.857-16.857 3.572l-73.143 1.143q-6.857 1.428-16-1.428t-14.857-6.286l-5.714-3.428q-8.572-6-20-18.286t-19.572-22.143-17.428-16.572-16.143-4.428q-0.857 0.286-2.286 1t-4.857 4.143-6.143 8.428-4.857 14.857-1.857 22.143q0 4.286-1 7.857t-2.143 5.286l-1.143 1.428q-5.143 5.428-15.143 6.286h-32.857q-20.286 1.143-41.714-4.714t-37.572-15.143-29.428-18.857-20.143-16.428l-7.143-6.857q-2.857-2.857-7.857-8.572t-20.428-26-30.285-43.143-35-60.286-37.285-77.714q-1.714-4.572-1.714-7.714t0.857-4.572l1.143-1.714q4.285-5.428 16.285-5.428l78.285-0.571q3.428 0.571 6.572 1.857t4.572 2.429l1.428 0.857q4.572 3.143 6.857 9.143 5.715 14.286 13.143 29.571t11.714 23.286l4.572 8.286q8.286 17.143 16 29.714t13.857 19.572 11.857 11 9.714 4 7.714-1.428q0.571-0.286 1.429-1.428t3.429-6.286 3.857-13.428 2.714-23.143 0-35.715q-0.571-11.428-2.571-20.857t-4-13.143l-1.714-3.429q-7.143-9.714-24.286-12.286-3.714-0.571 1.429-6.857 4.857-5.428 10.857-8.572 15.143-7.428 68.286-6.857 23.428 0.285 38.572 3.714 5.714 1.429 9.572 3.857t5.857 6.857 3 9.143 1 13-0.286 15.714-0.714 20.143-0.428 23.571q0 3.143-0.286 12t-0.143 13.714 1 11.572 3.286 11.143 6.428 7q2.286 0.572 4.857 1.143t7.428-3.143 10.857-9.857 14.857-19.143 19.428-30.715q17.143-29.714 30.572-64.286 1.143-2.857 2.857-5t3.143-3l1.143-0.857 1.428-0.714t3.714-0.857 5.714-0.143l82.286-0.571q11.143-1.429 18.285 0.714t8.857 4.714z" fill="#000000" />
</svg>
