<?xml version="1.0" encoding="utf-8"?>
<!-- Generated by IcoMoon.io -->
<!DOCTYPE svg PUBLIC "-//W3C//DTD SVG 1.1//EN" "http://www.w3.org/Graphics/SVG/1.1/DTD/svg11.dtd">
<svg version="1.1" xmlns="http://www.w3.org/2000/svg" xmlns:xlink="http://www.w3.org/1999/xlink" width="329" height="512" viewBox="0 0 329 512">
<g>
</g>
	<path d="M219.429 100.572v310.857q0 7.428-5.429 12.857t-12.857 5.428-12.857-5.428l-95.143-95.143h-74.857q-7.428 0-12.857-5.428t-5.428-12.857v-109.714q0-7.428 5.428-12.857t12.857-5.429h74.857l95.143-95.143q5.428-5.428 12.857-5.428t12.857 5.428 5.428 12.857zM329.143 256q0 21.714-12.143 40.428t-32.143 26.714q-2.857 1.428-7.143 1.428-7.428 0-12.857-5.286t-5.428-13q0-6 3.428-10.143t8.286-7.143 9.714-6.572 8.286-10.143 3.428-16.286-3.428-16.286-8.286-10.143-9.714-6.571-8.286-7.143-3.428-10.143q0-7.714 5.428-13t12.857-5.286q4.286 0 7.143 1.429 20 7.714 32.143 26.571t12.143 40.572z" fill="#000000" />
</svg>
