<?xml version="1.0" encoding="utf-8"?>
<!-- Generated by IcoMoon.io -->
<!DOCTYPE svg PUBLIC "-//W3C//DTD SVG 1.1//EN" "http://www.w3.org/Graphics/SVG/1.1/DTD/svg11.dtd">
<svg version="1.1" xmlns="http://www.w3.org/2000/svg" xmlns:xlink="http://www.w3.org/1999/xlink" width="512" height="512" viewBox="0 0 512 512">
<g>
</g>
	<path d="M292.572 392.857v-54.286q0-4-2.714-6.714t-6.428-2.714h-54.857q-3.714 0-6.429 2.714t-2.714 6.714v54.286q0 4 2.714 6.714t6.428 2.714h54.857q3.714 0 6.428-2.714t2.714-6.714zM292 286l5.143-131.143q0-3.429-2.857-5.429-3.714-3.143-6.857-3.143h-62.857q-3.143 0-6.857 3.143-2.857 2-2.857 6l4.857 130.572q0 2.857 2.857 4.714t6.857 1.857h52.857q4 0 6.714-1.857t3-4.714zM288 19.143l219.428 402.285q10 18-0.572 36-4.857 8.286-13.286 13.143t-18.143 4.857h-438.857q-9.715 0-18.143-4.857t-13.286-13.143q-10.572-18-0.572-36l219.429-402.286q4.857-8.857 13.429-14t18.572-5.143 18.572 5.143 13.428 14z" fill="#000000" />
</svg>
