<?xml version="1.0" encoding="utf-8"?>
<!-- Generated by IcoMoon.io -->
<!DOCTYPE svg PUBLIC "-//W3C//DTD SVG 1.1//EN" "http://www.w3.org/Graphics/SVG/1.1/DTD/svg11.dtd">
<svg version="1.1" xmlns="http://www.w3.org/2000/svg" xmlns:xlink="http://www.w3.org/1999/xlink" width="512" height="512" viewBox="0 0 512 512">
<g>
</g>
	<path d="M192.857 366.857q6-9.714 3.143-19.714t-12.857-14.286q-9.714-4-20.857-0.286t-17.143 13.143q-6.286 9.714-3.714 19.572t12.286 14.428 21.285 0.714 17.857-13.572zM219.714 332.286q2.286-3.714 1-7.572t-5-5.286q-4-1.428-8.143 0.143t-6.143 5.286q-4.857 8.857 3.714 12.857 4 1.428 8.286-0.143t6.286-5.286zM269.428 362.857q-12.857 29.143-45.143 42.857t-64 3.428q-30.571-9.714-42.143-36.143t1.857-53.572q13.429-26.572 43.285-39.714t60.143-5.428q31.715 8.286 45.285 34.143t0.714 54.428zM358.572 317.143q-2.572-27.428-25.428-48.572t-59.572-31.143-78.428-6q-63.714 6.571-105.572 40.429t-37.857 75.572q2.572 27.428 25.428 48.572t59.572 31.143 78.428 6q63.714-6.572 105.572-40.428t37.857-75.572zM446.572 318.286q0 19.428-10.572 39.857t-31.143 39.143-48.143 33.572-64.572 23.714-77.286 8.857-78.572-9.572-68.715-26.572-49-43.143-18.572-57q0-32.857 19.857-70t56.428-73.714q48.285-48.286 97.572-67.428t70.429 2q18.572 18.285 5.714 59.715-1.143 4-0.286 5.714t2.857 2 4.143-0.143 3.857-1l1.714-0.571q39.714-16.857 70.286-16.857t43.714 17.429q12.857 18 0 50.857-0.572 3.714-1.286 5.714t1.286 3.571 3.428 2.143 4.857 1.714q16.286 5.143 29.428 13.429t22.857 23.286 9.714 33.286zM425.428 140q12 13.428 15.572 31t-1.857 33.572q-2.286 6.572-8.428 9.714t-12.714 1.143q-6.572-2.286-9.714-8.429t-1.143-12.714q5.714-18-6.857-31.714t-30.572-10q-6.857 1.429-12.857-2.286t-7.143-10.572q-1.428-6.857 2.286-12.715t10.572-7.285q17.143-3.715 34 1.572t28.857 18.715zM477.143 93.428q24.857 27.428 32.143 63.572t-3.857 69q-2.572 7.714-9.714 11.428t-14.857 1.143-11.428-9.714-1.428-14.857q8-23.428 2.857-49.143t-22.857-45.143q-17.714-19.715-42.286-27.285t-49.428-2.428q-8 1.715-14.857-2.715t-8.572-12.428 2.714-14.715 12.428-8.428q35.143-7.428 69.714 3.285t59.428 38.428z" fill="#000000" />
</svg>
