<?xml version="1.0" encoding="utf-8"?>
<!-- Generated by IcoMoon.io -->
<!DOCTYPE svg PUBLIC "-//W3C//DTD SVG 1.1//EN" "http://www.w3.org/Graphics/SVG/1.1/DTD/svg11.dtd">
<svg version="1.1" xmlns="http://www.w3.org/2000/svg" xmlns:xlink="http://www.w3.org/1999/xlink" width="512" height="512" viewBox="0 0 512 512">
<g>
</g>
	<path d="M146.857 341.428l23.143-85.428h-45.428l21.428 85.714q0.286 0.286 0.286 0.857t0.286 0.857q0-0.286 0.143-1t0.143-1zM180 219.429l10-36.571h-83.428l9.143 36.572h64.285zM234.857 219.429h39.715l-10-36.571h-20zM363.143 341.714l22.286-85.714h-46.286l23.143 85.428q0 0.286 0.143 1t0.428 1q0-0.286 0.143-0.857t0.143-0.857zM394.857 219.429l9.428-36.571h-84.857l9.714 36.572h65.714zM512 228.571v18.285q0 4-2.572 6.572t-6.572 2.571h-60.857l-46.857 176q-2 6.857-8.857 6.857h-45.428q-6.857 0-8.857-6.857l-47.428-176h-59.714l-47.714 176q-2 6.857-8.857 6.857h-45.428q-3.143 0-5.572-2t-3-4.857l-45.715-176h-59.428q-4 0-6.572-2.571t-2.571-6.571v-18.286q0-4 2.571-6.572t6.572-2.571h50l-9.428-36.571h-40.572q-4 0-6.572-2.571t-2.571-6.571v-18.286q0-4 2.571-6.572t6.572-2.571h31.143l-25.428-98.285q-1.428-4.285 1.428-8 2.857-3.428 7.428-3.428h39.143q7.428 0 8.857 6.857l25.715 102.857h102.572l27.714-102.857q2-6.857 8.857-6.857h36q6.857 0 8.857 6.857l28 102.857h104.286l26.572-102.857q1.428-6.857 8.857-6.857h39.143q4.572 0 7.428 3.428 2.857 3.715 1.428 8l-26 98.285h31.714q4 0 6.572 2.571t2.571 6.572v18.286q0 4-2.572 6.572t-6.572 2.571h-41.428l-9.714 36.571h51.143q4 0 6.572 2.571t2.572 6.571z" fill="#000000" />
</svg>
