<?xml version="1.0" encoding="utf-8"?>
<!-- Generated by IcoMoon.io -->
<!DOCTYPE svg PUBLIC "-//W3C//DTD SVG 1.1//EN" "http://www.w3.org/Graphics/SVG/1.1/DTD/svg11.dtd">
<svg version="1.1" xmlns="http://www.w3.org/2000/svg" xmlns:xlink="http://www.w3.org/1999/xlink" width="476" height="512" viewBox="0 0 476 512">
<g>
</g>
	<path d="M109.715 420.572q0-7.428-5.428-12.857t-12.857-5.428-12.857 5.428-5.428 12.857 5.428 12.857 12.857 5.428 12.857-5.428 5.428-12.857zM293.714 300.572l-194.857 194.857q-10.572 10.572-25.715 10.572-14.857 0-26-10.572l-30.285-30.857q-10.857-10.286-10.857-25.714 0-15.143 10.857-26l194.571-194.571q11.143 28 32.714 49.571t49.572 32.714zM474.857 176.286q0 11.143-6.572 30.286-13.428 38.286-47 62.143t-73.857 23.857q-52.857 0-90.428-37.572t-37.572-90.428 37.572-90.428 90.428-37.572q16.572 0 34.714 4.715t30.714 13.285q4.572 3.143 4.572 8t-4.572 8l-83.714 48.285v64l55.143 30.572q1.428-0.857 22.572-13.857t38.714-23.143 20.143-10.143q4.286 0 6.714 2.857t2.428 7.143z" fill="#000000" />
</svg>
