<?xml version="1.0" encoding="utf-8"?>
<!-- Generated by IcoMoon.io -->
<!DOCTYPE svg PUBLIC "-//W3C//DTD SVG 1.1//EN" "http://www.w3.org/Graphics/SVG/1.1/DTD/svg11.dtd">
<svg version="1.1" xmlns="http://www.w3.org/2000/svg" xmlns:xlink="http://www.w3.org/1999/xlink" width="403" height="512" viewBox="0 0 403 512">
<g>
</g>
	<path d="M170.571 190.571q-2.857 5.143-73.428 130.285-7.715 13.143-18.572 13.143h-68.285q-6 0-8.857-4.857t0-10.286l72.285-128q0.285 0 0-0.286l-46-79.715q-3.428-6.285-0.285-10.572 2.572-4.285 9.143-4.285h68.285q11.428 0 18.857 12.857zM400.857 7.143q3.143 4.572 0 10.572l-150.857 266.857v0.286l96 175.714q3.143 5.714 0.286 10.572-2.857 4.286-9.143 4.286h-68.286q-12 0-18.857-12.857l-96.857-177.714q5.143-9.143 151.714-269.143 7.143-12.857 18.286-12.857h68.857q6.286 0 8.857 4.285z" fill="#000000" />
</svg>
