<?xml version="1.0" encoding="utf-8"?>
<!-- Generated by IcoMoon.io -->
<!DOCTYPE svg PUBLIC "-//W3C//DTD SVG 1.1//EN" "http://www.w3.org/Graphics/SVG/1.1/DTD/svg11.dtd">
<svg version="1.1" xmlns="http://www.w3.org/2000/svg" xmlns:xlink="http://www.w3.org/1999/xlink" width="439" height="512" viewBox="0 0 439 512">
<g>
</g>
	<path d="M195.714 218.571q0-0.286-36-63.429-6-9.714-14.857-9.714h-52.572q-5.143 0-7.428 3.143-2 3.429 0.285 8.286l35.715 61.715v0.286l-56 98.857q-2.572 4 0 8 2.285 3.714 6.857 3.714h52.857q8.857 0 14.286-10.286zM374 76.572q-2-3.428-6.857-3.428h-53.428q-8.572 0-14 10l-117.428 208.285q0.286 0.572 74.857 137.428 5.714 10 14.857 10h52.572q5.143 0 7.143-3.428 2.286-3.714-0.286-8l-74.286-136v-0.286l116.857-206.571q2.286-4.572 0-8zM438.857 118.857v274.286q0 34-24.143 58.143t-58.143 24.143h-274.286q-34 0-58.143-24.143t-24.143-58.143v-274.286q0-34 24.143-58.143t58.143-24.143h274.286q34 0 58.143 24.143t24.143 58.143z" fill="#000000" />
</svg>
