<?xml version="1.0" encoding="utf-8"?>
<!-- Generated by IcoMoon.io -->
<!DOCTYPE svg PUBLIC "-//W3C//DTD SVG 1.1//EN" "http://www.w3.org/Graphics/SVG/1.1/DTD/svg11.dtd">
<svg version="1.1" xmlns="http://www.w3.org/2000/svg" xmlns:xlink="http://www.w3.org/1999/xlink" width="293" height="512" viewBox="0 0 293 512">
<g>
</g>
	<path d="M172.286 438.857h-49.143q-3.715 0-6.428-2.572t-2.715-6.572v-94.286h-82.285q-3.715 0-6.428-2.572t-2.715-6.572v-29.428q0-3.714 2.715-6.428t6.428-2.714h82.285v-24.286h-82.285q-3.715 0-6.428-2.572t-2.715-6.572v-29.714q0-3.714 2.715-6.428t6.428-2.714h61.143l-91.715-165.143q-2.285-4.572 0-9.143 2.857-4.572 8-4.572h55.428q5.428 0 8.285 5.143l61.429 121.428q5.428 10.857 16 35.714 2.857-6.857 8.714-19.428t7.857-17.428l54.571-120q2.286-5.428 8.286-5.428h54.572q4.857 0 7.714 4.572 2.572 4 0.286 8.857l-89.428 165.429h61.428q3.714 0 6.428 2.714t2.714 6.429v29.714q0 4-2.714 6.572t-6.428 2.572h-82.857v24.286h82.857q3.714 0 6.428 2.714t2.714 6.428v29.428q0 4-2.714 6.572t-6.428 2.572h-82.857v94.286q0 3.714-2.714 6.428t-6.429 2.714z" fill="#000000" />
</svg>
