<?xml version="1.0" encoding="utf-8"?>
<!-- Generated by IcoMoon.io -->
<!DOCTYPE svg PUBLIC "-//W3C//DTD SVG 1.1//EN" "http://www.w3.org/Graphics/SVG/1.1/DTD/svg11.dtd">
<svg version="1.1" xmlns="http://www.w3.org/2000/svg" xmlns:xlink="http://www.w3.org/1999/xlink" width="439" height="512" viewBox="0 0 439 512">
<g>
</g>
	<path d="M277.428 355.428v60.286q0 19.143-11.143 19.143-6.572 0-12.857-6.286v-86q6.285-6.286 12.857-6.286 11.143 0 11.143 19.143zM374 355.714v13.143h-25.714v-13.143q0-19.428 12.857-19.428t12.857 19.428zM98 293.428h30.572v-26.857h-89.143v26.857h30v162.572h28.572v-162.572zM180.286 456h25.428v-141.143h-25.428v108q-8.572 12-16.286 12-5.143 0-6-6-0.286-0.857-0.286-10v-104h-25.428v111.714q0 14 2.286 20.857 3.429 10.572 16.572 10.572 13.714 0 29.143-17.428v15.428zM302.857 413.714v-56.286q0-20.857-2.572-28.286-4.857-16-20.286-16-14.286 0-26.572 15.428v-62h-25.428v189.429h25.428v-13.714q12.857 15.714 26.572 15.714 15.428 0 20.286-15.714 2.572-7.714 2.572-28.572zM399.428 410.857v-3.714h-26q0 14.572-0.572 17.428-2 10.286-11.428 10.286-13.143 0-13.143-19.714v-24.857h51.143v-29.428q0-22.572-7.714-33.143-11.143-14.572-30.286-14.572-19.428 0-30.572 14.572-8 10.572-8 33.143v49.428q0 22.572 8.286 33.143 11.143 14.572 30.857 14.572 20.572 0 30.857-15.143 5.143-7.714 6-15.428 0.572-2.572 0.572-16.572zM225.714 150v-60q0-19.715-12.286-19.715t-12.286 19.715v60q0 20 12.286 20t12.286-20zM431.143 364.572q0 66.857-7.428 100-4 16.857-16.572 28.286t-29.143 13.143q-52.572 6-158.571 6t-158.571-6q-16.572-1.714-29.285-13.143t-16.428-28.286q-7.428-32-7.428-100 0-66.857 7.428-100 4-16.857 16.572-28.286t29.428-13.428q52.285-5.714 158.286-5.714t158.571 5.714q16.572 2 29.286 13.428t16.428 28.286q7.428 32 7.428 100zM146 0h29.143l-34.571 114v77.428h-28.572v-77.428q-4-21.143-17.428-60.572-10.572-29.428-18.572-53.428h30.285l20.285 75.143zM251.714 95.143v50q0 23.143-8 33.715-10.572 14.572-30.286 14.572-19.143 0-30-14.572-8-10.857-8-33.714v-50q0-22.857 8-33.428 10.857-14.572 30-14.572 19.714 0 30.286 14.572 8 10.572 8 33.428zM347.428 48.857v142.571h-26v-15.714q-15.143 17.714-29.428 17.714-13.143 0-16.857-10.572-2.286-6.857-2.286-21.428v-112.572h26v104.857q0 9.428 0.286 10 0.857 6.286 6 6.286 7.714 0 16.286-12.286v-108.857h26z" fill="#000000" />
</svg>
