<?xml version="1.0" encoding="utf-8"?>
<!-- Generated by IcoMoon.io -->
<!DOCTYPE svg PUBLIC "-//W3C//DTD SVG 1.1//EN" "http://www.w3.org/Graphics/SVG/1.1/DTD/svg11.dtd">
<svg version="1.1" xmlns="http://www.w3.org/2000/svg" xmlns:xlink="http://www.w3.org/1999/xlink" width="512" height="512" viewBox="0 0 512 512">
<g>
</g>
	<path d="M365.714 256q0-10.572-8.572-15.428l-146.286-91.428q-8.857-5.714-18.572-0.571-9.428 5.143-9.428 16v182.857q0 10.857 9.428 16 4.572 2.286 8.857 2.286 5.714 0 9.714-2.857l146.285-91.428q8.572-4.857 8.572-15.428zM512 256q0 27.428-0.286 42.857t-2.428 39-6.428 42.143q-4.572 20.857-19.714 35.143t-35.428 16.572q-63.428 7.143-191.714 7.143t-191.714-7.143q-20.285-2.286-35.572-16.572t-19.857-35.143q-4-18.572-6.143-42.143t-2.429-39-0.285-42.857 0.285-42.857 2.429-39 6.428-42.143q4.572-20.857 19.715-35.143t35.428-16.572q63.428-7.143 191.714-7.143t191.714 7.143q20.286 2.285 35.572 16.572t19.857 35.143q4 18.571 6.143 42.143t2.428 39 0.286 42.857z" fill="#000000" />
</svg>
