<?xml version="1.0" encoding="utf-8"?>
<!-- Generated by IcoMoon.io -->
<!DOCTYPE svg PUBLIC "-//W3C//DTD SVG 1.1//EN" "http://www.w3.org/Graphics/SVG/1.1/DTD/svg11.dtd">
<svg version="1.1" xmlns="http://www.w3.org/2000/svg" xmlns:xlink="http://www.w3.org/1999/xlink" width="439" height="512" viewBox="0 0 439 512">
<g>
</g>
	<path d="M262.572 372.286v-44.857q0-14.286-8.286-14.286-4.857 0-9.428 4.572v64q4.572 4.572 9.428 4.572 8.286 0 8.286-14zM315.143 337.428h18.857v-9.714q0-14.572-9.428-14.572t-9.428 14.572v9.714zM152 261.428v20h-22.857v120.857h-21.143v-120.857h-22.285v-20h66.285zM209.429 297.428v104.857h-19.143v-11.428q-11.143 12.857-21.714 12.857-9.428 0-12-8-1.714-4.572-1.714-15.428v-82.857h18.857v77.143q0 6.857 0.286 7.428 0.286 4.286 4.286 4.286 5.714 0 12-8.857v-80h19.143zM281.428 329.143v41.714q0 14.857-2 20.857-3.428 12-15.143 12-10 0-19.428-11.714v10.286h-19.143v-140.857h19.143v46q9.143-11.428 19.428-11.428 11.714 0 15.143 12 2 6 2 21.143zM353.143 366v2.572q0 8.286-0.572 12.286-0.857 6.286-4.286 11.428-7.714 11.428-22.857 11.428-14.857 0-23.143-10.857-6-7.714-6-24.572v-36.857q0-16.857 5.714-24.572 8.286-10.857 22.857-10.857t22.286 10.857q6 8 6 24.572v21.714h-38v18.572q0 14.572 9.714 14.572 6.857 0 8.572-7.428 0-0.286 0.143-2t0.143-4.714v-6.143h19.428zM224.286 130.571v44.571q0 14.572-9.143 14.572t-9.143-14.572v-44.572q0-14.857 9.143-14.857t9.143 14.857zM376.572 334.286q0-50.572-5.428-74.286-2.857-12.572-12.286-21t-21.714-9.857q-38.857-4.286-117.714-4.286-78.572 0-117.428 4.286-12.572 1.429-21.857 9.857t-12.143 21q-5.715 24.857-5.715 74.286 0 50.286 5.715 74.286 2.857 12.286 12.143 20.857t21.572 10q39.143 4.286 117.714 4.286t117.714-4.286q12.286-1.428 21.572-10t12.143-20.857q5.714-24 5.714-74.286zM160.857 148.286l25.715-84.572h-21.428l-14.572 55.715-15.143-55.715h-22.285l6.857 19.715t6.572 19.715q10 29.428 13.143 45.143v57.428h21.143v-57.428zM243.429 171.429v-37.143q0-16.572-6-24.857-8.286-10.857-22.285-10.857-14.572 0-22.286 10.857-6 8.285-6 24.857v37.143q0 16.571 6 24.857 7.714 10.857 22.286 10.857 14 0 22.286-10.857 6-7.714 6-24.857zM295.143 205.714h19.143v-105.715h-19.143v80.857q-6.286 8.857-12 8.857-4.286 0-4.572-4.571-0.286-0.571-0.286-7.428v-77.715h-19.143v83.715q0 10.572 1.714 15.714 3.143 7.714 12.286 7.714 10.286 0 22-12.857v11.429zM438.857 118.857v274.286q0 34-24.143 58.143t-58.143 24.143h-274.286q-34 0-58.143-24.143t-24.143-58.143v-274.286q0-34 24.143-58.143t58.143-24.143h274.286q34 0 58.143 24.143t24.143 58.143z" fill="#000000" />
</svg>
