<?xml version="1.0" encoding="utf-8"?>
<!-- Generated by IcoMoon.io -->
<!DOCTYPE svg PUBLIC "-//W3C//DTD SVG 1.1//EN" "http://www.w3.org/Graphics/SVG/1.1/DTD/svg11.dtd">
<svg version="1.1" xmlns="http://www.w3.org/2000/svg" xmlns:xlink="http://www.w3.org/1999/xlink" width="476" height="512" viewBox="0 0 476 512">
<g>
</g>
	<path d="M292.572 228.571v18.285q0 3.714-2.714 6.428t-6.428 2.714h-64v64q0 3.714-2.714 6.428t-6.428 2.714h-18.286q-3.714 0-6.428-2.714t-2.714-6.428v-64h-64q-3.715 0-6.428-2.714t-2.715-6.428v-18.286q0-3.714 2.715-6.428t6.428-2.714h64v-64q0-3.714 2.714-6.428t6.428-2.714h18.286q3.714 0 6.428 2.714t2.714 6.428v64h64q3.714 0 6.428 2.714t2.714 6.428zM329.143 237.714q0-52.857-37.572-90.428t-90.428-37.572-90.428 37.572-37.572 90.428 37.572 90.428 90.428 37.572 90.428-37.572 37.572-90.428zM475.428 475.428q0 15.143-10.714 25.857t-25.857 10.714q-15.428 0-25.714-10.857l-98-97.714q-51.143 35.428-114 35.428-40.857 0-78.143-15.857t-64.285-42.857-42.857-64.286-15.857-78.143 15.857-78.143 42.857-64.285 64.285-42.857 78.143-15.857 78.143 15.857 64.286 42.857 42.857 64.285 15.857 78.143q0 62.857-35.428 114l98 98q10.572 10.572 10.572 25.714z" fill="#000000" />
</svg>
